<?xml version="1.0" standalone="no"?>
<!DOCTYPE svg PUBLIC "-//W3C//DTD SVG 1.1//EN" "http://www.w3.org/Graphics/SVG/1.1/DTD/svg11.dtd" >
<svg>
<metadata>
Created by FontForge 20110222 at Tue Jan 21 07:59:38 2014
 By Orthosie Webhosting
2003 Iconian Fonts - www.iconian.com
</metadata>
<defs>
<font id="FunnyPagesRegular" horiz-adv-x="647" >
  <font-face 
    font-family="FunnyPagesRegular"
    font-weight="400"
    font-stretch="normal"
    units-per-em="1000"
    panose-1="0 0 0 0 0 0 0 0 0 0"
    ascent="800"
    descent="-200"
    x-height="538"
    cap-height="662"
    bbox="-102 -298 1152 950"
    underline-thickness="83"
    underline-position="-126"
    unicode-range="U+0020-2122"
  />
<missing-glyph horiz-adv-x="833" 
 />
    <glyph glyph-name=".notdef" horiz-adv-x="833" 
 />
    <glyph glyph-name=".null" horiz-adv-x="0" 
 />
    <glyph glyph-name="nonmarkingreturn" horiz-adv-x="833" 
 />
    <glyph glyph-name="space" unicode=" " horiz-adv-x="403" 
 />
    <glyph glyph-name="exclam" unicode="!" horiz-adv-x="320" 
d="M15 48q0 -9 -1 -27t1.5 -37t9.5 -33t23 -14q22 0 41 12.5t33 31.5t22 41.5t8 42.5v28q0 25 -8 46t-34 21q-28 0 -52.5 -15t-40.5 -38v-12q0 -7 -1 -18t-1 -18v-11zM15 268q0 -12 0.5 -23.5t3.5 -20.5t10 -14t21 -5q3 0 9 1.5t8 1.5q8 5 25.5 21.5t36 36t34 38t20.5 28.5
q2 2 5 14.5t5.5 27.5t4.5 28.5t2 17.5q7 32 22 66l30 68t26.5 68t11.5 66q-69 0 -124 -21q-56 -20 -86 -105t-47.5 -157.5t-17.5 -136.5z" />
    <glyph glyph-name="quotedbl" unicode="&#x22;" horiz-adv-x="567" 
d="M295 520q0 -17 6.5 -45.5t14.5 -58t15 -54.5t9 -35q2 0 7.5 -1t7.5 -1q23 0 42 10.5t34.5 28.5t28.5 41.5t24 49.5q20 55 31.5 108t21.5 87q-17 38 -32 42q-15 6 -42 6q-31 0 -61 -15t-54 -40t-38.5 -57t-14.5 -66zM15 520q0 -17 6.5 -45.5t14.5 -58t15 -54.5t9 -35
q2 0 7.5 -1t7.5 -1q23 0 42 10.5t34.5 28.5t28.5 41.5t24 49.5q20 55 31.5 108t21.5 87q-17 38 -32 42q-15 6 -42 6q-31 0 -61 -15t-54 -40t-38.5 -57t-14.5 -66z" />
    <glyph glyph-name="FL0023h" unicode="#" horiz-adv-x="547" 
d="M15 380q0 -24 1 -66t4 -91t8 -99.5t12.5 -92t17.5 -67.5t24 -26q22 0 39 10t29 26t21 36.5t16 41.5q1 3 1.5 13.5t1.5 26.5l56 22l86 11l18 -183l7.5 -2t12.5 -2q50 0 82 39q17 20 33 41t32 44v20q0 75 -6.5 143.5t-15.5 136t-17 136t-11 142.5q-4 18 -17 20t-25 2
q-33 0 -49 -12.5t-23 -31.5t-9 -41.5t-6 -41.5t-14 -31.5t-34 -12.5q-10 0 -26.5 -2t-33 -3t-29 0.5t-14.5 8.5q-6 17 -9 24t-5 12l-5 12.5t-10 26.5q-15 43 -61 50q-34 -7 -48 -44q-7 -18 -12.5 -34.5t-10.5 -32.5q-8 -31 -9.5 -66t-1.5 -63zM177 361q5 22 22.5 31.5
t28.5 8.5t25.5 -1.5t31.5 -0.5q3 0 16.5 1.5t23.5 2.5t12 1q14 -48 17 -91t1 -88l-89 -34l-74 20l-18 98q0 41 3 52z" />
    <glyph glyph-name="dollar" unicode="$" horiz-adv-x="613" 
d="M30 38q0 -25 19 -43.5t46 -30.5t56 -18t49 -6h47q74 -167 93 -157q20 10 40 177q180 154 203 247v12q0 8 1 21t1 21v12q0 65 -28.5 99.5t-74.5 49.5q-22 7 -44.5 11t-45.5 5q-45 2 -52 29l77 6q10 14 29.5 27.5t38.5 27.5t33.5 31t14.5 39q0 18 -6 30t-16.5 18.5t-23.5 9
t-27 2.5q-35 0 -65 -10.5t-62 -14.5q-49 143 -83 139q-33 -5 -33 -199q-29 -25 -64 -57t-66 -69t-51.5 -79t-20.5 -86q0 -4 1 -13t1 -12q21 -10 37 -17t31 -11t30 -5.5t35 -1.5q7 0 19.5 0.5t13.5 0.5q2 0 8.5 8.5t8.5 8.5q33 0 36 -4q4 -3 6 -42q3 -40 -11 -29
q-14 10 -29 18.5t-35 8.5q-30 0 -55 -13t-43.5 -34.5t-28.5 -49.5t-10 -57z" />
    <glyph glyph-name="FL0025h" unicode="%" horiz-adv-x="810" 
d="M573 540q0 -36 -15.5 -77.5t-37.5 -82t-44.5 -78t-37.5 -67.5q-5 -11 -14 -29.5t-20 -38.5l-21 -39q-5 -9 -10 -16t-9 -12q-9 -10 -32 -61q-11 -25 -20.5 -43t-17.5 -31q-16 -25 -23 -25q-37 0 -75 32q-9 9 -6 5t9 -11.5t11 -13.5t-1 -1q-23 20 -17 86q69 195 90 222
q5 7 10 21t9.5 30t9.5 31.5t11 26.5q11 20 21 42.5t21 46.5q16 34 32.5 67.5t34.5 59.5t37 42t40 16q25 0 38 -5.5t19 -17.5t7 -31.5t1 -47.5zM12 420v8q0 5 0.5 10.5t0.5 8.5v4q5 34 14.5 58.5t20.5 41.5t21.5 27.5t18.5 16.5q17 12 33 20t42 16q2 0 6 0.5t11 0.5q4 1 10 1
h6q24 0 45 -6t37.5 -19t26 -34t9.5 -50q0 -41 -9 -74t-25 -61.5t-37.5 -54.5t-46.5 -53q-13 -11 -30 -11h-32q-29 0 -51.5 11.5t-38.5 31.5t-24 47.5t-8 59.5zM96 489q0 -45 24 -75q25 -31 64 -31q25 0 37 22v6q0 4 0.5 10.5t0.5 11.5v6q0 51 -23 73t-65 22q-2 0 -14.5 -1
t-14.5 -1q-9 -9 -9 -20v-23zM474 138v8q0 5 0.5 10.5t0.5 8.5v4q5 34 14.5 58.5t20.5 41.5t21.5 27.5t18.5 16.5q17 12 33 20t42 16q2 0 6 0.5t11 0.5q4 1 10 1h6q24 0 45 -6t37.5 -19t26 -34t9.5 -50q0 -41 -9 -74t-25 -61.5t-37.5 -54.5t-46.5 -53q-13 -11 -30 -11h-32
q-29 0 -51.5 11.5t-38.5 31.5t-24 47.5t-8 59.5zM558 207q0 -45 24 -75q25 -31 64 -31q25 0 37 22v6q0 4 0.5 10.5t0.5 11.5v6q0 51 -23 73t-65 22q-2 0 -14.5 -1t-14.5 -1q-9 -9 -9 -20v-23z" />
    <glyph glyph-name="FL0026h" unicode="&#x26;" horiz-adv-x="693" 
d="M581 -43q-15 -15 -30 -17t-35 -2q-72 0 -135.5 7.5t-103.5 27.5q-21 10 -40 21.5t-36 25.5q-31 21 -90 80q-30 36 -51.5 69t-36 60.5t-21 47.5t-6.5 30v12v9q0 9 1 12v33q9 12 20.5 19.5t22.5 14.5t18.5 15.5t7.5 22.5q0 13 -5.5 26.5t-12 26t-12 23.5t-5.5 19
q0 33 16 55.5t40.5 36t53.5 19.5t56 6q34 0 99 -12q63 -12 136 -54q70 -38 100 -71q-4 -52 -92 -68q-71 19 -85 30q-13 10 -39 10q-8 0 -21 -1t-25.5 -5t-21.5 -12.5t-9 -23.5q0 -17 11 -28t25.5 -19t29 -12.5t21.5 -7.5h10q20 0 194 -66q174 -65 106 -145l-76 -8
q31 -52 30 -67q-2 -15 -3 -39q-1 -11 -1.5 -22t-1.5 -21q-1 -20 -2 -35t-1 -23zM376 187q0 5 -0.5 12.5t-1.5 15.5q-3 18 -17 18h-116q-2 0 -8.5 -9t-8.5 -14l-1 -4t-1 -8q0 -18 8.5 -29.5t21 -17.5t28.5 -8.5t31 -2.5h31q34 0 34 47z" />
    <glyph glyph-name="quotesingle" unicode="'" horiz-adv-x="293" 
d="M15 520q0 -17 6.5 -45.5t14.5 -58t15 -54.5t9 -35q2 0 7.5 -1t7.5 -1q23 0 42 10.5t34.5 28.5t28.5 41.5t24 49.5q20 55 31.5 108t21.5 87q-17 38 -32 42q-15 6 -42 6q-31 0 -61 -15t-54 -40t-38.5 -57t-14.5 -66z" />
    <glyph glyph-name="parenleft" unicode="(" horiz-adv-x="663" 
d="M243 218q17 40 33 70t32 52.5t32 39.5t32 31q31 28 71 45q28 12 55 20.5t48.5 15.5t35.5 12.5t16 10.5q5 15 10.5 34.5t12.5 42.5q14 51 14 90q-36 0 -81.5 -16.5t-96 -45t-103 -67t-102 -83t-93 -92.5t-76 -95t-51.5 -91.5t-19 -81.5q0 -54 25.5 -88.5t64.5 -54
t84.5 -27t85.5 -7.5q26 0 48.5 0.5t43.5 4t41.5 11t41.5 21.5q2 6 7.5 25t11 41.5t10.5 43.5t6 32l-66 -7q-32 -7 -54 -7h-40q-18 0 -50 17q-30 16 -30 103z" />
    <glyph glyph-name="parenright" unicode=")" horiz-adv-x="663" 
d="M405 218q-17 40 -33.5 69.5t-32.5 52t-32 39.5t-32 32q-32 29 -70 45q-27 12 -54 21t-49 16t-36 12t-16 10q-5 14 -11 33t-13 44q-13 45 -13 90q36 0 81.5 -16.5t96 -45t103 -67t102 -83t93 -92.5t76 -95t51.5 -91.5t19 -81.5q0 -54 -25.5 -88.5t-64 -54t-84.5 -27
t-86 -7.5q-26 0 -48.5 0.5t-43.5 4t-41.5 11t-41.5 21.5q-2 6 -7 25t-11 41.5t-11 43.5t-6 32l67 -7q31 -7 53 -7h40q18 0 50 17q30 16 30 103z" />
    <glyph glyph-name="FL002Ah" unicode="*" horiz-adv-x="438" 
d="M300 338q82 7 86 46q5 36 -13 73q-19 40 -76 101q88 106 65 148q-23 41 -164 -89l-67 61q-81 -18 -108 -45l-15 -15q10 -36 20.5 -56t31.5 -41q2 -2 10.5 -8.5t23.5 -17.5q-91 -91 -55 -145t144 64z" />
    <glyph glyph-name="plus" unicode="+" horiz-adv-x="480" 
d="M420 262q52 63 28 93t-61 43q-41 14 -125 17q-12 137 -59 151q-45 13 -53 -179l-90 -4q-45 -71 -45 -108v-22q33 -18 54 -24.5t51 -6.5q4 0 14.5 1.5t28.5 3.5q0 -128 63 -141q64 -14 57 147z" />
    <glyph glyph-name="comma" unicode="," horiz-adv-x="283" 
d="M198 137q-56 0 -94.5 -29.5t-61.5 -72t-32.5 -90t-7.5 -83.5v-23q1 -5 1 -9v-7v-10q42 15 86.5 42.5t81 62.5t60.5 75t24 80q0 20 -13 42q-12 22 -44 22z" />
    <glyph glyph-name="minus" unicode="-" horiz-adv-x="480" 
d="M420 262q-86 -19 -137.5 -27t-80 -10.5t-39.5 -1.5t-15 0q-1 0 -11 -0.5t-17 -0.5q-30 0 -51 6.5t-54 24.5v22q0 37 45 108q153 39 154 36q1 -1 1 -4q48 0 91.5 -1.5t80.5 -15.5q37 -13 61 -43t-28 -93z" />
    <glyph glyph-name="period" unicode="." horiz-adv-x="270" 
d="M15 32q0 -34 21 -64t54 -30q63 0 104 42q41 44 41 105q0 19 -8 35.5t-21.5 28.5t-31.5 19t-37 7q-30 0 -52.5 -11t-38 -30t-23.5 -45.5t-8 -56.5z" />
    <glyph glyph-name="slash" unicode="/" horiz-adv-x="517" 
d="M487 540q0 -36 -15.5 -77.5t-37.5 -82t-44.5 -78t-37.5 -67.5q-5 -11 -14 -29.5t-20 -38.5l-21 -39q-11 -18 -19 -28q-10 -12 -32 -61q-11 -25 -20.5 -43t-17.5 -31q-16 -25 -23 -25q-37 0 -75 32q-19 17 -34 29.5t-26 22.5q-23 20 -17 86q69 195 90 222q11 14 21.5 31
t21.5 38q11 20 21 42.5t21 46.5q16 34 32.5 67.5t34.5 59.5t37 42t40 16q25 0 49 -10.5t43 -29t31 -43t12 -52.5z" />
    <glyph glyph-name="zero" unicode="0" horiz-adv-x="640" 
d="M15 238q0 -65 16.5 -119.5t47.5 -95t76 -63t103 -22.5h64q33 0 61 22q51 54 94 106t74.5 109t49 123t17.5 149q0 58 -19 99.5t-51.5 68t-75 38.5t-89.5 12q-4 0 -12 -0.5t-21 -1.5q-26 -2 -33 -3q-53 -14 -85.5 -30.5t-64.5 -41.5q-15 -13 -36.5 -33.5t-43.5 -54
t-41 -82.5t-29 -118v-8q0 -6 -1 -17t-1 -21v-16zM182 377q0 23 0.5 45.5t17.5 40.5q2 0 10.5 0.5t18.5 1.5t18.5 1.5t10.5 0.5q82 0 129.5 -44.5t47.5 -145.5v-13q0 -8 -1 -22t-1 -22v-12q-13 -21 -33 -32t-42 -11q-78 0 -127 61t-49 151z" />
    <glyph glyph-name="one" unicode="1" horiz-adv-x="487" 
d="M72 -12q0 -13 2.5 -28t18.5 -18q2 0 12 -0.5t21 -1.5t21 -1.5t13 -0.5q29 0 63.5 3.5t69.5 12.5t68 24t58 37.5t40.5 54t15.5 72.5v10q-8 18 -32 26.5t-50 11.5t-47 2.5t-23 -0.5l-20 36q0 2 -0.5 14.5t-0.5 29.5q0 15 -1 28t-1 23q0 59 3 98q2 20 1.5 55t-2.5 89
q-5 105 -44 105q-18 0 -34.5 -4t-33 -11.5t-34 -19t-39.5 -26.5q-45 -29 -75 -69.5t-30 -91.5v-11q0 -14 2 -32.5t3 -22.5q20 -2 39.5 -3t39.5 -2q38 0 46 -30q8 -34 8 -57q0 -14 0.5 -34.5t1.5 -49.5t-2.5 -49t-10.5 -33.5t-15.5 -22.5t-16.5 -15q-15 -11 -25 -39.5
t-10 -58.5z" />
    <glyph glyph-name="two" unicode="2" 
d="M585 32q0 -34 -10.5 -53t-28.5 -28t-42 -11t-52 -2q-26 1 -48 2t-43 3t-43.5 5.5t-50.5 9.5q-257 -48 -233 73t3 164q-19 43 118 115q69 37 112.5 60t62.5 34q37 21 53 21v45q-5 0 -19 1t-30.5 2.5t-31 2.5t-19.5 1q-2 0 -10 -0.5t-22 -1.5q-30 -2 -34 2q-12 6 -32 19
t-39.5 29t-33.5 33.5t-14 31.5q0 16 16.5 30.5t39 25t45 16.5t34.5 6q64 0 110 -28q23 -14 44 -26.5t39 -25.5q19 -13 35.5 -26t31.5 -27q16 -14 38.5 -31t51.5 -37l17 -42q16 -17 12 -66q-5 -49 -332 -176q-67 -20 -49 -28q8 -4 16.5 -7t17.5 -6q18 -5 35 -7.5l17 -2.5
q13 0 44 -1t66 -1q33 0 64 1t42 1q35 -29 43 -48q9 -20 9 -52z" />
    <glyph glyph-name="three" unicode="3" horiz-adv-x="630" 
d="M602 495q0 17 -19.5 47t-46 59t-55 50t-46.5 21h-217q-16 0 -44.5 -17.5t-62.5 -51.5q-33 -33 -49 -78q-15 -45 -15 -60q23 -7 74 -4q25 2 47 3t42 1h8q6 -2 17.5 -4.5t23 -7.5t20 -13.5t8.5 -21.5t-20 -21.5t-50 -16t-65 -16.5t-65 -24.5t-50 -39.5t-20 -60v-10v-15
t1.5 -14.5t5.5 -11t11 -4.5l310 48q-27 -75 -86 -80q-29 -2 -57 -7.5t-55 -15.5q-52 -17 -91 -49t-39 -91q0 -13 0.5 -29t17.5 -19h11q7 0 18 -1t18 -1h11q109 0 202 38t161.5 109t107 174t38.5 234z" />
    <glyph glyph-name="four" unicode="4" horiz-adv-x="623" 
d="M33 300q0 -15 -0.5 -51t-0.5 -74q-2 -28 128 -23q66 2 113 3.5t77 1.5h17q3 -34 6.5 -69.5t15 -64t33.5 -47t61 -18.5h17q40 20 61 50.5t30 67t10 77t1 79.5v28q0 18 -19 22q-1 27 -9 60.5t-17 69t-16.5 69.5t-7.5 62q0 25 9.5 47t9.5 47q0 32 -22 36q-11 2 -22.5 3.5
t-24.5 1.5q-46 1 -72 -20t-40.5 -53.5t-20.5 -70t-13 -70t-18.5 -54.5t-35.5 -22h-11q-6 0 -14 0.5t-15.5 2t-12.5 5.5t-5 12v180q0 1 -4.5 3.5t-11.5 4.5t-14 4.5t-12 4.5h-16q-45 0 -74.5 -21t-47 -54t-24 -74.5t-6.5 -82.5q0 -3 -1 -14t0 -23.5t5 -23t14 -12.5z" />
    <glyph glyph-name="five" unicode="5" horiz-adv-x="653" 
d="M585 575q0 34 -10.5 53t-28.5 28t-42 10.5t-52 1.5q-26 0 -48 -0.5t-43 -2.5t-44 -6t-50 -11q-244 15 -227 -89q18 -102 -23 -187q0 -4 -1 -13t-1 -14q0 -25 10 -46t26.5 -37.5t37.5 -28t44 -16.5q14 -4 49 -10t75 -11.5t75.5 -9.5t50.5 -4v-45q-5 0 -19 -1t-30.5 -2.5
t-31 -2.5t-19.5 -1q-2 0 -6.5 2.5t-10 6t-10.5 6t-6 2.5q-2 0 -14.5 -7t-18.5 -10q-12 -7 -32 -20t-39.5 -28.5t-33.5 -32.5t-14 -32q0 -16 16.5 -30.5t39 -25t45 -17t34.5 -6.5q63 0 110 27q23 14 44 27t39 26q37 25 67 52q14 14 36.5 31t53.5 39l17 42q17 16 17.5 37
t0.5 44q0 19 -7.5 42.5t-20.5 44t-32 34.5t-41 14h-267q-2 0 -6 3t-9.5 7t-10 8t-7.5 7l-1 3.5t-1 5.5q0 11 15.5 19t34.5 13.5t35 8t17 2.5q13 0 44 1t66 1q33 0 64 -1t42 -1q17 14 28 25.5t15 21.5q9 19 9 53z" />
    <glyph glyph-name="six" unicode="6" horiz-adv-x="633" 
d="M8 208q0 -55 14.5 -110t54.5 -95q1 -1 10.5 -10t29.5 -26q40 -34 60 -34q30 0 66 10.5t74 28t75 41t69.5 50t58 55t40.5 55.5q1 2 4 9.5t5 19.5t1.5 28t-6.5 34q-11 36 -33 69q-21 35 -88 54q-55 -7 -90 -12.5t-56.5 -9.5t-32.5 -6t-19 -2q-6 0 -10.5 -2t-10 -4.5
t-13.5 -6t-21 -6.5l20 75q0 7 6.5 18t19.5 21q7 5 16.5 10t20.5 10q21 10 97 25q80 -42 125 -6q23 19 36 31t17 17q7 11 19 23q11 10 19.5 21.5t8.5 33.5v12v8q0 5 -1 10q-2 20 -17 23h-19q-13 0 -27 1t-28 1h-18q-92 0 -177.5 -36t-152.5 -98.5t-107 -147.5t-40 -182z
M262 162q6 33 24.5 50.5t41 25t46 8.5t39.5 1q0 -70 -24 -95t-71 -25q-8 0 -16.5 0.5t-16.5 3.5t-14 10t-9 21z" />
    <glyph glyph-name="seven" unicode="7" horiz-adv-x="593" 
d="M17 353l213 74h88q0 -32 -30 -56l-14 -10t-15 -9q-15 -7 -123 -160q-106 -149 -101 -182q5 -30 18 -52q13 -21 44 -21q30 0 53 20q11 10 36.5 42t65.5 89q42 57 65 87.5t30 36.5q32 29 70 69t70.5 86t54 96t21.5 99q0 20 -10.5 36t-25.5 28t-32.5 21t-31.5 15
q-5 0 -19 0.5t-31 0.5q-16 0 -30.5 2t-19.5 2q-52 0 -101 -8.5t-93 -28.5t-83.5 -52t-72.5 -80q-1 -5 -1.5 -15.5t-2.5 -26.5q-1 -16 1 -41.5t7 -61.5z" />
    <glyph glyph-name="eight" unicode="8" horiz-adv-x="633" 
d="M13 -43q15 -15 30 -17t35 -2q72 0 135.5 7.5t103.5 27.5q42 20 76 47q18 13 40.5 33t49.5 47q30 36 51.5 69t36 60.5t21 47.5t6.5 30v12v9t-1 12v33q-9 12 -20.5 19.5t-22.5 14.5t-18.5 15.5t-7.5 22.5q0 13 5.5 26.5t12 26t12 23.5t5.5 19q0 33 -16 55.5t-40.5 36
t-53.5 19.5t-56 6q-35 0 -99 -12q-63 -12 -136 -54q-73 -41 -116 -115q-43 -73 -49 -119q26 -54 39 -67q13 -14 21 -30q0 -29 -28 -66q-27 -37 -25 -88q1 -24 2.5 -47.5t3 -43.5t2.5 -35t1 -23zM218 187q0 5 0.5 12.5t1.5 15.5q3 18 17 18h116q2 0 8.5 -9t8.5 -14l1 -4t1 -8
q0 -18 -8.5 -29.5t-21 -17.5t-28.5 -8.5t-31 -2.5h-31q-34 0 -34 47zM225 437q0 35 14 45t39 10q8 0 21 -1t25.5 -5t21.5 -12.5t9 -23.5q0 -17 -11 -28t-25.5 -19t-29 -12.5t-21.5 -7.5h-10q-20 0 -26.5 17t-6.5 37z" />
    <glyph glyph-name="nine" unicode="9" horiz-adv-x="633" 
d="M595 397q0 55 -14 110t-54 95q-1 0 -41 35q-41 35 -59 35q-45 0 -102.5 -22.5t-112.5 -57t-101 -77.5t-68 -83q0 -3 -5 -18t-5 -39q0 -16 6 -34q5 -18 13 -35.5t19 -34.5q22 -33 89 -53q106 13 147 21q46 8 51 8q6 0 10.5 2t10 5t13.5 6.5t21 6.5l-20 -75q0 -7 -6.5 -18
t-20.5 -21q-8 -6 -15.5 -10.5t-20.5 -9.5t-35.5 -11t-61.5 -14q-80 42 -125 6t-53 -49q-4 -6 -9 -11.5t-10 -10.5q-11 -10 -19.5 -21.5t-8.5 -33.5v-13v-8t1 -9q2 -20 18 -23h18q13 0 27.5 -1t27.5 -1h18q92 0 178 36t152.5 98.5t106.5 147t40 182.5zM380 443
q-8 -33 -31 -50.5t-51.5 -25t-58 -8.5t-49.5 -1q0 70 30 95t90 25q9 0 19.5 -1t21.5 -3q24 -4 29 -31z" />
    <glyph glyph-name="colon" unicode=":" horiz-adv-x="270" 
d="M15 378q0 -33 21 -63t54 -30q63 0 104 41q41 44 41 106q0 19 -8 35.5t-21.5 28.5t-31.5 19t-37 7q-30 0 -52.5 -11t-38 -30t-23.5 -45.5t-8 -57.5zM15 32q0 -34 21 -64t54 -30q63 0 104 42q41 44 41 105q0 19 -8 35.5t-21.5 28.5t-31.5 19t-37 7q-30 0 -52.5 -11t-38 -30
t-23.5 -45.5t-8 -56.5z" />
    <glyph glyph-name="semicolon" unicode=";" horiz-adv-x="290" 
d="M42 378q0 -31 20 -63q21 -30 55 -30q63 0 104 41q41 44 41 106q0 19 -8 35.5t-22 28.5t-32 19t-37 7q-29 0 -51.5 -11t-38 -30t-23.5 -45.5t-8 -57.5zM198 137q-56 0 -94.5 -29.5t-61.5 -72t-32.5 -90t-7.5 -83.5v-23q1 -5 1 -9v-7v-10q42 15 86.5 42.5t81 62.5t60.5 75
t24 80q0 20 -13 42q-12 22 -44 22z" />
    <glyph glyph-name="FL003Ch" unicode="&#x3c;" horiz-adv-x="407" 
d="M145 472q-55 -79 -88.5 -140.5t-44.5 -106.5q8 -22 23 -56.5t37 -83.5q35 -55 74 -90t89 -35q21 0 43 16t40.5 41t31 54.5t15.5 55.5q3 18 -0.5 34.5t-10.5 31t-16.5 27.5t-19.5 25q-10 13 -21.5 25.5t-25.5 26.5q-26 29 -26 55q18 18 31.5 43t29.5 58q16 34 29 74t13 88
v7q-1 5 -7 12.5t-9 8.5l-3.5 1t-5.5 1q-26 0 -48.5 -22.5t-45.5 -46.5q-11 -12 -20 -22.5t-18.5 -22.5t-20.5 -26t-25 -33z" />
    <glyph glyph-name="equal" unicode="=" horiz-adv-x="480" 
d="M420 342q52 63 28 93t-61 43q-37 14 -80.5 15.5t-91.5 1.5q0 3 -1 4q-1 3 -154 -36q-45 -71 -45 -108v-22q33 -18 54 -24.5t51 -6.5q7 0 17 0.5t11 0.5q4 1 15 0.5t39.5 1.5t80 10t137.5 27zM420 88q52 64 28 94t-61 43t-80.5 15t-91.5 2q0 2 -1 3q-2 2 -154 -35
q-45 -71 -45 -108v-22q33 -18 54 -25t51 -7q7 0 17 1t11 1h14h17t23 1q26 1 80 10.5t138 26.5z" />
    <glyph glyph-name="FL003Eh" unicode="&#x3e;" horiz-adv-x="407" 
d="M237 133q55 79 88.5 140.5t44.5 106.5q-8 22 -23 56.5t-37 83.5q-35 55 -74 90t-89 35q-21 0 -43 -16.5t-40.5 -41t-31 -54t-15.5 -55.5q-6 -38 10 -66t36 -52q19 -26 47 -53q27 -27 27 -54q-19 -18 -32 -43t-29 -59q-16 -33 -29.5 -73t-13.5 -88v-7q2 -5 8 -12.5t9 -8.5
l3.5 -1t4.5 -1q27 0 49.5 22.5t40.5 46.5q9 12 17.5 23t19 23t23 26t29.5 32z" />
    <glyph glyph-name="question" unicode="?" horiz-adv-x="480" 
d="M248 58q0 -11 7.5 -30.5t20 -38t27.5 -33t30 -16.5q25 -3 47 11t38 35.5t25 46t9 42.5t-1 42t-8.5 45.5t-23 36t-44.5 14.5q-37 0 -61.5 -13t-39 -35t-20.5 -49.5t-6 -57.5zM148 263q0 -28 9.5 -41.5t45.5 -11.5q38 13 83 64q22 26 42 53.5t38 56.5q37 60 61.5 122
t24.5 117q0 54 -15 78t-70 24q-32 0 -70.5 -8.5t-78 -25t-76 -39.5t-65 -52t-45.5 -63t-17 -72q0 -23 9 -33t34 -10q27 0 49.5 10t44 22t45 23t53.5 13q-21 -15 -40 -42.5t-32.5 -60t-21.5 -65.5t-8 -59z" />
    <glyph glyph-name="FL0040h" unicode="@" horiz-adv-x="713" 
d="M15 227q0 225 113 335q116 110 305 110h19q15 0 31.5 -1t29.5 -1h20q70 -25 111 -86t41 -142q0 -70 -10 -118.5t-29 -87.5q-9 -20 -17.5 -41.5t-19.5 -44t-25 -45.5t-34 -45q-14 -15 -27 -30l-26 -30q-26 -30 -87 -60h-227q-62 28 -83 49q-23 22 -42 69q-10 25 -18 48.5
t-14 46.5q-5 25 -8 43t-3 31zM118 164q0 -19 8.5 -36t33.5 -17q2 0 8.5 0.5t8.5 0.5q17 14 30.5 24.5t22.5 21.5q8 11 15 24.5t14 39.5l116 5q8 0 10.5 -17t9.5 -40q4 -11 9 -21.5t10 -21.5q13 -19 38 -19q13 0 25.5 6t22.5 16t17 21.5t10 22.5v18q0 14 0.5 29t0.5 28v20
q0 32 -1.5 78t-13.5 89t-38.5 73t-75.5 30q-57 1 -91.5 -14.5t-55.5 -42.5t-34.5 -63.5t-28.5 -77.5q-7 -21 -19 -43t-23.5 -44.5t-20 -45t-8.5 -44.5zM349 437q-18 -11 -36 -38q-21 -27 -26 -65l92 7q0 11 -1.5 25t-3.5 31q-3 33 -25 40z" />
    <glyph glyph-name="A" unicode="A" 
d="M17 -43q15 -14 28 -16.5t32 -2.5q29 0 47 14t32.5 34.5t29 45t38 45t59.5 34.5t92 14q3 0 12.5 -1t12.5 -1q0 -8 5 -34.5t13.5 -56t21 -52.5t27.5 -23q31 0 58.5 20.5t48 50.5t32.5 64t12 60q0 31 -2 68t-6.5 76t-12.5 79t-20 78q-24 78 -70.5 137t-123.5 83
q-26 -3 -44.5 -12t-39.5 -27q-11 -9 -19 -15.5t-13 -11.5q-58 -49 -104.5 -122t-79.5 -155.5t-50.5 -167t-17.5 -155.5v-10q0 -6 1 -16t1 -16v-8zM267 402h35q66 0 79 -28q14 -30 14 -59h-128v87z" />
    <glyph glyph-name="B" unicode="B" 
d="M27 -43q15 -15 30 -17t35 -2q72 0 123.5 12t96.5 35q23 11 76.5 49.5t138.5 105.5q78 88 81 117q2 15 3 27.5t1 22.5v12q0 8 -1 21t-1 21v12q-8 12 -20 19.5t-22.5 14.5t-18 15.5t-7.5 22.5q0 13 5.5 26.5t12 26t12 23.5t5.5 19q0 33 -16 55.5t-41 36t-54 19.5t-56 6
q-35 0 -99 -12q-32 -6 -64 -14.5t-63 -19.5q-65 -22 -114 -52t-60 -69v-117v-116q0 -11 1 -34.5t2.5 -53.5t3.5 -63t4 -62.5t3.5 -53t2.5 -33.5zM212 190q0 6 0.5 15t2 16.5t5.5 13t10 5.5h117q1 0 8 -9t8 -16l1 -4t1 -8q0 -18 -8 -30.5t-21 -19.5t-28.5 -10t-30.5 -3h-32
q-33 0 -33 50zM218 423q0 32 12 40.5t33 8.5h18q17 0 31.5 -7.5t14.5 -29.5q0 -15 -9 -25t-21 -16t-24 -9.5t-18 -6.5h-8q-17 0 -23 14.5t-6 30.5z" />
    <glyph glyph-name="C" unicode="C" horiz-adv-x="637" 
d="M7 203v60l16 80q0 11 44 102q43 94 144 159q100 64 229 64q5 0 19.5 1.5t33 2.5t39 0t37.5 -6.5t28 -16.5t11 -29q0 -21 -12 -50t-30 -56t-38.5 -47t-37.5 -22q-27 0 -65 0.5t-77.5 -4t-76.5 -17.5t-64 -41q-4 -3 -10.5 -18t-6.5 -22q0 -20 9 -44t23.5 -45.5t32 -36
t35.5 -14.5h200q3 0 10 -8t7 -12q0 -7 -10.5 -27.5t-27 -47.5t-38 -57t-42.5 -54.5t-40 -40.5t-32 -16q-65 1 -116.5 11t-90 38.5t-64.5 79.5t-39 134z" />
    <glyph glyph-name="D" unicode="D" horiz-adv-x="623" 
d="M15 375q0 -19 -0.5 -46.5t-1.5 -64.5q-1 -72 6 -145q4 -36 12 -67.5t19 -59.5q22 -54 73 -54q69 0 124.5 26.5t103.5 68.5q49 42 93 95t80 110q36 56 49.5 97t17.5 77q4 37 9 66q0 1 0.5 6t0.5 12t0.5 13.5t0.5 10.5q0 49 -16 80.5t-42.5 49t-61 24t-70.5 6.5
q-30 0 -62 -3.5t-68 -12t-77.5 -21.5t-91.5 -32q-101 -38 -99 -94q1 -14 1 -30v-33v-79zM185 375v11q0 8 1 19t1 18v12l100 40h8q25 0 47.5 -8.5t40 -25t27.5 -41t10 -57.5q0 -24 -24 -50t-56 -48t-64 -37t-48 -16q-3 0 -12 1.5t-13 1.5q-7 29 -10.5 52.5t-5.5 40.5
q-1 17 -1.5 39t-0.5 48z" />
    <glyph glyph-name="E" unicode="E" horiz-adv-x="630" 
d="M17 117q0 -17 19 -47t45.5 -59t55 -50t46.5 -21h217q16 0 45 17q14 9 30 22t31 29.5t28 36t22 42.5q16 42 16 60q-26 6 -75 3q-50 -3 -89 -3h-8q-6 1 -17 3t-22.5 7.5t-20 14t-8.5 21.5t20 21.5t50 16t65 17t65 25t50 39t20 60.5v10q0 14 -2.5 29.5t-16.5 15.5l-310 -49
q27 75 86 80q29 2 57 8t54 14q50 17 92 50q40 31 40 92q0 13 -1 29t-18 19h-11q-7 0 -18 1t-18 1h-11q-110 0 -203 -38t-160.5 -109.5t-106 -174.5t-38.5 -233z" />
    <glyph glyph-name="F" unicode="F" horiz-adv-x="557" 
d="M23 292q-1 0 -3.5 0.5t-4.5 0.5q-4 0 -5 -1q-3 0 0 81q3 82 30 132q13 23 22 38t16 22q45 40 99.5 62t113 32t119 12t117.5 2q0 -46 -26 -89.5t-65 -67.5t-86 -40t-93 -28l-17 -40h6q6 0 12 -0.5t11 -0.5h8q10 0 12 -1q7 -2 51 6q23 4 38 6t22 2q17 0 35 4t35 -3
q18 -6 30 -21t12 -40q0 -3 -1 -14t-1 -14q-18 -18 -55.5 -40t-78 -44t-74.5 -41.5t-45 -31.5q-13 -17 -21.5 -41t-16 -50.5t-16 -52.5t-22 -46.5t-34 -33.5t-52.5 -13q-20 0 -30 13.5t-15 32t-6 39t-2 35.5q-2 14 -5 47t-6 70t-5.5 70t-2.5 47z" />
    <glyph glyph-name="G" unicode="G" horiz-adv-x="653" 
d="M433 5q1 -11 1.5 -23t0.5 -25q0 -15 2.5 -30.5t9 -27.5t17.5 -19.5t28 -7.5q3 0 12 2.5t13 2.5q30 23 49 44t30.5 45t16 52t4.5 65q0 48 -1 92t-3.5 87.5t-5.5 89t-7 96.5h-167h-50h-49q-16 0 -30 -35t-21 -86q-6 -50 127 -44q47 -81 -127 -78l-53 30q-13 67 -23 117
t-4 71q6 23 20 55.5t40 56.5l87 10q90 -23 105 -6q7 8 14 17.5t14 19.5q14 22 17 40q2 16 -5 27t-19 17.5t-27 9t-29 2.5h-27q-86 0 -156 -28t-119.5 -81t-76 -128.5t-26.5 -171.5q0 -54 12.5 -110.5t38.5 -102t67.5 -74.5t99.5 -29q25 0 48.5 9.5t46 20.5t44.5 20.5t45 9.5
q3 0 9 -1t7 -1z" />
    <glyph glyph-name="H" unicode="H" horiz-adv-x="547" 
d="M15 380q0 -24 1 -66t4 -91t8 -99.5t12.5 -92t17.5 -67.5t24 -26q22 0 39 10t29 26t21 36.5t16 41.5q5 15 10 33t10 39q10 43 33 41q11 -1 25.5 -1.5t31.5 -0.5q5 0 12.5 -0.5l7.5 -0.5l33 -220l7.5 -2t12.5 -2q50 0 82 39q17 20 33 41t32 44v20q0 75 -6.5 143.5
t-15.5 136t-17 136t-11 142.5q-4 18 -17 20t-25 2q-33 0 -52.5 -18.5t-32 -46t-20.5 -60t-17.5 -60t-23 -46t-37.5 -18.5q-39 0 -48 27t-15 57q-6 29 -21 73q-15 43 -61 50q-34 -7 -48 -44q-7 -18 -12.5 -34.5t-10.5 -32.5q-8 -31 -9.5 -66t-1.5 -63z" />
    <glyph glyph-name="I" unicode="I" horiz-adv-x="447" 
d="M65 -13q0 -14 1.5 -28t16.5 -17q3 0 11 -0.5t18 -1.5t18.5 -1.5t11.5 -0.5q25 0 55.5 3.5t61 12t59 23t50.5 37t35.5 53.5t13.5 73v10q-9 17 -30 25t-43 10.5t-40 2t-21 -0.5l-16 38q0 2 -1 14.5t-1 27.5t-1 29t-1 24q0 57 8.5 96t19 69t19 55.5t8.5 54.5q0 20 -9 43
q-9 24 -32 24q-41 0 -87 -16t-86 -44.5t-66 -69t-26 -89.5v-12q0 -14 2 -32t3 -22q35 -4 55 -16t30.5 -32.5t13 -49.5t2.5 -66q0 -27 -8.5 -55t-18 -56.5t-18 -57t-8.5 -57.5z" />
    <glyph glyph-name="J" unicode="J" horiz-adv-x="667" 
d="M15 27q0 -13 5 -28t14 -28t21.5 -22t27.5 -9h217q1 0 19 18t42 43t49 51.5t40 44.5q35 40 54 85t28 93t12 99t6 103q12 11 29.5 26t33.5 33t27.5 38.5t11.5 42.5q0 11 -9 20.5t-21 16t-25 10.5t-22 4q-25 0 -60 -8t-74 -23.5t-77.5 -37t-69.5 -48.5t-50 -59t-19 -67h108
v-260q0 -9 -7 -13t-15.5 -5t-16.5 -0.5t-11 0.5q-18 0 -32 6t-27.5 13t-27 13t-31.5 6q-23 0 -49 -15t-48.5 -38.5t-37.5 -51.5t-15 -53z" />
    <glyph glyph-name="K" unicode="K" horiz-adv-x="610" 
d="M50 23q0 -9 4 -23t11.5 -28t18 -24t24.5 -10q35 0 52 29q8 15 16 31.5t15 33.5q13 37 33 64q20 29 59 29q37 0 58.5 -21.5t38.5 -47.5q18 -26 37.5 -48t52.5 -55q39 -12 60 3.5t33 43.5q14 27 18 58.5t4 54.5q0 60 -26.5 102.5t-58.5 71t-58.5 44.5t-26.5 24
q0 33 14 60.5t31 55t31 57t14 65.5q-33 0 -56 -16.5t-40.5 -41t-33 -53t-33.5 -53t-41.5 -41t-58.5 -16.5q-4 0 -12 12.5t-17.5 32t-20 42.5t-19.5 43.5t-15 35.5t-8 19q-2 0 -7.5 0.5t-9.5 0.5q-18 0 -70 9q-33 -15 -39 -35q-3 -10 -4.5 -16t-2.5 -9v-15v-19
q1 -17 3.5 -52.5t6 -80t7 -93.5t6.5 -93.5t6 -79.5t4 -51z" />
    <glyph glyph-name="L" unicode="L" horiz-adv-x="480" 
d="M17 203v50q0 17 2.5 55.5t4.5 81.5q3 43 5.5 82.5t3.5 54.5q4 21 15 45.5t26.5 45.5t35 35t40.5 14q18 0 29 -9.5t21 -32.5q0 -12 1 -37t2.5 -55.5t3.5 -64.5t4 -65t3.5 -55t2.5 -36q1 -9 3 -57q3 -48 30 -48l183 8q4 0 10.5 -15t6.5 -25q0 -39 -16 -71.5t-42 -59
t-59.5 -46.5t-67.5 -33.5t-66.5 -20t-56.5 -6.5q-3 0 -11.5 0.5t-18.5 1.5t-18 1.5t-11 0.5q-25 16 -38.5 48t-19.5 69.5t-7 76t-1 67.5z" />
    <glyph glyph-name="M" unicode="M" horiz-adv-x="1020" 
d="M13 448q0 -5 2 -15t2 -11q1 -4 8 -11.5t16 -16t16.5 -16t9.5 -10.5q10 -23 13 -43t3 -38q0 -19 -0.5 -38t0.5 -41q1 -28 4 -70.5t6 -82.5t5 -68.5l2 -28.5l33 -18q4 5 13.5 12.5t20 16t20 15.5t13.5 11q21 13 37.5 38.5t29.5 58t23 68.5t17 70q8 34 15.5 66t15 56
t16 38.5t19.5 14.5h11q10 0 20 -3.5t13 -14.5q13 -91 29.5 -187.5t20.5 -187.5h66l125 125v260q16 0 34 1.5t32.5 -2.5t24 -18.5t9.5 -45.5l-1 -372h93l117 158q0 1 2 11.5t5 24.5t5.5 29t3.5 25v15v20q0 15 -2 50t-5 74.5t-5.5 75t-3.5 50.5q-17 7 -26 23.5t-16 36.5
t-14.5 41.5t-20.5 39t-33.5 28.5t-54.5 10q-21 0 -39 -5t-35.5 -11.5t-36.5 -12.5t-41 -8h-33h-59h-58h-33q-17 -2 -43 -14t-53.5 -25t-51.5 -23.5t-36 -9.5q-1 0 -8.5 8t-16.5 18t-16.5 18.5t-8.5 9.5q-1 0 -12 0.5t-18 0.5q-27 0 -60 -15.5t-62 -39.5t-48.5 -54.5
t-19.5 -60.5z" />
    <glyph glyph-name="N" unicode="N" horiz-adv-x="593" 
d="M15 380q0 -24 1 -66t4 -91t8 -99.5t13 -92t19.5 -67.5t26.5 -26q35 0 55.5 17.5t33.5 41.5q14 29 10 90q-2 33 -4 59.5t-4 46.5q-3 42 26 7q14 -17 30.5 -33.5t35.5 -33.5q16 -17 26.5 -31.5t17.5 -25.5t19.5 -30.5t31.5 -45.5l15 -58l8.5 -2t13.5 -2q53 0 89 39
q18 20 36 41t35 44v20q0 75 -7 143.5t-16.5 136t-18.5 136t-13 142.5q-4 18 -18 20t-27 2q-24 0 -44 -10.5t-34 -28t-21.5 -41.5t-6.5 -51q1 -19 3 -42t4 -51q5 -57 -13 -95q-18 -41 -60 54q-28 57 -42 76q-13 19 -29 53q-17 37 -40.5 62t-76.5 32q-34 -7 -51 -44
q-16 -33 -25 -67q-8 -31 -9.5 -66t-1.5 -63z" />
    <glyph glyph-name="O" unicode="O" horiz-adv-x="713" 
d="M15 227q0 -13 3 -31t8 -43q6 -23 14 -46.5t18 -48.5q19 -47 42 -69q20 -20 83 -49h227q61 30 87 60l26 30t27 30q40 45 59 91t37 85q19 39 29 87.5t10 118.5q0 81 -41 142t-111 86h-20q-13 0 -29.5 1t-31.5 1h-19q-189 0 -305 -110q-113 -110 -113 -335zM210 367v10v9
t1 10q1 6 1 10v9q0 9 1 10q19 22 52 22h53q37 0 68 -12.5t53 -35t34 -54t12 -70.5q0 -21 -7 -40.5t-19 -34.5t-29 -23.5t-37 -8.5q-36 0 -69 18t-58.5 46.5t-40.5 64t-15 70.5z" />
    <glyph glyph-name="P" unicode="P" horiz-adv-x="613" 
d="M15 403q0 -21 3.5 -64t10 -95t15.5 -107t19 -99.5t21.5 -73.5t23.5 -29q4 0 13 2.5t12 4.5q7 5 22 20t30.5 32t29 32.5t18.5 23.5q1 1 3 12t4.5 24t5 24.5t4.5 12.5q0 2 3 26q4 24 20 27q18 4 42 8t35 11l33 18q28 27 63 66t66 84.5t52 93.5t21 93q0 31 -17 53
t-42.5 36.5t-54.5 21.5t-53 7q-18 0 -41 0.5t-49 0.5q-25 0 -52 -2t-54 -6q-26 -4 -50 -12.5t-45 -18.5t-39 -21.5t-31 -21.5q-13 -44 -24 -58q-10 -13 -16 -61v-12q0 -8 -1 -20t-1 -20v-13zM232 400q0 43 19 60.5t52 17.5q5 0 23.5 -1t37.5 -7t31 -18.5t5 -34.5
q-5 -15 -21 -32.5t-36 -32.5t-40.5 -25t-35.5 -10q-9 0 -15.5 9.5t-11 23t-6.5 27.5t-2 23z" />
    <glyph glyph-name="Q" unicode="Q" horiz-adv-x="663" 
d="M17 83q10 -50 38.5 -77.5t66.5 -41t80.5 -16.5t80.5 -3q21 0 100 35l34 32q100 -105 133 -75t-27 176q22 51 36 83t20 46q7 15 13 30t12 29q13 29 22 60.5t9 71.5q0 115 -52.5 175t-170.5 60q-33 0 -65.5 -6.5t-62 -18t-55.5 -26t-46 -30.5q-48 -52 -79 -98t-48 -86
q-16 -39 -25.5 -69.5t-11.5 -52.5q-2 -20 -3 -44t-1 -52v-20q0 -13 1 -30.5t1 -31.5v-20zM203 345q0 35 3.5 55t14.5 38q10 19 36 19q7 1 12 1h9h14q85 0 116 -64q32 -65 29 -149q-95 68 -111 55t4 -130q-13 -10 -27 -10q-12 0 -40 26q-26 26 -43 68.5t-17 90.5z" />
    <glyph glyph-name="R" unicode="R" horiz-adv-x="620" 
d="M15 257v-42q0 -27 1 -52.5t1 -47.5v-22q0 -6 2.5 -26.5t8.5 -44t15.5 -43t23.5 -24.5q37 -16 59 10q24 29 43 62q10 18 19 35l18 34q19 34 44 34q19 0 34 -8t26.5 -20.5t21 -29t18.5 -32.5q18 -32 36 -60q19 -27 49 -27q3 0 9 1l6 1l133 138v7q0 60 -19.5 103.5t-44 75
t-45.5 53t-24 38.5q-3 25 12.5 51t35.5 53.5t37 56t17 57.5q0 24 -6 39.5t-29 35.5q-3 0 -12.5 0.5t-21.5 1.5t-25 1.5t-23 0.5h-18q-31 0 -71.5 -6t-83.5 -19t-85.5 -32.5t-76.5 -46.5t-56.5 -62.5t-26.5 -78.5v-34q0 -21 -1 -48t-1 -52v-31zM218 422q0 24 14.5 34.5
t35 14.5t42.5 3t37 -1v-43l-89 -60q-15 -12 -21.5 -5t-10.5 17q-4 11 -6 23t-2 17z" />
    <glyph glyph-name="S" unicode="S" 
d="M48 32q0 -34 10 -53t28 -28t42.5 -11t53.5 -2q25 1 46.5 2t42.5 3t44 5.5t52 9.5q70 54 139 124t111 153q0 3 0.5 12.5t0.5 14.5q0 24 -10 45t-26.5 37.5t-38 28.5t-43.5 17q-10 2 -29.5 5.5t-44 7.5t-51.5 7.5t-51.5 7t-44 5.5t-29.5 2v45q4 0 18.5 1t31 2.5t31 2.5
t19.5 1q1 0 6 -2.5t10.5 -6t10 -6t6.5 -2.5t14.5 6.5t19.5 10.5q12 6 31.5 19t39 29t33.5 33t14 32q0 16 -16.5 30.5t-38.5 25t-45 16.5t-35 6q-64 0 -110 -28q-23 -14 -44 -26.5t-40 -25.5q-19 -14 -34 -26.5t-32 -26.5t-38 -30.5t-52 -37.5l-17 -42q-16 -17 -17 -37.5
t-1 -44.5q0 -18 7.5 -41.5t21 -44t32 -35t41.5 -14.5h266q2 0 6.5 -3t9.5 -7l10 -8t8 -7l0.5 -3t0.5 -5q0 -11 -15.5 -19.5t-34.5 -13.5t-34.5 -7.5t-16.5 -2.5q-14 0 -44.5 -1t-65.5 -1q-34 0 -64.5 1t-42.5 1q-35 -29 -44 -48q-8 -22 -8 -52z" />
    <glyph glyph-name="T" unicode="T" horiz-adv-x="690" 
d="M183 410q-15 0 -28 -3.5t-26 -7.5t-26 -7.5t-28 -3.5q-8 0 -17 0.5t-20 1.5q-21 1 -21 28q0 63 31.5 106t81 71t111 43.5t122 22.5t113 8t84.5 1q14 0 27 -3.5t25.5 -7.5t26 -7.5t28.5 -3.5v-15l-84 -126l-53 -20l-80 -40v-357q-12 -11 -27.5 -36t-33 -51t-36 -45.5
t-36.5 -19.5q-19 0 -30 20.5t-16 53.5t-6.5 75.5t-1.5 87.5t-2.5 87.5t-11 75.5t-24.5 52.5t-42 19.5z" />
    <glyph glyph-name="U" unicode="U" horiz-adv-x="730" 
d="M15 345q0 -36 1 -80.5t6 -89.5t15.5 -88t28.5 -76t45.5 -53t66.5 -20q32 0 60 5t54.5 13.5t52.5 21t55 27.5q2 0 7.5 1t9.5 1q17 0 30.5 -7t27 -15.5t28.5 -15.5t35 -7q36 0 57.5 4.5t37.5 18t30.5 38t36.5 65.5v9q0 59 -8 90t-20.5 45.5t-27 17.5t-27.5 5.5t-22.5 9.5
t-11.5 30l-33 355q0 12 -17 17.5t-30 5.5h-13q-30 0 -56 -21.5t-45 -54.5t-30 -71t-11 -71q0 -46 10 -75t10 -72q0 -32 -3 -66q-1 -35 -42 -55q-41 -6 -63 11t-33 46t-15 65.5t-8 69.5q-3 34 -5 68.5t-5.5 65t-9.5 55.5t-17 40q-3 0 -8.5 1t-12.5 1.5t-12.5 1.5t-8.5 1
q-41 0 -63 -28t-32.5 -69t-12.5 -87.5t-2 -83.5z" />
    <glyph glyph-name="V" unicode="V" horiz-adv-x="723" 
d="M17 430q0 26 12.5 53.5t32.5 49.5t44 36t47 14q40 0 72 -22.5t58 -56.5t47.5 -74t42 -74t41 -56.5t44.5 -22.5q18 0 27.5 10.5t13 25t4 30.5t0.5 27q0 28 -8.5 45t-19 31.5t-19 31t-8.5 45.5q0 67 33.5 109.5t103.5 42.5q40 0 67 -12q28 -11 48 -63v-20q0 -15 1 -30
t1 -28v-20q0 -40 -15 -96.5t-40.5 -119t-60.5 -124.5t-74 -111.5t-80.5 -80.5t-81.5 -32q-3 0 -9 2t-8 2q-5 43 -30.5 83.5t-60.5 80t-74.5 78.5t-73 79t-55.5 81.5t-22 85.5z" />
    <glyph glyph-name="W" unicode="W" horiz-adv-x="1180" 
d="M15 420q0 -18 13.5 -61t35 -96.5t48.5 -111t53.5 -105t50.5 -78t39 -30.5q11 0 18.5 0.5t14 2.5t13 6.5t16.5 12.5q9 6 32.5 25t50 40.5t50 40.5t33.5 26q4 0 13 0.5t12 0.5q20 0 27.5 -5.5t11 -15.5t6.5 -24t14 -31q4 -9 14.5 -22t22 -25t20.5 -20l9 -8h184l14 15
t33 35.5t38.5 43t30.5 37.5l48 60t57 72t54.5 72t40.5 61q17 25 18 58.5t1 63.5q0 43 -9.5 82.5t-30 69.5t-52.5 48t-77 18q-25 0 -52.5 -5t-50.5 -18q-22 -12 -31 -25t-9 -40q0 -33 6 -43q7 -11 21 -24l66 -71q4 -4 9.5 -10.5t7.5 -9.5v-12q0 -8 1 -21t1 -21v-11
q0 -164 -154 -164q-30 0 -49.5 19.5t-34 52t-25 73.5t-22 83.5t-26 83.5t-36 73.5t-52.5 52t-76 19.5q-60 0 -95 -50q-34 -49 -34 -115q0 -7 1 -16l1 -9q2 -2 12 -7.5t21.5 -12t21.5 -12t12 -6.5q13 -12 18.5 -31t9 -40t8 -42t14.5 -37q-12 -14 -21 -25t-18 -19t-19.5 -12
t-25.5 -4q-20 1 -35.5 18.5t-28 41.5t-21.5 49.5t-15 43.5q-8 24 -22 59.5t-27.5 69t-23.5 57t-10 22.5h-117q-16 0 -28.5 -21t-21.5 -48.5t-13.5 -54.5t-4.5 -39z" />
    <glyph glyph-name="X" unicode="X" horiz-adv-x="597" 
d="M237 133q26 -25 48.5 -51.5t44.5 -57.5q11 -16 22.5 -30.5t22.5 -28.5q22 -27 57 -27q28 0 53 18t43.5 46t29 62.5t10.5 67.5q0 40 -22.5 71.5t-49.5 61.5q-13 15 -26 28.5t-23.5 27.5t-18.5 30t-11 36q20 42 36.5 68.5t34.5 51.5q19 26 33 53t14 62q0 28 -11 35.5
t-31 7.5q-31 0 -53 -13.5t-41 -32.5t-38 -40.5t-51 -58.5q-35 55 -74 90t-89 35q-21 0 -43 -16.5t-40.5 -41t-31 -54t-15.5 -55.5q-6 -38 10 -66t36 -52q19 -26 47 -53q27 -27 27 -54q-19 -18 -32 -43t-29 -59q-16 -33 -29.5 -73t-13.5 -88v-7q2 -5 8 -12.5t9 -8.5l3.5 -1
t4.5 -1q27 0 49.5 22.5t42.5 50.5q20 29 39 52t48 48z" />
    <glyph glyph-name="Y" unicode="Y" horiz-adv-x="613" 
d="M132 33q0 -30 16 -48t40 -28t52 -13.5t52 -3.5q22 0 52 17t62 43.5t64 59t57 64t40.5 58t15.5 41.5v25q0 20 1 42t1 40v27q0 12 1 40t0 63.5t-5 73.5t-13 69.5t-25 51.5t-41 20q-42 0 -72 -24.5t-50 -60.5t-31.5 -77t-15.5 -73q-1 0 -7 -1t-9 -1q-39 0 -56 29
q-8 15 -15 31.5t-14 33.5q-13 36 -30 64q-17 29 -59 29q-33 0 -57 -19.5t-40 -48t-23.5 -62.5t-7.5 -62q0 -47 12.5 -85.5t36.5 -66.5t60 -43.5t84 -15.5q24 0 45.5 2.5t42 5t41.5 5t45 2.5q0 -4 0.5 -8t0.5 -6q-1 -3 -2.5 -9.5t-4.5 -16.5q-6 -20 -9 -24q-35 4 -76.5 -0.5
t-76.5 -20t-58.5 -45t-23.5 -74.5z" />
    <glyph glyph-name="Z" unicode="Z" horiz-adv-x="640" 
d="M587 8q0 -25 -10.5 -39t-27 -21t-37.5 -8.5t-42 -1.5q-23 0 -50.5 -0.5t-54.5 2.5q-14 1 -45.5 3.5t-82.5 6.5q-154 -13 -187 -3t-27 90l14 110q100 112 163.5 184t89.5 105q53 67 -18 62q-70 -5 -99 -25q-33 20 -47 35t-27 25q-12 10 -21.5 22.5t-9.5 34.5q0 48 20 65.5
t72 17.5q35 0 78.5 2t91.5 -2q23 -2 44 -4t39 -6q37 -6 177 -6q33 -27 23 -94q-10 -66 -43 -86l-240 -287q-60 -53 -37 -62q27 -8 59 -5q1 0 11 4.5t22 10.5t22 11.5t11 7.5h9q31 0 60 -12t51.5 -32t35.5 -47.5t13 -57.5z" />
    <glyph glyph-name="bracketleft" unicode="[" horiz-adv-x="663" 
d="M243 218q17 40 33 70t32 52.5t32 39.5t32 31q31 28 71 45q28 12 55 20.5t48.5 15.5t35.5 12.5t16 10.5q5 15 10.5 34.5t12.5 42.5q14 51 14 90q-36 0 -81.5 -16.5t-96 -45t-103 -67t-102 -83t-93 -92.5t-76 -95t-51.5 -91.5t-19 -81.5q0 -54 25.5 -88.5t64.5 -54
t84.5 -27t85.5 -7.5q26 0 48.5 0.5t43.5 4t41.5 11t41.5 21.5q2 6 7.5 25t11 41.5t10.5 43.5t6 32l-66 -7q-32 -7 -54 -7h-40q-18 0 -50 17q-30 16 -30 103z" />
    <glyph glyph-name="backslash" unicode="\" horiz-adv-x="517" 
d="M27 540q0 -37 15.5 -78t37 -81.5t44.5 -78t38 -67.5q4 -10 13 -29t19.5 -39t21 -38.5t19.5 -28.5q9 -9 31 -61q11 -25 21 -43t18 -31q16 -25 23 -25q36 0 74 32q19 17 34.5 29.5t26.5 22.5q25 20 17 86q-68 195 -90 222q-11 14 -21.5 31t-21.5 38q-10 20 -20.5 42.5
t-21.5 46.5q-16 34 -32.5 67.5t-34.5 59.5t-37 42t-39 16q-26 0 -50 -10.5t-43 -29t-30.5 -43t-11.5 -52.5z" />
    <glyph glyph-name="bracketright" unicode="]" horiz-adv-x="663" 
d="M405 397q-17 -41 -33.5 -70.5t-32.5 -52t-32 -39.5t-32 -32q-32 -29 -70 -45q-27 -12 -54 -21t-48.5 -15.5t-36 -12t-16.5 -9.5q-11 -30 -24 -78q-13 -43 -13 -89q48 0 112.5 28.5t133.5 75.5t136.5 107.5t120.5 124t86 125.5t33 111q0 54 -25.5 88.5t-64 54t-84.5 27
t-86 7.5q-26 0 -48.5 -0.5t-43.5 -4t-41.5 -11t-41.5 -21.5q-2 -6 -7 -25t-11 -41.5t-11 -44t-6 -31.5l67 7q31 7 53 7h40q18 0 50 -17q30 -17 30 -103z" />
    <glyph glyph-name="FL005Eh" unicode="^" horiz-adv-x="413" 
d="M162 442q-20 -11 30 3q15 -2 33 -7.5t36 -14.5t34 -20.5t28 -26.5q13 -14 22 -27t16 -24q13 -23 15 -43.5t-14 -56.5q-20 5 -41.5 12t-44.5 17q-22 10 -39 18.5t-30 16.5q-22 16 -38 0q-7 -7 -24 -16.5t-38 -18.5t-44 -17t-41 -12q-18 36 -16 56.5t16 43.5q8 11 17.5 24
t20.5 27q22 28 102 66z" />
    <glyph glyph-name="underscore" unicode="_" horiz-adv-x="480" 
d="M458 -258q64 63 36 93q-29 30 -76 44q-46 13 -100.5 14.5t-114.5 1.5q0 4 -1 5q0 2 -194 -37q-53 -71 -53 -108v-22q42 -17 67 -24q22 -7 63 -7q7 0 20 0.5t15 0.5q1 0 18 0.5t49 1.5q33 1 100.5 10.5t170.5 26.5z" />
    <glyph glyph-name="FL0060h" unicode="`" horiz-adv-x="294" 
d="M61 869q-32 0 -44.5 -13t-12.5 -27q0 -26 24 -53.5t60.5 -51.5t81 -42.5t86.5 -28.5q0 6 0.5 18t0.5 17q0 23 -8 55.5t-32 59.5q-23 28 -61 47t-95 19z" />
    <glyph glyph-name="a" unicode="a" horiz-adv-x="637" 
d="M15 17q0 -14 3 -27t9.5 -24t18 -17.5t29.5 -6.5q3 0 12.5 0.5t12.5 0.5q25 19 43.5 34.5t31.5 31.5t23 35t19 56l166 7q5 0 8.5 -7t6 -18t6 -26t8.5 -31q10 -32 27 -60q18 -28 54 -28q19 0 36.5 9t31.5 23t24 30.5t15 32.5v25q0 20 1 41.5t1 39.5v29q0 30 -0.5 70.5
t-5.5 83.5t-15.5 84.5t-31.5 74.5t-53 53t-79 20q-82 2 -131 -20.5t-79 -61.5t-49 -91t-41 -110q-10 -30 -27.5 -61.5t-34 -63t-28.5 -64t-12 -64.5zM345 407q32 -10 37 -57q6 -47 6 -80l-131 -10q8 55 37 93q28 39 51 54z" />
    <glyph glyph-name="b" unicode="b" horiz-adv-x="640" 
d="M27 -43q15 -14 30 -16.5t35 -2.5q72 0 123.5 11t96.5 30q46 19 86 43q42 25 129 90q78 75 81 100q2 11 3 22t1 21q0 3 -0.5 11t-0.5 16q0 9 -0.5 17t-0.5 11q-8 10 -20 16.5t-22.5 12.5t-18 13.5t-7.5 19.5q0 11 5.5 22.5t12 22t12 19.5t5.5 16q0 28 -16 47.5t-41 31
t-54 16.5t-56 5q-16 0 -42 -2.5t-57 -7.5t-64 -12.5t-63 -16.5q-65 -18 -114 -44t-60 -59v-100v-98q0 -14 2 -50.5t4.5 -78t5.5 -77.5t5 -49zM212 157q0 6 0.5 15t2 16.5t5.5 13t10 5.5h117q1 0 8 -9.5t8 -15.5l1 -4.5t1 -7.5q0 -20 -8 -32t-21 -19t-28.5 -9.5t-30.5 -2.5
h-32q-33 0 -33 50zM218 363q0 32 12 40.5t33 8.5h18q17 0 31.5 -7.5t14.5 -29.5q0 -15 -9 -25t-21 -16t-24 -9.5t-18 -6.5h-8q-17 0 -23 14.5t-6 30.5z" />
    <glyph glyph-name="c" unicode="c" horiz-adv-x="663" 
d="M33 157q12 -69 38 -111.5t65 -66t91 -31.5t116 -8q13 0 32.5 13t40.5 33.5t42 44.5t37.5 46.5t27 39.5t10.5 23q0 3 -6.5 10t-9.5 7h-200q-18 0 -36 12t-32.5 30t-23 38t-8.5 36q0 5 6.5 17.5t9.5 16.5q21 15 47 25t55 15.5t59 7.5t57 2h66q17 1 37.5 17.5t38.5 39t30 47
t12 41.5q0 23 -23.5 32t-53.5 11t-57 -0.5t-34 -2.5q-127 0 -229 -54q-100 -53 -141 -115q-20 -31 -31 -49.5t-13 -25.5t-7 -29.5t-13 -61.5v-50z" />
    <glyph glyph-name="d" unicode="d" horiz-adv-x="657" 
d="M15 320q0 -48 3.5 -96t8 -96t8 -96.5t3.5 -98.5q73 0 144 27q35 14 69 27.5t66 27.5q9 4 28.5 18.5t44.5 34.5t51.5 42t48.5 40.5t36.5 30.5t15.5 12q48 51 58 79q4 14 9.5 29t10 28.5t8 23.5t5.5 15v9q0 49 -19.5 81.5t-52.5 51.5t-76.5 27t-91.5 8q-66 0 -134 -8.5
t-155 -36.5q-87 -27 -88 -70q-1 -11 -1 -23v-26v-61zM350 398q17 -1 32 -12t26.5 -26.5t18 -31.5t6.5 -28q0 -29 -24 -53t-58 -41t-71 -26.5t-63 -9.5l-20 203q20 0 39 3.5t31 6.5q8 1 21.5 4t26.5 5.5t23 4.5t12 1z" />
    <glyph glyph-name="e" unicode="e" horiz-adv-x="630" 
d="M17 103q6 -46 22 -62q8 -8 18.5 -18t23.5 -22q27 -24 55.5 -42.5t46.5 -18.5h217q17 0 45 15t61 43q34 28 50 66q16 35 16 51q-31 5 -75 2q-25 -1 -47 -1.5t-42 -0.5h-8q-6 2 -17 3.5t-22.5 5.5t-20 10.5t-8.5 18.5q0 11 20 18t50 13.5t65 14.5t65 21t50 32.5t20 50.5v9
q0 9 -3 23.5t-16 14.5l-310 -42q27 64 86 67q58 3 111 18t92 42q40 27 40 77q0 11 -1 23.5t-18 16.5h-29h-29q-112 0 -203.5 -32t-160.5 -90t-106.5 -144t-37.5 -183z" />
    <glyph glyph-name="f" unicode="f" horiz-adv-x="563" 
d="M20 173q6 -34 10 -57t6 -38.5t3.5 -24.5l2.5 -15q1 -11 2 -28t6 -33t15 -27.5t30 -11.5q47 0 71 23t38 55t24 65.5t29 53.5q11 10 45.5 26t74.5 34t77.5 36.5t55.5 33.5q0 2 1 11t1 12q0 20 -12 32.5t-30 18.5q-17 6 -35 2.5t-35 -3.5q-22 0 -60 -7q-46 -6 -51 -5
q-3 1 -12 1h-8q-5 0 -11 0.5t-12 0.5h-6l17 34q46 10 93 22.5t86 32.5t65 55.5t26 74.5q-57 0 -117.5 -1.5t-119 -9.5t-112.5 -26.5t-100 -51.5q-11 -8 -38 -50q-27 -41 -30 -75q-2 -17 -2.5 -33t0.5 -32q1 -15 2 -27t2 -22.5t3 -21.5t5 -24z" />
    <glyph glyph-name="g" unicode="g" 
d="M433 -13q1 -10 1.5 -20.5t0.5 -21.5q0 -12 2.5 -24.5t9 -23.5t17.5 -18t28 -7q3 0 12 3t13 3q30 20 49 37.5t30.5 37t16 43.5t4.5 56q0 41 -1 77.5t-3.5 72.5t-5.5 74.5t-7 83.5h-167h-50h-49q-17 0 -30 -30q-14 -30 -21 -73q-6 -41 127 -37q47 -68 -127 -65l-53 23
q-13 57 -23 99.5t-4 59.5q7 18 20.5 46.5t39.5 48.5l87 8q90 -20 105 -5q14 14 28 31t17 34q2 13 -5 22t-19 15t-27 8.5t-29 2.5h-27q-86 0 -156 -24t-119.5 -69t-76 -109t-26.5 -143q0 -45 12.5 -92.5t38.5 -86t67.5 -63t99.5 -24.5q25 0 48.5 8t46 17t44.5 17t45 8h16z
" />
    <glyph glyph-name="h" unicode="h" horiz-adv-x="573" 
d="M120 488q-14 0 -32 -3t-34 -10t-26.5 -18.5t-10.5 -29.5v-455q0 -2 6.5 -7t9.5 -8q7 -4 18.5 -10.5t15.5 -6.5q47 0 71.5 14t37.5 34.5t21 44t23 43.5t42.5 33.5t79.5 13.5h8q4 -44 15 -84q10 -41 52 -67l3 -1t5 -1t5 1l3 1q81 37 100 76q4 -2 9 75q6 77 3 118
q-1 20 -2 42t-3 45q-2 48 -4.5 88.5t-2.5 56.5q0 10 -3 26t-20 27q-8 5 -20.5 11t-29.5 11q-47 -5 -60 -21q-12 -12 -22 -37q-4 -11 -6.5 -25t-4.5 -31q-3 -25 -8.5 -48t-18 -40.5t-36 -28t-62.5 -10.5h-25q-2 21 -4.5 52t-11.5 59.5t-28 49t-53 20.5z" />
    <glyph glyph-name="i" unicode="i" horiz-adv-x="280" 
d="M15 372q0 -50 1 -107.5t7 -114.5t20 -111t40 -97q3 -1 8.5 -2t12.5 -1.5t12.5 -1t8.5 -0.5q26 0 49 12.5t40.5 32.5t27.5 45t10 50q0 6 -0.5 30t-2.5 59t-5 77.5t-8 85.5q-6 60 -17.5 109.5t-28.5 73.5q-15 24 -50 38q-47 -6 -67.5 -17t-34.5 -37q-13 -26 -18 -57.5
t-5 -66.5z" />
    <glyph glyph-name="j" unicode="j" horiz-adv-x="707" 
d="M15 62q0 -67 46 -96t122 -29q48 1 82.5 19.5t63.5 44t57.5 53.5t63.5 48q3 1 9 7l8 8q15 24 26 55.5t19 64.5t13 65.5t8 59.5q29 6 56.5 20t48.5 33.5t34 43t13 49.5q0 29 -18.5 35.5t-48.5 6.5q-31 0 -78 -3.5t-99 -11.5t-104.5 -22t-94.5 -35t-68 -50t-26 -68
q0 -26 22 -27q5 -1 11 -1h11h25q18 0 28 2.5t16.5 5.5t12.5 5.5t18 2.5q1 0 3.5 -0.5t4.5 -0.5q5 -20 8 -34.5t5 -27.5t3 -26t1 -29v-28q0 -11 -2 -24t-7 -23.5t-13 -17.5t-20 -7h-8q-5 2 -22 6.5t-37 9.5t-37 8.5t-21 3.5q-54 0 -94 -27q-41 -26 -41 -69z" />
    <glyph glyph-name="k" unicode="k" horiz-adv-x="690" 
d="M43 203l15 -215q0 -5 7.5 -15.5t17.5 -17.5t59 -15q13 7 32 22t37.5 32.5t33.5 33t22 24.5q10 11 13 22t7 19.5t13.5 14t32.5 5.5q37 1 60.5 -9.5t38.5 -26.5t25.5 -34.5t21.5 -34.5t25 -26.5t38 -9.5q25 1 42.5 7t36.5 18q19 13 32.5 28t13.5 32q0 59 -14 99t-40.5 70
t-63.5 54.5t-82 52.5v9q0 23 10.5 43.5t23.5 40.5t23.5 41t10.5 46q0 14 -4 25.5t-23 11.5q-43 0 -67 -31q-12 -16 -23 -33t-21 -36t-20.5 -36.5t-23.5 -34.5q-23 -32 -65 -32q-9 0 -19 13t-20 32.5t-19.5 42.5t-16.5 43q-5 15 -8 23t-5.5 12.5t-5.5 7t-7 5.5q-7 7 -34 14
q-33 -7 -53 -20t-39 -48q-19 -34 -31.5 -63t-12.5 -51v-40q-3 -32 8 -62.5t18 -52.5z" />
    <glyph glyph-name="l" unicode="l" horiz-adv-x="480" 
d="M17 165v43q0 14 2 47t5 70t5.5 70t3.5 47q4 18 15 39t26.5 38.5t35 29t40.5 11.5q18 0 29 -7.5t21 -27.5q0 -10 1 -31t2.5 -47.5t3.5 -56t4 -56t3.5 -47t2.5 -29.5q1 -3 2.5 -11t4.5 -21q4 -14 6 -22.5t3 -11.5q2 -4 8 -10.5t9 -6.5h183q4 0 10.5 -12.5t6.5 -20.5
q0 -33 -16 -60.5t-42 -50.5t-59.5 -40t-67.5 -29t-66.5 -18t-56.5 -6q-3 0 -11.5 0.5t-18.5 1.5t-18 1.5t-11 0.5q-25 15 -38.5 42.5t-19.5 59t-7 64t-1 57.5z" />
    <glyph glyph-name="m" unicode="m" horiz-adv-x="920" 
d="M617 345q17 0 26.5 -17.5t14.5 -46t6.5 -65t3.5 -73.5q1 -37 5 -73.5t13 -66t24.5 -47.5t39.5 -18q3 0 9 1t8 1q33 28 55.5 52t36.5 49.5t20 55.5t6 70v45v27q0 15 1 31q1 59 -11 126q-12 62 -45 106q-32 45 -97 45q-25 0 -48 -8t-45.5 -17t-45 -17t-46.5 -8
q-18 0 -32 5.5t-28.5 12.5t-31 12.5t-39.5 5.5q-33 0 -54.5 -8.5t-40 -20t-39 -22t-50.5 -14.5q-1 0 -8.5 2.5t-16 5t-16 5t-9.5 2.5q-1 0 -13.5 1t-19.5 1q-37 0 -62.5 -18.5t-41.5 -46.5t-23.5 -61t-7.5 -62v-40q0 -21 18 -37q0 -12 -0.5 -37.5t-0.5 -54.5q0 -31 0.5 -57
t0.5 -36q0 -8 3.5 -21.5t10.5 -26.5t16 -22.5t20 -9.5q4 0 9.5 1t7.5 1q58 24 87.5 59.5t42 75.5t13 80.5t0.5 75.5q0 43 12 70t53 27q10 0 21 -11.5t19 -27.5q4 -8 6 -14t2.5 -13t0.5 -16v-23q-7 -27 -10.5 -43.5t-5.5 -28.5q-1 -7 2 -41v-27q0 -27 3.5 -40t9.5 -31
q6 -17 21.5 -29.5t37.5 -12.5q27 0 52 10.5t37 29.5q13 20 23 36.5t16 49.5q0 47 -3 77q-2 15 -4 33t-4 39q0 15 7 30t18.5 27t27 19t32.5 7z" />
    <glyph glyph-name="n" unicode="n" horiz-adv-x="633" 
d="M20 365v-42q0 -26 0.5 -64.5t3.5 -81.5t9 -85.5t16 -76.5t25.5 -55.5t37.5 -21.5q1 0 4.5 1l3.5 1l133 127l1 8t1 12q0 33 -10 64.5t-10 66.5q0 32 10.5 48.5t25.5 28.5t33 23.5t33 33.5q22 -12 36.5 -38t23 -59t12 -70t5.5 -72t3 -64t3 -46q3 -8 9.5 -11.5t14.5 -4.5
t16 -0.5t13 0.5q14 0 33 8t38 20t35 26t24 26v23q0 20 1 40t1 38v25v45q0 40 -0.5 84t-9.5 86q-12 58 -43 94q-30 40 -94 40q-33 0 -60.5 -15t-53.5 -33.5t-51.5 -33.5t-55.5 -15q-17 0 -27 6t-20 12.5t-22.5 12.5t-34.5 6q-54 0 -83.5 -32.5t-29.5 -84.5z" />
    <glyph glyph-name="o" unicode="o" horiz-adv-x="707" 
d="M15 180q0 -23 11.5 -62.5t31.5 -78.5q20 -38 109 -99l190 3q103 27 166 77q30 25 50.5 48t31.5 43q11 21 21.5 39.5t19.5 34.5q19 33 29 72.5t10 99.5q0 69 -41 117.5t-111 70.5h-20h-61h-19q-191 0 -305 -90q-113 -90 -113 -275zM223 295v10q0 10 1 22t3 15q18 20 50 20
h53q36 0 66 -10t51 -28.5t33 -44.5t12 -57q0 -18 -6.5 -33.5t-18.5 -27.5t-28.5 -19t-36.5 -7q-35 0 -67.5 14.5t-57 37.5t-39.5 51.5t-15 56.5z" />
    <glyph glyph-name="p" unicode="p" horiz-adv-x="607" 
d="M15 323q0 -18 3.5 -53.5t10 -78.5t15.5 -88.5t19 -82.5t21.5 -61t23.5 -24q4 0 13 2.5t12 4.5q7 5 22 17t30.5 25.5t29 26.5t18.5 21q1 1 3 9.5t4 19t5 20t5 11.5l2 4.5l6 13.5q9 17 25 20q17 3 70 30q59 28 94 61.5t65 69.5q31 37 52 77t21 77q0 25 -17 43.5t-42.5 30.5
t-54.5 18t-53 6q-27 0 -64.5 0.5t-77.5 -1.5t-79.5 -9t-70.5 -22q-21 -9 -35 -18t-23 -17.5t-15.5 -17t-12.5 -15.5q-13 -14 -23 -66q0 -3 -0.5 -11t-0.5 -16t-0.5 -16t-0.5 -11zM232 358q0 37 19 52t52 15q5 0 23.5 -1t37.5 -6.5t31 -16t5 -28.5q-5 -12 -21 -26.5t-36 -27
t-41 -21t-35 -8.5q-9 0 -15.5 8t-11 19.5t-6.5 23t-2 17.5z" />
    <glyph glyph-name="q" unicode="q" horiz-adv-x="663" 
d="M17 53q10 -42 38.5 -65t66.5 -34.5t80.5 -13.5t80.5 -2q21 0 100 29l34 26q49 -43 82 -61t48 -8.5t11 48t-28 108.5q19 42 31 68t18 38q7 12 13 24l12 24q13 24 22 51t9 60q0 97 -52.5 147t-170.5 50q-33 0 -65 -6t-62 -15.5t-56 -22t-46 -25.5q-93 -87 -127 -153
q-16 -33 -25.5 -58.5t-11.5 -43.5q-2 -17 -3 -37t-1 -43v-16q0 -12 1 -26t1 -26v-17zM203 280q0 28 3.5 44t14.5 31t36 16q7 1 12 1h9h14q85 0 116 -52q32 -53 29 -120q-37 30 -60.5 43.5t-36 7t-14.5 -33.5t4 -77q-13 -7 -27 -7q-12 0 -40 20q-26 20 -43 54.5t-17 72.5z
" />
    <glyph glyph-name="r" unicode="r" horiz-adv-x="667" 
d="M73 -43q4 -14 17 -16.5t25 -2.5q16 0 29 6.5t23.5 17t19.5 23.5l18 26q18 26 28 52.5t17 66.5q106 -7 131 -43q12 -17 22.5 -30.5t20.5 -21.5q18 -18 38.5 -33t52.5 -15h8l100 31q0 3 0.5 11t0.5 16t0.5 16t0.5 11q0 37 -11 64.5t-27.5 48.5t-36 36.5t-36.5 28
t-28.5 22.5t-12.5 21q10 15 27.5 33.5t34 39.5t28.5 43.5t12 45.5q0 38 -17.5 59t-45 30.5t-62 10.5t-68.5 0q-18 0 -44 -2t-57 -6t-64.5 -9t-66.5 -11q-33 -5 -60.5 -17t-46.5 -29.5t-29.5 -39.5t-10.5 -46q0 -27 7 -54.5t16 -55.5l18 -56t13 -57q1 -14 3.5 -44t5.5 -63.5
t5 -63.5t2 -44zM320 415h10q3 -2 9.5 -5t12.5 -6t11 -6t5 -5l2 -2.5t2 -7.5q0 -24 -21.5 -40t-49.5 -25t-56.5 -12.5t-41.5 -3.5q0 71 28 92t89 21z" />
    <glyph glyph-name="s" unicode="s" 
d="M48 18q0 -29 10 -44.5t28 -22.5t42.5 -9t53.5 -4q25 1 46.5 2.5t43 3.5t44.5 5.5t51 8.5q72 42 139.5 100t110.5 125q0 4 0.5 11.5t0.5 10.5q0 20 -10 37.5t-26.5 31t-38 22.5t-43.5 12q-14 4 -49.5 9.5t-75 10t-75 7.5t-50.5 3v37q4 0 18.5 1t31 1.5t31 1.5t19.5 1
q1 0 6 -2t10.5 -4.5t10 -4.5t6.5 -2t14.5 5.5t19.5 7.5q12 7 31.5 17t39 22.5t33.5 26.5t14 29q0 12 -16.5 23.5t-38.5 20t-45 14t-35 5.5q-32 0 -59 -6.5t-51 -16t-45 -21.5t-39 -23q-19 -12 -34 -22t-31.5 -21.5t-38 -24.5t-52.5 -31l-17 -34q-16 -11 -17 -28.5t-1 -37.5
q0 -15 7.5 -34t21 -36.5t32 -29.5t41.5 -12h266q5 0 16.5 -8t17.5 -10l0.5 -3.5t0.5 -5.5q0 -8 -15.5 -14t-34.5 -11t-34.5 -7.5t-16.5 -2.5h-110h-107q-35 -23 -44 -38q-8 -18 -8 -42z" />
    <glyph glyph-name="t" unicode="t" horiz-adv-x="697" 
d="M183 330q-35 0 -54 -10t-54 -10h-17h-10q-7 0 -10 1q-21 1 -21 26q0 52 31.5 87.5t81 58.5t111 35.5t122 18t113 6t84.5 0.5q28 0 52.5 -8t54.5 -8v-14l-67 -141l-73 -12l-77 -32v-263q-12 -9 -27.5 -30t-33 -42t-36 -37.5t-36.5 -17.5q-19 0 -30 17t-16 44.5t-6.5 63
t-1.5 72.5t-2.5 72.5t-11 62.5t-24.5 43.5t-42 16.5z" />
    <glyph glyph-name="u" unicode="u" horiz-adv-x="613" 
d="M17 292v-222q0 -13 10 -35t25 -43t32.5 -36.5t32.5 -15.5h183q6 4 17.5 10.5t24.5 12.5t24.5 10.5t16.5 4.5q2 0 8.5 -8t8.5 -10q3 -5 16.5 -11t16.5 -9h9q23 0 43.5 10.5t38.5 27t33 36.5t26 38v10v8q0 1 -2 6.5t-5 11.5t-5.5 11.5t-3.5 7.5l-50 388q-4 30 -23 43.5
t-44 13.5q-29 0 -50.5 -18t-36.5 -45t-22.5 -57.5t-7.5 -54.5q0 -46 17 -95q18 -45 18 -84q0 -21 -15.5 -29.5t-30.5 -8.5h-22q-15 0 -36 7.5t-41 20t-34 30t-14 37.5v240q0 1 -4.5 3.5t-11.5 5l-14 5t-12 4.5h-8q-35 0 -51 -26.5t-24 -62.5t-13.5 -73t-19.5 -59z" />
    <glyph glyph-name="v" unicode="v" horiz-adv-x="723" 
d="M15 402q0 21 12 39.5t31 33t43 22.5t49 8q28 -1 52.5 -22t47 -52t44 -67.5t42.5 -67.5t43 -52t46 -22q16 0 30.5 17.5t24.5 40t16 43.5t6 29q0 20 -16 32q-17 13 -36 21q-21 8 -37 45q12 66 33 76q21 11 47.5 16.5t51.5 5.5q32 0 50.5 -2t29.5 -5t17 -8.5t12.5 -11.5
t16.5 -14t29 -17v-113l-9 -6t-8 -6q-17 -26 -40.5 -67t-51.5 -88t-60.5 -94.5t-67.5 -86t-72 -63.5t-74 -26q-7 0 -20 6q-12 7 -13.5 10.5t-4.5 13.5q-1 9 -24 47t-30 44q-4 3 -5.5 4.5l-2.5 2.5q-4 4 -13.5 17t-20 29t-20 30.5t-13.5 22.5q-15 24 -37.5 52.5t-44.5 59
t-37.5 62t-15.5 61.5z" />
    <glyph glyph-name="w" unicode="w" horiz-adv-x="913" 
d="M425 57q15 0 27.5 -18.5t29.5 -41t40.5 -41t60.5 -18.5q8 0 29.5 21t49.5 53.5t59 71t58 74t46.5 63t24.5 36.5q12 24 19 41t10.5 32t4.5 31t1 39q0 60 -37 100q-36 42 -98 42q-23 0 -49 -13.5t-50 -35.5q-23 -21 -21 -32q3 -11 10 -21t20 -37l40 -113l1 -6t1 -9
q0 -9 -7 -23.5t-17 -28.5t-20 -24.5t-16 -10.5q-11 0 -15 9t-6.5 20.5t-6.5 23t-14 16.5q-1 8 -5.5 29.5t-10 45.5t-10.5 45.5t-7 29.5q-4 12 -16.5 33.5t-28 43t-30.5 38t-25 18.5q-32 5 -57 -12.5t-42.5 -45t-26.5 -59t-9 -53.5q0 -21 4.5 -39t10.5 -35.5t10.5 -35
t4.5 -37.5h-29q-5 14 -21.5 47t-35.5 70t-36 70t-23 47q-19 35 -33 43t-39 8q-23 0 -46.5 -7t-42 -21t-30 -34.5t-11.5 -47.5q0 -18 13.5 -55.5t36 -83.5t50 -94t55.5 -87.5t53.5 -65t43.5 -25.5q22 0 40 11t35.5 24t37 24t45.5 11z" />
    <glyph glyph-name="x" unicode="x" horiz-adv-x="597" 
d="M227 103q36 -25 58.5 -46.5t44.5 -47.5l22 -26t23 -23t26 -16t31 -6q28 0 53 14.5t43.5 37.5t29 51.5t10.5 56.5q0 34 -22.5 59.5t-49.5 49.5q-26 25 -47 50.5t-36 45.5q24 40 40.5 62t34.5 43q19 22 33 44.5t14 50.5q0 22 -11 28.5t-31 6.5q-31 0 -53 -10.5t-41 -26.5
q-18 -17 -37 -35.5t-55 -48.5q-32 46 -70.5 75.5t-89.5 29.5q-21 0 -43 -13.5t-40.5 -34t-31 -45t-15.5 -46.5q-5 -30 10.5 -53t35.5 -43t37.5 -42t26.5 -42q-9 -20 -22 -40.5t-29 -48.5q-16 -27 -29.5 -60.5t-13.5 -71.5v-7q2 -3 8 -9t9 -8l3.5 -0.5t4.5 -0.5q27 0 49.5 18
t42.5 41q20 24 39 43t38 44z" />
    <glyph glyph-name="y" unicode="y" horiz-adv-x="613" 
d="M132 -23q0 -26 16 -42.5t40 -25.5t52 -12.5t52 -3.5q22 0 52 15.5t62 39.5t64 53t57 57t40.5 51.5t15.5 35.5v22q0 18 1 36.5t1 34.5v25q0 10 0.5 35.5t0 56.5t-4.5 64.5t-13.5 61t-25 45t-40.5 16.5q-42 1 -72 -20t-50 -52.5t-31.5 -68t-15.5 -64.5q-1 0 -7 -1t-9 -1
q-26 -1 -41.5 11t-25.5 31t-17.5 40.5t-18 40.5t-27 31t-44.5 11q-33 0 -57 -17t-40 -42.5t-23.5 -55.5t-7.5 -55q0 -41 12.5 -75.5t36.5 -59t60 -38.5t84 -14q24 0 45.5 2t42 5t41.5 5t45 2q0 -4 0.5 -7t0.5 -5q0 -4 -2 -10t-5 -12.5t-5.5 -12t-3.5 -8.5q-34 -19 -77 -19
q-31 -1 -59 -6t-50 -17t-35 -32t-14 -51z" />
    <glyph glyph-name="z" unicode="z" 
d="M587 -3q0 -21 -10.5 -32.5t-27 -17t-37.5 -6.5t-42 -1q-23 0 -50.5 -1.5t-54.5 1.5q-14 2 -45.5 4t-82.5 6q-151 -13 -187 -4q-33 9 -27 76l14 88q100 93 163.5 151.5t89.5 86.5q52 55 -18 51q-71 -4 -105 -32q-41 26 -48 38q-8 15 -20 22q-12 10 -21.5 20t-9.5 28
q0 38 20 52.5t72 14.5q35 0 78.5 0.5t91.5 -2.5q23 -1 44 -3t39 -4q19 -2 63 -3.5t114 -1.5q33 -20 23 -75t-43 -73l-240 -233q-62 -44 -37 -52q24 -8 59 -3q1 0 11.5 3.5t22 8t21.5 9t11 5.5h9q31 0 60 -9t51.5 -25.5t35.5 -38.5t13 -48z" />
    <glyph glyph-name="braceleft" unicode="{" horiz-adv-x="663" 
d="M243 397q17 -41 33.5 -70.5t32 -52t31.5 -39.5t32 -32q31 -28 71 -45q28 -11 55 -20t48.5 -16t35.5 -12.5t16 -9.5q5 -15 10.5 -34.5t12.5 -43.5q14 -50 14 -89q-48 0 -112.5 28.5t-133.5 75.5t-136.5 107.5t-120.5 124t-86 125.5t-33 111q0 54 25.5 88.5t64.5 54
t84.5 27t85.5 7.5q26 0 48.5 -0.5t43.5 -4t41.5 -11t41.5 -21.5q2 -6 7.5 -25t11 -41.5t10.5 -43.5t6 -32l-66 7q-32 7 -54 7h-40q-18 0 -50 -17q-30 -17 -30 -103z" />
    <glyph glyph-name="bar" unicode="|" horiz-adv-x="240" 
d="M125 765q-17 0 -36 -16t-35 -40.5t-26.5 -54t-10.5 -56.5v-561q0 -67 20 -130q19 -60 63 -60q27 0 49 27.5t37 68.5t23.5 87.5t8.5 84.5q0 147 -10.5 284t-24.5 279q-5 54 -20 70.5t-38 16.5z" />
    <glyph glyph-name="braceright" unicode="}" horiz-adv-x="663" 
d="M405 218q-17 40 -33.5 69.5t-32.5 52t-32 39.5t-32 32q-32 29 -70 45q-27 12 -54 21t-49 16t-36 12t-16 10q-5 14 -11 33t-13 44q-13 45 -13 90q36 0 81.5 -16.5t96 -45t103 -67t102 -83t93 -92.5t76 -95t51.5 -91.5t19 -81.5q0 -54 -25.5 -88.5t-64 -54t-84.5 -27
t-86 -7.5q-26 0 -48.5 0.5t-43.5 4t-41.5 11t-41.5 21.5q-2 6 -7 25t-11 41.5t-11 43.5t-6 32l67 -7q31 -7 53 -7h40q18 0 50 17q30 16 30 103z" />
    <glyph glyph-name="FL007Eh" unicode="~" horiz-adv-x="491" 
d="M415 417q27 0 36 -13t9 -27q0 -26 -18 -53.5t-50 -51.5q-32 -23 -40 -26q-7 -2 -22 -8.5t-37 -16.5q-21 -11 -60 9q-19 10 -33 18.5t-24 16.5q-20 16 -33 0t-53 -35q-19 -10 -37.5 -17t-35.5 -12q-10 33 -10 56q0 18 11 43q5 11 13 23.5t19 27.5q19 28 85 66
q-8 -5 -1.5 -4t26.5 8q14 -2 29 -7.5t31 -15.5q33 -21 43 -33q10 -11 20 -6.5t26 15.5t41 24t65 19z" />
    <glyph glyph-name="FL00A0h" unicode="&#xa0;" horiz-adv-x="607" 
 />
    <glyph glyph-name="FL00A1h" unicode="&#xa1;" horiz-adv-x="320" 
d="M287 576q0 9 1 27t-1.5 37t-9.5 33t-23 14q-22 0 -41 -12.5t-33 -31.5t-22 -41.5t-8 -42.5v-28q0 -25 8 -46t34 -21q28 0 52.5 15t40.5 38v11q0 8 1 19t1 18v11zM287 356q0 12 -0.5 23.5t-3.5 20.5t-10.5 14t-20.5 5q-3 0 -9 -1.5t-8 -1.5q-8 -5 -25.5 -21.5t-36 -36
t-34 -38t-20.5 -28.5q-2 -2 -5 -15t-5.5 -28t-4.5 -28.5t-2 -16.5q-7 -32 -22 -66l-30 -68t-26.5 -68t-11.5 -66q68 0 124 21q56 20 86 105t47.5 157.5t17.5 136.5z" />
    <glyph glyph-name="FL00A2h" unicode="&#xa2;" horiz-adv-x="663" 
d="M406 -121l-100 19q0 17 -0.5 46.5t-0.5 67.5q-54 2 -98.5 12.5t-77.5 34.5t-55.5 65t-33.5 104v50q8 39 13 61.5t7 29.5t13 25.5t31 49.5q42 63 141 115q14 8 28.5 14t30.5 12q1 75 4 123t8 49l83 -14q5 -1 6 -37.5t0 -96.5q17 2 34 3t35 1q7 0 34 2.5t57 0.5t53.5 -11
t23.5 -32q0 -17 -12 -41.5t-30 -47t-38.5 -39t-37.5 -17.5h-66q-14 0 -28.5 -0.5t-28.5 -1.5q-2 -49 -3 -98t-2 -100h128q3 0 9.5 -7t6.5 -10q0 -7 -14 -29t-35.5 -49t-47.5 -54.5t-49 -45.5q1 -57 3.5 -97t8.5 -57zM224 344q0 -14 6.5 -31t17.5 -33t25 -29t30 -19
q-1 22 -1 44v44v88q-17 -5 -33 -12.5t-29 -17.5q-3 -4 -9.5 -16.5t-6.5 -17.5z" />
    <glyph glyph-name="FL00A3h" unicode="&#xa3;" horiz-adv-x="788" 
d="M588 314q-57 -13 -103.5 -19.5t-85.5 -10.5q-8 -14 -15.5 -30.5t-15.5 -35.5q0 -87 30 -103q32 -17 50 -17h40q25 0 54 7l66 7q-1 -11 -6 -32t-11 -43.5t-11 -41.5t-7 -25q-21 -14 -41.5 -21.5t-41.5 -11t-43.5 -4t-48.5 -0.5q-37 0 -77 6q-52 -8 -84.5 -8.5t-51 1.5
t-26.5 4.5t-11 1.5q-1 0 -11 -0.5t-17 -0.5q-30 0 -51 6.5t-54 24.5v22q0 9 3 17.5t9 18.5t15 22.5t20 30.5q23 5 42 10t34 9v12q0 37 19 80.5t51 91.5h-14q-30 0 -51 6.5t-54 24.5v22q0 10 2.5 11t7.5 2t13 6t19 23q153 39 154 36q1 -1 1 -4h27q53 54 114 103.5t121 87
t115 60t97 22.5q0 -37 -14 -90q-7 -23 -12.5 -42.5t-10.5 -34.5q-2 -5 -16 -10.5t-35.5 -12.5t-48.5 -15.5t-55 -20.5q-39 -16 -71 -45q-4 -3 -7.5 -6t-6.5 -7q45 -4 69 -14q37 -13 61 -43q1 -2 4 -5q-4 0 -11 -4t-18 -18z" />
    <glyph glyph-name="FL00A4h" unicode="&#xa4;" horiz-adv-x="607" 
d="M15 301q0 19 10.5 36t29.5 32q-18 22 -30.5 48t-7.5 61q3 26 15.5 55.5t31 54t40.5 41t43 16.5q50 0 89 -35t74 -90q32 37 51 58.5t38 40.5t41 32.5t53 13.5q20 0 31 -7.5t11 -35.5q0 -35 -14 -62t-33 -53q-15 -20 -28.5 -41.5t-28.5 -50.5q63 -17 101.5 -47t38.5 -67
q0 -20 -12 -38t-33 -33q18 -22 30 -46t12 -52q0 -33 -10.5 -67.5t-29 -62.5t-43.5 -46t-53 -18q-35 0 -57 27q-11 14 -22.5 28.5t-22.5 30.5q-22 31 -44.5 57.5t-48.5 51.5q-29 -25 -48 -48t-39 -52q-20 -28 -42.5 -50.5t-49.5 -22.5q-1 0 -4.5 1l-3.5 1q-3 1 -9 8.5
t-8 12.5v7q0 48 13.5 88t29.5 73q7 15 13.5 28.5t12.5 25.5q-40 18 -63.5 42.5t-23.5 53.5zM159 313q0 -8 11 -21.5t29.5 -26.5t43.5 -22.5t54 -9.5q28 0 53.5 9.5t44 22.5t29.5 26.5t11 21.5t-11 20.5t-29.5 24t-44 20t-53.5 8.5q-29 0 -54 -8.5t-43.5 -20t-29.5 -24
t-11 -20.5z" />
    <glyph glyph-name="FL00A5h" unicode="&#xa5;" horiz-adv-x="824" 
d="M749 123q-67 -15 -112 -23t-74 -11.5t-45 -4t-24 -0.5q-25 -27 -52.5 -53t-54.5 -46t-51.5 -32.5t-43.5 -12.5q-24 0 -52 3.5t-52 13.5t-40 28t-16 48q0 42 21 70.5t53.5 45t71.5 22.5t74 3q9 28 30 59v4q-24 0 -45 -2.5t-41.5 -5t-42 -5t-45.5 -2.5q-48 0 -84 15.5
t-60 43.5t-36.5 66.5t-12.5 85.5q0 28 7.5 62t23.5 62.5t40 48t57 19.5q42 0 59 -29t30 -64q7 -17 14 -33.5t15 -31.5q17 -29 56 -29q3 0 9 1t7 1q4 32 15.5 73t31.5 77t50 60.5t72 24.5q19 0 32.5 -12t23 -32.5t15 -46.5t8.5 -54q37 0 70.5 -3t62.5 -14q37 -13 61 -43
t-28 -93q-54 -12 -94 -19.5t-68 -11.5v-16q0 -12 -0.5 -26t-1.5 -28q37 0 70.5 -3t62.5 -14q37 -13 61 -43t-28 -93z" />
    <glyph glyph-name="FL00A6h" unicode="&#xa6;" horiz-adv-x="240" 
d="M125 765q-17 0 -36 -16t-35 -40.5t-26.5 -54t-10.5 -56.5v-561q0 -67 20 -130q19 -60 63 -60q27 0 49 27.5t37 68.5t23.5 87.5t8.5 84.5q0 147 -10.5 284t-24.5 279q-5 54 -20 70.5t-38 16.5z" />
    <glyph glyph-name="FL00A7h" unicode="&#xa7;" 
d="M48 32q0 28 8 52q9 19 44 48q12 0 42.5 -1t64.5 -1q35 0 65.5 1t44.5 1q1 0 16.5 2.5t34.5 7.5t34.5 13.5t15.5 19.5q0 2 -0.5 5l-0.5 3q-2 2 -16.5 0.5t-35.5 -5l-45 -7.5t-44.5 -8t-34.5 -6t-15 -1l-109 52q-20 10 -38.5 25.5t-32.5 34t-22.5 38t-8.5 37.5q0 24 1 44.5
t17 37.5l17 42q31 21 52.5 37.5t38 30.5t31.5 26.5t34 26.5q19 13 40 25.5t44 26.5q46 28 110 28q12 0 35 -6t45 -16.5t38.5 -25t16.5 -30.5q0 -15 -14 -32t-33.5 -33t-39 -29t-31.5 -19q-7 -4 -19.5 -10.5t-14.5 -6.5t-6.5 2.5t-10 6t-10.5 6t-6 2.5q-5 0 -19.5 -1
t-31 -2.5t-31 -2.5t-18.5 -1v-45q10 7 30 10t44 3q25 0 52.5 -3.5t52 -9.5t43.5 -15t28 -20q14 -18 34.5 -31.5t39 -27t31.5 -29.5t13 -40q0 -5 -0.5 -14.5t-0.5 -12.5q-42 -83 -111 -153t-139 -124q-29 -6 -52 -9.5t-44 -5.5t-42.5 -3t-46.5 -2q-29 0 -53.5 2t-42.5 11
t-28 28t-10 53zM381 332l-96 17l-43 -14l-18 -14l-14 -11l-10 -20l43 -25h57l103 10l7 4l-1 21z" />
    <glyph glyph-name="FL00A8h" unicode="&#xa8;" horiz-adv-x="528" 
d="M10 747q0 51 27.5 86t79.5 35q33 0 59 -21.5t26 -54.5q0 -27 -9.5 -50.5t-26.5 -40.5t-40.5 -26.5t-50.5 -9.5q-30 0 -47.5 26t-17.5 56zM297 746q0 52 27.5 87t78.5 35q34 0 59.5 -22t25.5 -55q0 -27 -9.5 -50.5t-26 -40.5t-40 -26.5t-50.5 -9.5q-30 0 -47.5 26
t-17.5 56z" />
    <glyph glyph-name="FL00A9h" unicode="&#xa9;" horiz-adv-x="713" 
d="M15 227q0 225 113 335q116 110 305 110h19q15 0 31.5 -1t29.5 -1h20q70 -25 111 -86t41 -142q0 -70 -10 -118.5t-29 -87.5q-9 -20 -17.5 -41.5t-19.5 -44t-25 -45.5t-34 -45q-14 -15 -27 -30l-26 -30q-26 -30 -87 -60h-227q-62 28 -83 49q-23 22 -42 69q-10 25 -18 48.5
t-14 46.5q-5 25 -8 43t-3 31zM127 283v-35q9 -48 27 -78t45 -46.5t63.5 -22t81.5 -5.5q14 0 36.5 19.5t44 44t37 47.5t15.5 29q0 2 -4.5 7t-6.5 5h-140q-13 0 -25.5 8.5t-22.5 21t-16 26.5t-6 25q0 4 4.5 12.5t6.5 11.5q30 22 72 28.5t81 6.5h46q12 1 26 12.5t27 27
t21.5 32.5t8.5 29q0 16 -16.5 22.5t-37.5 7.5t-40 -0.5t-24 -1.5q-90 0 -160 -37q-71 -38 -99 -81q-28 -41 -31 -52q-2 -5 -5 -21t-9 -43z" />
    <glyph glyph-name="FL00AAh" unicode="&#xaa;" horiz-adv-x="338" 
d="M6 315v4q0 3 -0.5 8t-0.5 8v5q0 35 9 77.5t25.5 84t39.5 78t52 60.5q2 2 6.5 5.5t9.5 8.5q11 9 20 13t22 6q39 -12 62 -41.5t35 -68.5q12 -38 16.5 -78t4.5 -72q0 -13 -6 -30t-16.5 -32t-24 -25.5t-29.5 -10.5q-8 0 -14 11.5t-10 26t-6.5 28t-2.5 17.5q-2 0 -6.5 0.5
t-6.5 0.5q-42 0 -62.5 -14.5t-32.5 -32t-22 -32t-32 -14.5q-9 0 -15.5 1t-14.5 8zM131 538v-44h64q0 17 -7 30q-6 14 -39 14h-18z" />
    <glyph glyph-name="FL00ABh" unicode="&#xab;" horiz-adv-x="763" 
d="M145 375q-106 -117 -133 -173q20 -60 60 -140q25 -48 63.5 -76.5t89.5 -28.5q21 0 43 13.5t40.5 33.5t31 44.5t15.5 46.5q5 30 -11 53.5t-36 43.5t-37.5 41.5t-25.5 41.5q6 18 21 40.5t30.5 49.5t28 59.5t13.5 72.5v6q-1 4 -7 9.5t-9 7.5l-3.5 1t-5.5 1
q-26 0 -48.5 -18.5t-42.5 -42.5q-20 -23 -39.5 -42t-37.5 -44zM522 378q-107 -116 -134 -173q20 -60 60 -140q25 -48 64 -76.5t90 -28.5q22 0 43.5 13.5t39.5 34t30.5 44.5t16.5 46q5 30 -11 53.5t-36 43.5t-37.5 41.5t-25.5 41.5q6 19 21 41t30 49t27.5 60t14.5 72v7
q-2 3 -7.5 9t-9.5 7l-3 1t-5 1q-27 0 -49.5 -18.5t-42.5 -41.5t-39 -42.5t-37 -44.5z" />
    <glyph glyph-name="FL00ACh" unicode="&#xac;" horiz-adv-x="627" 
d="M366 223v3q-96 -8 -154 -4.5t-64 1.5q-1 0 -11 -0.5t-17 -0.5q-30 0 -51 6.5t-54 24.5v22q0 37 45 108q153 39 154 36q1 -1 1 -4q25 2 67.5 0t89 -5t90 -6t72.5 -3q27 0 42 -6q16 -5 32 -42q-10 -34 -21.5 -87t-31.5 -108q-11 -26 -24 -49.5t-28.5 -41.5t-34.5 -28.5
t-42 -10.5q-2 0 -7.5 1t-7.5 1q-2 10 -9 35t-15 54.5t-14.5 58t-6.5 45.5z" />
    <glyph glyph-name="FL00ADh" unicode="&#xad;" horiz-adv-x="374" 
d="M306 251q-42 -10 -71 -16t-48 -9.5t-28.5 -5t-13.5 -1.5t-3.5 1t2.5 2t3.5 1.5t0.5 -0.5q-1 0 -11 -0.5t-17 -0.5q-30 0 -51 6.5t-54 24.5v22q0 37 45 108q38 10 49 15.5t9 8t-10 2.5t-8 -1q1 -1 1 -4q48 0 91.5 -1.5t80.5 -15.5q37 -13 61 -43t-28 -93z" />
    <glyph glyph-name="FL00AEh" unicode="&#xae;" horiz-adv-x="713" 
d="M15 227q0 225 113 335q116 110 305 110h19q15 0 31.5 -1t29.5 -1h20q70 -25 111 -86t41 -142q0 -70 -10 -118.5t-29 -87.5q-9 -20 -17.5 -41.5t-19.5 -44t-25 -45.5t-34 -45q-14 -15 -27 -30l-26 -30q-26 -30 -87 -60h-227q-62 28 -83 49q-23 22 -42 69q-10 25 -18 48.5
t-14 46.5q-5 25 -8 43t-3 31zM167 102q3 -10 12 -11.5t18 -1.5q23 0 36.5 16t25.5 35q13 18 20 36.5t12 46.5q75 -6 92 -30q8 -12 15.5 -21.5t14.5 -15.5q13 -12 27 -22.5t37 -10.5h5l70 22q0 2 0.5 7.5t0.5 10.5q0 6 0.5 11.5t0.5 7.5q0 39 -16.5 63.5t-36 41t-36.5 28
t-18 22.5q7 11 19 24t24 27.5t20.5 30t8.5 32.5q0 27 -12.5 41.5t-32 21t-43.5 7.5t-48 0q-12 0 -30 -1.5t-40 -4.5t-45.5 -6.5t-46.5 -7.5q-48 -7 -75.5 -33t-27.5 -59q0 -20 5 -39t11 -38.5t12.5 -39.5t9.5 -40q1 -10 3 -31t3.5 -44t3 -44t1.5 -31zM340 423q-43 0 -62 -15
q-20 -14 -20 -65q9 0 29 2.5t39.5 9t34.5 17.5t15 28q0 4 -1 5.5l-1 1.5q0 3 -11 8t-16 8h-7z" />
    <glyph glyph-name="FL00AFh" unicode="&#xaf;" horiz-adv-x="480" 
d="M454 636q-103 -17 -170.5 -26.5t-100.5 -10.5q-32 -1 -49 -1.5t-18 -0.5q-2 0 -15 -0.5t-20 -0.5q-42 0 -63 7q-24 7 -67 24v22q0 10 3.5 17.5t10.5 16.5t17.5 20.5t23.5 29.5q194 39 194 37q1 -1 1 -5q60 0 114.5 -1.5t100.5 -14.5q47 -14 76 -44q7 -8 8 -13.5t-4 -12.5
t-15.5 -17t-26.5 -26z" />
    <glyph glyph-name="FL00B0h" unicode="&#xb0;" horiz-adv-x="353" 
d="M11 462v8q0 5 0.5 10.5t0.5 8.5v4q5 34 14.5 58.5t20.5 41.5t21.5 27.5t18.5 16.5q17 12 33 20t42 16q2 0 6 0.5t11 0.5q4 1 10 1h6q24 0 45 -6t37.5 -19t26 -34t9.5 -50q0 -41 -9 -74t-25 -61.5t-37.5 -54.5t-46.5 -53q-13 -11 -30 -11h-32q-29 0 -51.5 11.5t-38.5 31.5
t-24 47.5t-8 59.5zM95 531q0 -45 24 -75q25 -31 64 -31q25 0 37 22v6q0 4 0.5 10.5t0.5 11.5v6q0 51 -23 73t-65 22q-2 0 -14.5 -1t-14.5 -1q-9 -9 -9 -20v-23z" />
    <glyph glyph-name="FL00B1h" unicode="&#xb1;" horiz-adv-x="480" 
d="M429 312l-137 -29q7 -161 -57 -147q-63 13 -63 141q-18 -2 -28.5 -3.5t-14.5 -1.5q-30 0 -51 6.5t-54 24.5v22q0 10 1.5 13.5t5.5 7.5t11 11.5t18 25.5l90 4q8 193 53 179q47 -14 59 -151q83 -3 125 -17q37 -13 61 -43q6 -8 8.5 -9.5t1 -3.5t-8.5 -8t-20 -22zM437 -15
q-86 -19 -137.5 -27t-80 -10.5t-39.5 -1.5t-15 0q-1 0 -11 -0.5t-17 -0.5q-30 0 -51 6.5t-54 24.5v22q0 9 2.5 10.5t7.5 2.5t13.5 7t19.5 24q153 39 154 36q1 -1 1 -4q48 0 91.5 -1.5t80.5 -15.5q37 -13 61 -43q6 -8 7.5 -7.5t-1.5 1t-11 -3t-21 -19.5z" />
    <glyph glyph-name="FL00B2h" unicode="&#xb2;" horiz-adv-x="323" 
d="M274 354q0 18 -4 26q-4 9 -22 24q-5 0 -20.5 -0.5t-32.5 -0.5t-32.5 0.5t-22.5 0.5l-8.5 1t-17.5 4q-5 2 -8.5 3t-8.5 3q-8 5 25 14q163 64 166 88q1 25 -6 33l-9 21q-14 10 -25.5 18.5t-19.5 15.5q-8 8 -16 14t-17 13q-9 6 -19.5 12t-22.5 14q-23 14 -55 14q-6 0 -17 -3
t-22.5 -8.5t-19.5 -12.5t-8 -15q0 -7 7 -15.5t16.5 -17t19.5 -15t16 -9.5q1 -1 17 -1q4 1 6 1h5h5q3 0 10 -0.5t15.5 -1t15.5 -1t9 -0.5v-23q-10 0 -26 -10q-20 -12 -88 -47q-68 -36 -59 -58q11 -23 -1 -82q-12 -60 116 -36q28 -6 47.5 -7.5t45.5 -2.5q14 0 26 1t21 5.5
t14 14t5 26.5z" />
    <glyph glyph-name="FL00B3h" unicode="&#xb3;" horiz-adv-x="343" 
d="M303 584q0 -65 -19.5 -116.5t-53.5 -87t-80.5 -54.5t-101.5 -19h-5q-4 0 -9.5 0.5t-8.5 0.5h-6q-8 2 -8.5 9.5t-0.5 14.5q0 30 20 45q10 8 21.5 14t23.5 11q14 5 28 7.5t28 3.5q30 3 43 40l-155 -24q-7 0 -8 7.5t-1 15.5v5q0 27 21 40.5t46.5 21t46.5 12.5t21 15
q0 7 -4 11t-10 6.5t-11.5 3.5t-8.5 2h-4h-22q-5 0 -10.5 -0.5t-12.5 -1.5q-22 -1 -37 2q0 4 8 30q7 22 24 39q35 35 54 35h108q9 0 23 -10.5t27.5 -25t23.5 -29.5t10 -24z" />
    <glyph glyph-name="FL00B4h" unicode="&#xb4;" horiz-adv-x="294" 
d="M199 869q32 0 44.5 -13t12.5 -27q0 -26 -24 -53.5t-60.5 -51.5t-81 -42.5t-86.5 -28.5q0 6 -0.5 18t-0.5 17q0 23 8 55.5t32 59.5q23 28 61 47t95 19z" />
    <glyph glyph-name="FL00B5h" unicode="&#xb5;" horiz-adv-x="709" 
d="M19 -51q0 36 16 69q-8 15 -13 29t-5 23v222q14 22 19.5 59t13.5 73t24 62.5t51 26.5h8q5 -2 12 -4.5l14 -5t11.5 -5t4.5 -3.5v-240q0 -20 14 -37.5t34 -30t41 -20t36 -7.5h22q15 0 30.5 8.5t15.5 29.5q0 39 -18 84q-17 51 -17 95q0 24 7.5 54.5t22.5 57.5t36.5 45
t50.5 18q25 0 44 -13.5t23 -43.5l50 -388q1 -2 3 -8t4.5 -12.5t4.5 -11.5t4 -5l92 -32q-11 -18 -10 -35.5t2.5 -31.5t-3.5 -22.5t-27 -8.5h-225q-3 3 -6 9t-6 11q-2 2 -8.5 10t-8.5 8q-5 0 -16.5 -4.5t-24.5 -10.5t-24.5 -12.5t-17.5 -10.5l-96 14q-2 -7 -0.5 -16t3.5 -18.5
t3 -19t-2 -16.5q-11 -26 -24 -49.5t-28.5 -41.5t-34.5 -28.5t-42 -10.5q-2 0 -7.5 1t-7.5 1q-2 10 -9 35t-15 54.5t-14.5 58t-6.5 45.5z" />
    <glyph glyph-name="FL00B6h" unicode="&#xb6;" horiz-adv-x="607" 
d="M557 257v-42q0 -27 -1 -52.5t-1 -47.5v-22q0 -6 -3 -26.5t-9 -43.5t-15.5 -43t-22.5 -25q-37 -16 -71 -6q-17 5 -29 10t-20 9q-15 10 -19 77q-2 34 -5 89t-8 133q0 38 -0.5 63t-1.5 38q-1 25 0 37q1 6 1.5 10.5t0.5 6.5q0 48 -15 56q-7 4 -14.5 6.5t-15.5 3.5
q-15 1 -15 -58l-3 -77q0 -316 -9 -338q-8 -22 -28 -45t-53 -20t-63 3q-4 0 -9.5 1l-5.5 1l-5 115v37q0 53 3 83q4 20 4.5 45t0 50t-1.5 47.5t-1 37.5q3 23 -31 30q-35 7 -54 48q-10 21 -14 40t-4.5 36t0.5 33t1 31q0 24 6 39.5t29 35.5q3 0 12.5 0.5t21 1.5t24.5 1.5t24 0.5
h18q47 0 142 -9q48 -4 89 -12.5t77 -22.5q70 -26 77 -81l15 -120v-34q0 -21 1 -48t1 -52v-31z" />
    <glyph glyph-name="FL00B7h" unicode="&#xb7;" horiz-adv-x="270" 
d="M15 378q0 31 8 57.5t23.5 45.5t38 30t52.5 11q19 0 37 -7t31.5 -19t21.5 -28.5t8 -35.5q0 -62 -41 -106q-41 -41 -104 -41q-33 0 -54 30t-21 63z" />
    <glyph glyph-name="FL00B8h" unicode="&#xb8;" horiz-adv-x="235" 
d="M199 27q-112 6 -116 -49q-5 -54 -62 -35q-56 19 -67 8q-5 -5 -12 -14.5t-15 -23.5q-4 -15 -8 -29t-6.5 -29t-3.5 -33t0 -42q47 0 95 12q50 11 110 59q62 46 85 176z" />
    <glyph glyph-name="FL00B9h" unicode="&#xb9;" horiz-adv-x="292" 
d="M45 331q0 15 4.5 29t12.5 20t16 18.5t7 41.5q-1 7 -1 13v11v18q0 13 -4 28q-5 15 -23 15q-5 1 -10 1h-10t-10 0.5t-10 1.5q0 2 -1 11t-1 16v6q0 26 14.5 46t37.5 34q22 15 37 23t34 8t22 -53q1 -26 1.5 -43.5t-1.5 -28.5q-1 -5 -1 -11v-11v-27q0 -5 0.5 -11t0.5 -14v-22
l10 -18h11q7 0 17 -0.5t20 -3t17.5 -6.5t10.5 -10v-5q0 -31 -16.5 -51t-40.5 -31t-51 -15.5t-49 -4.5q-2 0 -7 0.5t-11 0.5q-5 0 -10 0.5t-6 0.5q-8 2 -9 9t-1 14z" />
    <glyph glyph-name="FL00BAh" unicode="&#xba;" horiz-adv-x="353" 
d="M11 462v8q0 5 0.5 10.5t0.5 8.5v4q5 34 14.5 58.5t20.5 41.5t21.5 27.5t18.5 16.5q17 12 33 20t42 16q2 0 6 0.5t11 0.5q4 1 10 1h6q24 0 45 -6t37.5 -19t26 -34t9.5 -50q0 -41 -9 -74t-25 -61.5t-37.5 -54.5t-46.5 -53q-13 -11 -30 -11h-32q-29 0 -51.5 11.5t-38.5 31.5
t-24 47.5t-8 59.5zM95 531q0 -45 24 -75q25 -31 64 -31q25 0 37 22v6q0 4 0.5 10.5t0.5 11.5v6q0 51 -23 73t-65 22q-2 0 -14.5 -1t-14.5 -1q-9 -9 -9 -20v-23z" />
    <glyph glyph-name="FL00BBh" unicode="&#xbb;" horiz-adv-x="763" 
d="M603 107q107 116 134 173q-20 60 -60 140q-25 48 -64 76.5t-90 28.5q-22 0 -43.5 -13.5t-39.5 -34t-30.5 -44.5t-16.5 -46q-5 -30 11 -53.5t36 -43.5t37.5 -41.5t25.5 -41.5q-6 -18 -21 -40.5t-30.5 -49.5t-28 -60t-13.5 -72v-7q2 -3 7.5 -9t9.5 -7l3 -1t5 -1
q27 0 49.5 18.5t42.5 41.5t39 42.5t37 44.5zM227 103q104 114 133 174q-20 59 -60 140q-25 46 -63.5 75.5t-89.5 29.5q-21 0 -43 -13.5t-40.5 -34t-31 -45t-15.5 -46.5q-5 -30 10.5 -53t35.5 -43t37.5 -42t26.5 -42q-9 -20 -22 -40.5t-29 -48.5q-16 -27 -29.5 -60.5
t-13.5 -71.5v-7q2 -3 8 -9t9 -8l3.5 -0.5t4.5 -0.5q27 0 49.5 18t42.5 41q20 24 39 43t38 44z" />
    <glyph glyph-name="FL00BCh" unicode="&#xbc;" horiz-adv-x="833" 
d="M573 540q0 28 -1 47.5t-7 31.5t-19 17.5t-38 5.5q-21 0 -40 -16t-37 -42t-34.5 -59.5t-32.5 -67.5q-11 -24 -21 -46.5t-21 -42.5q-6 -11 -11 -26.5t-9.5 -31.5t-9.5 -30t-10 -21q-21 -27 -90 -222q-6 -66 17 -86q6 -5 1 1t-11 13.5t-9 11.5t6 -5q38 -32 75 -32q7 0 23 25
q8 13 17.5 31t20.5 43q22 49 32 61q4 5 9 12t10 16l21 39q11 20 20 38.5t14 29.5q15 30 37.5 67.5t44.5 78t37.5 82t15.5 77.5zM52 280q0 -7 1 -14t9 -9q1 0 6 -0.5t10 -0.5q6 0 11 -0.5t7 -0.5q22 0 49 4.5t51 15.5t40.5 31t16.5 51v5q-3 6 -10.5 10t-17.5 6.5t-20 3
t-17 0.5h-11l-10 18v22q0 8 -0.5 14t-0.5 11v27v11q0 8 1 11q2 11 1.5 28.5t-1.5 43.5q-3 53 -22 53t-34 -8t-37 -23q-23 -14 -37.5 -34t-14.5 -46v-6q0 -7 1 -16t1 -11q5 -1 10 -1.5t10 -0.5h10q7 0 10 -1q18 0 23 -15q4 -13 4 -28v-18v-11q0 -8 1 -13q1 -29 -7 -41.5
t-16 -18.5t-12.5 -20t-4.5 -29zM499 128v-63q-2 -14 64 -11q33 1 56.5 1.5t38.5 0.5h8q1 -17 3 -34.5t8 -32t17 -23.5t30 -9h9q20 10 30.5 25.5t15 33.5t5 38t0.5 40v14q0 8 -10 11q0 13 -4 30t-8.5 34.5t-8.5 34.5t-4 31q0 13 5 24t5 23q0 16 -11 18q-12 3 -24 3
q-23 1 -36 -9.5t-20 -26.5t-10 -35t-6.5 -35.5t-9.5 -27.5t-18 -11h-5q-6 0 -15 1t-9 9v90q0 2 -8 4t-13 4h-8q-23 0 -37.5 -10.5t-23 -27t-12 -37t-3.5 -41.5q0 -2 -0.5 -7.5t0 -11.5t2.5 -11t7 -6z" />
    <glyph glyph-name="FL00BDh" unicode="&#xbd;" horiz-adv-x="845" 
d="M573 540q0 28 -1 47.5t-7 31.5t-19 17.5t-38 5.5q-21 0 -40 -16t-37 -42t-34.5 -59.5t-32.5 -67.5q-11 -24 -21 -46.5t-21 -42.5q-6 -11 -11 -26.5t-9.5 -31.5t-9.5 -30t-10 -21q-21 -27 -90 -222q-6 -66 17 -86q6 -5 1 1t-11 13.5t-9 11.5t6 -5q38 -32 75 -32q7 0 23 25
q8 13 17.5 31t20.5 43q22 49 32 61q4 5 9 12t10 16l21 39q11 20 20 38.5t14 29.5q15 30 37.5 67.5t44.5 78t37.5 82t15.5 77.5zM52 280q0 -7 1 -14t9 -9q1 0 6 -0.5t10 -0.5q6 0 11 -0.5t7 -0.5q22 0 49 4.5t51 15.5t40.5 31t16.5 51v5q-3 6 -10.5 10t-17.5 6.5t-20 3
t-17 0.5h-11l-10 18v22q0 8 -0.5 14t-0.5 11v27v11q0 8 1 11q2 11 1.5 28.5t-1.5 43.5q-3 53 -22 53t-34 -8t-37 -23q-23 -14 -37.5 -34t-14.5 -46v-6q0 -7 1 -16t1 -11q5 -1 10 -1.5t10 -0.5h10q7 0 10 -1q18 0 23 -15q4 -13 4 -28v-18v-11q0 -8 1 -13q1 -29 -7 -41.5
t-16 -18.5t-12.5 -20t-4.5 -29zM780 3q0 19 -4 26q-5 10 -22 24q-5 0 -20.5 -0.5t-32.5 -0.5t-32.5 0.5t-22.5 0.5l-8.5 1t-17.5 4q-5 2 -8.5 3t-8.5 3q-8 5 25 14q163 64 166 88q1 25 -6 33l-9 21q-14 10 -25.5 18.5t-19.5 15.5q-8 8 -16 14t-17 13q-9 6 -19.5 12t-22.5 14
q-23 14 -55 14q-6 0 -17 -3t-22.5 -8.5t-19.5 -12.5t-8 -15q0 -7 7 -15.5t16.5 -17t19.5 -15t16 -9.5q1 -1 17 -1q3 1 6 1h5h5q3 0 10 -0.5t15.5 -1t15.5 -1t9 -0.5v-23q-10 0 -26 -10q-19 -12 -88 -47q-68 -36 -59 -58q11 -24 -1 -82q-12 -60 116 -36q28 -6 47.5 -7.5
t45.5 -2.5q14 0 26 1t21 5.5t14 14t5 26.5z" />
    <glyph glyph-name="FL00BEh" unicode="&#xbe;" horiz-adv-x="833" 
d="M573 540q0 28 -1 47.5t-7 31.5t-19 17.5t-38 5.5q-21 0 -40 -16t-37 -42t-34.5 -59.5t-32.5 -67.5q-11 -24 -21 -46.5t-21 -42.5q-6 -11 -11 -26.5t-9.5 -31.5t-9.5 -30t-10 -21q-21 -27 -90 -222q-6 -66 17 -86q6 -5 1 1t-11 13.5t-9 11.5t6 -5q38 -32 75 -32q7 0 23 25
q8 13 17.5 31t20.5 43q22 49 32 61q4 5 9 12t10 16l21 39q11 20 20 38.5t14 29.5q15 30 37.5 67.5t44.5 78t37.5 82t15.5 77.5zM499 128v-63q-2 -14 64 -11q33 1 56.5 1.5t38.5 0.5h8q1 -17 3 -34.5t8 -32t17 -23.5t30 -9h9q20 10 30.5 25.5t15 33.5t5 38t0.5 40v14
q0 8 -10 11q0 13 -4 30t-8.5 34.5t-8.5 34.5t-4 31q0 13 5 24t5 23q0 16 -11 18q-12 3 -24 3q-23 1 -36 -9.5t-20 -26.5t-10 -35t-6.5 -35.5t-9.5 -27.5t-18 -11h-5q-6 0 -15 1t-9 9v90q0 2 -8 4t-13 4h-8q-23 0 -37.5 -10.5t-23 -27t-12 -37t-3.5 -41.5q0 -2 -0.5 -7.5
t0 -11.5t2.5 -11t7 -6zM296 522q0 9 -10 24t-23.5 29.5t-27.5 25t-23 10.5h-108q-19 0 -54 -35q-17 -17 -24 -39q-8 -27 -8 -30q17 -3 37 -2q7 1 12.5 1.5t10.5 0.5h22h4q3 -1 8.5 -2t11.5 -3.5t10 -6.5t4 -11q0 -10 -21 -15t-46.5 -12.5t-46.5 -21t-21 -40.5v-5
q0 -8 1 -15.5t8 -7.5l155 24q-13 -37 -43 -40q-14 -1 -28 -3.5t-28 -7.5q-12 -5 -23.5 -11t-21.5 -14q-20 -15 -20 -45q0 -7 0.5 -14.5t8.5 -9.5h6q3 0 8.5 -0.5t9.5 -0.5h5q55 0 101.5 19t80.5 54.5t53.5 87t19.5 116.5z" />
    <glyph glyph-name="FL00BFh" unicode="&#xbf;" horiz-adv-x="480" 
d="M218 606q0 11 -7.5 30.5t-20 38t-27.5 33t-30 16.5q-26 3 -47.5 -11t-37.5 -35.5t-25 -46t-9 -42.5t1 -42t8.5 -45.5t23 -36t44.5 -14.5q37 0 61.5 13t39 35t20.5 49.5t6 57.5zM318 401q0 28 -9.5 41.5t-45.5 11.5q-38 -13 -83 -64q-22 -26 -42 -53.5t-38 -56.5
q-37 -60 -61.5 -122t-24.5 -117q0 -54 15 -78t70 -24q32 0 70.5 8.5t78 25t76 39.5t65 52t45.5 63t17 72q0 23 -9 33t-34 10q-27 0 -49.5 -10t-44 -22t-45 -23t-53.5 -13q21 15 40 42.5t32.5 60t21.5 65.5t8 59z" />
    <glyph glyph-name="FL00C0h" unicode="&#xc0;" 
d="M17 -43q15 -14 28 -16.5t32 -2.5q29 0 47 14t32.5 34.5t29 45t38 45t59.5 34.5t92 14q3 0 12.5 -1t12.5 -1q0 -8 5 -34.5t13.5 -56t21 -52.5t27.5 -23q31 0 58.5 20.5t48 50.5t32.5 64t12 60q0 31 -2 68t-6.5 76t-12.5 79t-20 78q-24 78 -70.5 137t-123.5 83
q-26 -3 -44.5 -12t-39.5 -27q-11 -9 -19 -15.5t-13 -11.5q-58 -49 -104.5 -122t-79.5 -155.5t-50.5 -167t-17.5 -155.5v-10q0 -6 1 -16t1 -16v-8zM267 402h35q66 0 79 -28q14 -30 14 -59h-128v87zM268 933q-31 0 -43.5 -13t-12.5 -27q0 -27 23.5 -54t60.5 -50.5t81.5 -42.5
t85.5 -29q0 6 1 18t1 17q0 24 -9 55.5t-31.5 59.5t-60.5 47t-96 19z" />
    <glyph glyph-name="FL00C1h" unicode="&#xc1;" 
d="M17 -43q15 -14 28 -16.5t32 -2.5q29 0 47 14t32.5 34.5t29 45t38 45t59.5 34.5t92 14q3 0 12.5 -1t12.5 -1q0 -8 5 -34.5t13.5 -56t21 -52.5t27.5 -23q31 0 58.5 20.5t48 50.5t32.5 64t12 60q0 31 -2 68t-6.5 76t-12.5 79t-20 78q-24 78 -70.5 137t-123.5 83
q-26 -3 -44.5 -12t-39.5 -27q-11 -9 -19 -15.5t-13 -11.5q-58 -49 -104.5 -122t-79.5 -155.5t-50.5 -167t-17.5 -155.5v-10q0 -6 1 -16t1 -16v-8zM267 402h35q66 0 79 -28q14 -30 14 -59h-128v87zM458 920q-57 0 -95 -19t-62 -47q-23 -27 -31 -59.5t-8 -56.5q0 -5 0.5 -16.5
t0.5 -18.5q42 10 86.5 29t81 43t60.5 51t24 54q0 13 -12.5 26.5t-44.5 13.5z" />
    <glyph glyph-name="FL00C2h" unicode="&#xc2;" 
d="M17 -43q15 -14 28 -16.5t32 -2.5q29 0 47 14t32.5 34.5t29 45t38 45t59.5 34.5t92 14q3 0 12.5 -1t12.5 -1q0 -8 5 -34.5t13.5 -56t21 -52.5t27.5 -23q31 0 58.5 20.5t48 50.5t32.5 64t12 60q0 31 -2 68t-6.5 76t-12.5 79t-20 78q-24 78 -70.5 137t-123.5 83
q-26 -3 -44.5 -12t-39.5 -27q-11 -9 -19 -15.5t-13 -11.5q-58 -49 -104.5 -122t-79.5 -155.5t-50.5 -167t-17.5 -155.5v-10q0 -6 1 -16t1 -16v-8zM267 402h35q66 0 79 -28q14 -30 14 -59h-128v87zM347 930q-80 -38 -102 -66q-23 -29 -38 -51q-14 -23 -16 -43.5t16 -56.5
q18 4 41 12t44 17t38 18.5t24 16.5q16 16 38 0q13 -8 30 -16.5t39 -18.5q23 -10 44.5 -17t41.5 -12q16 36 14 56.5t-15 43.5q-7 11 -16 24t-22 27q-24 29 -62 47t-69 22q-50 -14 -30 -3z" />
    <glyph glyph-name="FL00C3h" unicode="&#xc3;" 
d="M17 -43q15 -14 28 -16.5t32 -2.5q29 0 47 14t32.5 34.5t29 45t38 45t59.5 34.5t92 14q3 0 12.5 -1t12.5 -1q0 -8 5 -34.5t13.5 -56t21 -52.5t27.5 -23q31 0 58.5 20.5t48 50.5t32.5 64t12 60q0 31 -2 68t-6.5 76t-12.5 79t-20 78q-24 78 -70.5 137t-123.5 83
q-26 -3 -44.5 -12t-39.5 -27q-11 -9 -19 -15.5t-13 -11.5q-58 -49 -104.5 -122t-79.5 -155.5t-50.5 -167t-17.5 -155.5v-10q0 -6 1 -16t1 -16v-8zM267 402h35q66 0 79 -28q14 -30 14 -59h-128v87zM568 923q-41 -6 -65.5 -19t-40.5 -23.5t-26 -15.5t-20 6q-11 13 -43 33
q-16 10 -31 15.5t-29 7.5q-20 -7 -26.5 -8t1.5 4q-65 -37 -85 -66q-22 -30 -32 -51q-11 -24 -11 -43q0 -22 10 -56q17 5 35.5 12t37.5 17q40 19 53 35t33 0q10 -8 24 -16.5t33 -18.5q39 -20 60 -9q22 10 37 16.5t22 8.5q8 3 40 26q32 24 50 51.5t18 53.5q0 14 -9 27t-36 13z
" />
    <glyph glyph-name="FL00C4h" unicode="&#xc4;" 
d="M17 -43q15 -14 28 -16.5t32 -2.5q29 0 47 14t32.5 34.5t29 45t38 45t59.5 34.5t92 14q3 0 12.5 -1t12.5 -1q0 -8 5 -34.5t13.5 -56t21 -52.5t27.5 -23q31 0 58.5 20.5t48 50.5t32.5 64t12 60q0 31 -2 68t-6.5 76t-12.5 79t-20 78q-24 78 -70.5 137t-123.5 83
q-26 -3 -44.5 -12t-39.5 -27q-11 -9 -19 -15.5t-13 -11.5q-58 -49 -104.5 -122t-79.5 -155.5t-50.5 -167t-17.5 -155.5v-10q0 -6 1 -16t1 -16v-8zM267 402h35q66 0 79 -28q14 -30 14 -59h-128v87zM155 800q0 -30 17.5 -56t47.5 -26q27 0 50.5 9.5t40.5 26.5t26.5 40.5
t9.5 50.5q0 33 -26 55t-59 22q-52 0 -79.5 -35t-27.5 -87zM428 807q0 -30 17.5 -56t47.5 -26q27 0 50.5 9.5t40.5 26.5t26.5 40.5t9.5 50.5q0 33 -26 54.5t-59 21.5q-52 0 -79.5 -35t-27.5 -86z" />
    <glyph glyph-name="FL00C5h" unicode="&#xc5;" 
d="M17 -43q15 -14 28 -16.5t32 -2.5q29 0 47 14t32.5 34.5t29 45t38 45t59.5 34.5t92 14q3 0 12.5 -1t12.5 -1q0 -8 5 -34.5t13.5 -56t21 -52.5t27.5 -23q31 0 58.5 20.5t48 50.5t32.5 64t12 60q0 31 -2 68t-6.5 76t-12.5 79t-20 78q-24 78 -70.5 137t-123.5 83
q-26 -3 -44.5 -12t-39.5 -27q-11 -9 -19 -15.5t-13 -11.5q-58 -49 -104.5 -122t-79.5 -155.5t-50.5 -167t-17.5 -155.5v-10q0 -6 1 -16t1 -16v-8zM267 402h35q66 0 79 -28q14 -30 14 -59h-128v87zM275 820q0 -27 17.5 -51t47.5 -24q27 0 50.5 9t40.5 24.5t26.5 37t9.5 46.5
q0 31 -26 51t-59 20q-52 0 -79.5 -32.5t-27.5 -80.5z" />
    <glyph glyph-name="FL00C6h" unicode="&#xc6;" horiz-adv-x="1018" 
d="M17 -43v8q0 6 -1 16t-1 16v10q0 71 17.5 155.5t50.5 167t79.5 155.5t104.5 122q5 5 13 11.5t19 15.5q21 18 39.5 27t44.5 12q58 -17 98 -55.5t66 -90.5q69 72 161 110.5t204 38.5h11q7 0 18 -1t18 -1h11q17 -3 18 -19t1 -29q0 -61 -40 -92q-42 -33 -92 -50
q-26 -8 -54 -14t-57 -8q-59 -5 -86 -80l310 49q14 0 16.5 -15.5t2.5 -29.5v-10q0 -37 -20 -60.5t-50 -39t-65 -25t-65 -17t-50 -16t-20 -21.5t8.5 -21.5t20 -14t22.5 -7.5t17 -3h8q39 0 89 3q49 3 75 -3q0 -18 -16 -60q-16 -45 -50 -79q-33 -33 -61 -50.5t-45 -17.5h-217
q-22 0 -55 27q-23 -14 -48 -14q-15 0 -27.5 23t-21 52.5t-13.5 56t-5 34.5q-3 0 -12.5 1t-12.5 1q-56 0 -92 -14t-59.5 -34.5t-38 -45t-29 -45t-32.5 -34.5t-47 -14q-19 0 -32 2.5t-28 16.5zM267 402v-87h128q0 29 -14 59q-13 28 -79 28h-35z" />
    <glyph glyph-name="FL00C7h" unicode="&#xc7;" horiz-adv-x="637" 
d="M7 203v60l16 80q0 12 44 102q43 94 144 159q100 64 229 64q5 0 19.5 1.5t33 2.5t39 0t37.5 -6.5t28 -16.5t11 -29q0 -21 -12 -50t-30 -56t-38.5 -47t-37.5 -22q-27 0 -65 0.5t-77.5 -4t-76.5 -17.5t-64 -41q-4 -3 -10.5 -18t-6.5 -22q0 -20 9 -44t23.5 -45.5t32 -36
t35.5 -14.5h200q3 0 10 -8t7 -12q0 -6 -5.5 -19t-16 -31t-24.5 -39.5t-30 -42.5q-11 -14 -18.5 -27.5t-12.5 -24.5q-10 -22 -28.5 -39t-41.5 -20q-46 0 -82 3q-24 -62 -63 -92q-60 -48 -110 -59q-48 -12 -95 -12q-1 24 0 42t3.5 33t6.5 29t8 29q8 14 15 23.5t12 14.5
q11 11 67 -8q51 -17 60 23q-20 7 -42 23q-38 28 -65 78.5t-38 135.5z" />
    <glyph glyph-name="FL00C8h" unicode="&#xc8;" horiz-adv-x="630" 
d="M17 117q0 -17 19 -47t45.5 -59t55 -50t46.5 -21h217q16 0 45 17q14 9 30 22t31 29.5t28 36t22 42.5q16 42 16 60q-26 6 -75 3q-50 -3 -89 -3h-8q-6 1 -17 3t-22.5 7.5t-20 14t-8.5 21.5t20 21.5t50 16t65 17t65 25t50 39t20 60.5v10q0 14 -2.5 29.5t-16.5 15.5l-310 -49
q27 75 86 80q29 2 57 8t54 14q50 17 92 50q40 31 40 92q0 13 -1 29t-18 19h-11q-7 0 -18 1t-18 1h-11q-110 0 -203 -38t-160.5 -109.5t-106 -174.5t-38.5 -233zM235 940q-32 0 -44.5 -13.5t-12.5 -26.5q0 -27 24 -54t60.5 -51t81 -42.5t86.5 -29.5q0 7 1 18.5t1 16.5
q0 25 -9 56.5t-31.5 59.5t-60.5 47t-96 19z" />
    <glyph glyph-name="FL00C9h" unicode="&#xc9;" horiz-adv-x="630" 
d="M17 117q0 -17 19 -47t45.5 -59t55 -50t46.5 -21h217q16 0 45 17q14 9 30 22t31 29.5t28 36t22 42.5q16 42 16 60q-26 6 -75 3q-50 -3 -89 -3h-8q-6 1 -17 3t-22.5 7.5t-20 14t-8.5 21.5t20 21.5t50 16t65 17t65 25t50 39t20 60.5v10q0 14 -2.5 29.5t-16.5 15.5l-310 -49
q27 75 86 80q29 2 57 8t54 14q50 17 92 50q40 31 40 92q0 13 -1 29t-18 19h-11q-7 0 -18 1t-18 1h-11q-110 0 -203 -38t-160.5 -109.5t-106 -174.5t-38.5 -233zM418 900q-57 0 -95 -19t-62 -47q-23 -27 -31 -59.5t-8 -56.5q0 -5 0.5 -16.5t0.5 -18.5q42 10 86.5 29t81 43
t60.5 51t24 54q0 13 -12.5 26.5t-44.5 13.5z" />
    <glyph glyph-name="FL00CAh" unicode="&#xca;" horiz-adv-x="630" 
d="M17 117q0 -17 19 -47t45.5 -59t55 -50t46.5 -21h217q16 0 45 17q14 9 30 22t31 29.5t28 36t22 42.5q16 42 16 60q-26 6 -75 3q-50 -3 -89 -3h-8q-6 1 -17 3t-22.5 7.5t-20 14t-8.5 21.5t20 21.5t50 16t65 17t65 25t50 39t20 60.5v10q0 14 -2.5 29.5t-16.5 15.5l-310 -49
q27 75 86 80q29 2 57 8t54 14q50 17 92 50q40 31 40 92q0 13 -1 29t-18 19h-11q-7 0 -18 1t-18 1h-11q-110 0 -203 -38t-160.5 -109.5t-106 -174.5t-38.5 -233zM313 923q-78 -38 -102 -66q-11 -14 -20.5 -26.5t-16.5 -24.5q-14 -23 -15.5 -43t14.5 -56q20 5 41.5 12t44.5 17
q46 19 62 35t38 0t63 -25q40 -9 68 -9q11 19 16 32.5t3.5 26.5t-10 27t-24.5 34q-24 28 -61.5 47t-70.5 23q-25 -7 -32.5 -8t2.5 4z" />
    <glyph glyph-name="FL00CBh" unicode="&#xcb;" horiz-adv-x="630" 
d="M17 117q0 -17 19 -47t45.5 -59t55 -50t46.5 -21h217q16 0 45 17q14 9 30 22t31 29.5t28 36t22 42.5q16 42 16 60q-26 6 -75 3q-50 -3 -89 -3h-8q-6 1 -17 3t-22.5 7.5t-20 14t-8.5 21.5t20 21.5t50 16t65 17t65 25t50 39t20 60.5v10q0 14 -2.5 29.5t-16.5 15.5l-310 -49
q27 75 86 80q29 2 57 8t54 14q50 17 92 50q40 31 40 92q0 13 -1 29t-18 19h-11q-7 0 -18 1t-18 1h-11q-110 0 -203 -38t-160.5 -109.5t-106 -174.5t-38.5 -233zM128 787q0 -30 17.5 -56t47.5 -26q27 0 50.5 9.5t40.5 26.5t26.5 40.5t9.5 50.5q0 33 -26 54.5t-59 21.5
q-52 0 -79.5 -35t-27.5 -86zM412 810q0 -30 17.5 -56t47.5 -26q27 0 50.5 9.5t40 26.5t26 40.5t9.5 50.5q0 33 -25.5 55t-59.5 22q-51 0 -78.5 -35t-27.5 -87z" />
    <glyph glyph-name="FL00CCh" unicode="&#xcc;" horiz-adv-x="447" 
d="M65 -13q0 -14 1.5 -28t16.5 -17q3 0 11 -0.5t18 -1.5t18.5 -1.5t11.5 -0.5q25 0 55.5 3.5t61 12t59 23t50.5 37t35.5 53.5t13.5 73v10q-9 17 -30 25t-43 10.5t-40 2t-21 -0.5l-16 38q0 2 -1 14.5t-1 27.5t-1 29t-1 24q0 57 8.5 96t19 69t19 55.5t8.5 54.5q0 20 -9 43
q-9 24 -32 24q-41 0 -87 -16t-86 -44.5t-66 -69t-26 -89.5v-12q0 -14 2 -32t3 -22q35 -4 52.5 -14t30.5 -33q13 -22 15.5 -50t2.5 -67q0 -27 -8.5 -55t-18 -56.5t-18 -57t-8.5 -57.5zM62 943q-32 0 -44.5 -13t-12.5 -27q0 -26 24 -53.5t60.5 -51.5t81 -42.5t86.5 -28.5
q0 6 0.5 18t0.5 17q0 23 -8 55.5t-32 59.5q-23 28 -61 47t-95 19z" />
    <glyph glyph-name="FL00CDh" unicode="&#xcd;" horiz-adv-x="447" 
d="M65 -13q0 -14 1.5 -28t16.5 -17q3 0 11 -0.5t18 -1.5t18.5 -1.5t11.5 -0.5q25 0 55.5 3.5t61 12t59 23t50.5 37t35.5 53.5t13.5 73v10q-9 17 -30 25t-43 10.5t-40 2t-21 -0.5l-16 38q0 2 -1 14.5t-1 27.5t-1 29t-1 24q0 57 8.5 96t19 69t19 55.5t8.5 54.5q0 20 -9 43
q-9 24 -32 24q-41 0 -87 -16t-86 -44.5t-66 -69t-26 -89.5v-12q0 -14 2 -32t3 -22q35 -4 52.5 -14t30.5 -33q13 -22 15.5 -50t2.5 -67q0 -27 -8.5 -55t-18 -56.5t-18 -57t-8.5 -57.5zM275 910q-58 0 -96 -19t-60.5 -47t-31.5 -59.5t-9 -56.5q0 -5 1 -16.5t1 -18.5
q41 11 85.5 30t81.5 42.5t61 50.5t24 54q0 13 -12.5 26.5t-44.5 13.5z" />
    <glyph glyph-name="FL00CEh" unicode="&#xce;" horiz-adv-x="447" 
d="M65 -13q0 -14 1.5 -28t16.5 -17q3 0 11 -0.5t18 -1.5t18.5 -1.5t11.5 -0.5q25 0 55.5 3.5t61 12t59 23t50.5 37t35.5 53.5t13.5 73v10q-9 17 -30 25t-43 10.5t-40 2t-21 -0.5l-16 38q0 2 -1 14.5t-1 27.5t-1 29t-1 24q0 57 8.5 96t19 69t19 55.5t8.5 54.5q0 20 -9 43
q-9 24 -32 24q-41 0 -87 -16t-86 -44.5t-66 -69t-26 -89.5v-12q0 -14 2 -32t3 -22q35 -4 52.5 -14t30.5 -33q13 -22 15.5 -50t2.5 -67q0 -27 -8.5 -55t-18 -56.5t-18 -57t-8.5 -57.5zM123 907q-80 -39 -102 -67q-11 -14 -20.5 -26.5t-16.5 -23.5q-7 -12 -11 -22t-4.5 -21.5
t3 -25t11.5 -31.5q20 5 41.5 12t44.5 17q46 19 62 35t38 0q23 -16 52 -20t76 -4q13 10 21.5 16.5t11.5 12t1 12.5t-9 19q-7 11 -16.5 23.5t-20.5 26.5q-25 29 -62 47t-70 23q-50 -14 -30 -3z" />
    <glyph glyph-name="FL00CFh" unicode="&#xcf;" horiz-adv-x="447" 
d="M65 -13q0 -14 1.5 -28t16.5 -17q3 0 11 -0.5t18 -1.5t18.5 -1.5t11.5 -0.5q25 0 55.5 3.5t61 12t59 23t50.5 37t35.5 53.5t13.5 73v10q-9 17 -30 25t-43 10.5t-40 2t-21 -0.5l-16 38q0 2 -1 14.5t-1 27.5t-1 29t-1 24q0 57 8.5 96t19 69t19 55.5t8.5 54.5q0 20 -9 43
q-9 24 -32 24q-41 0 -87 -16t-86 -44.5t-66 -69t-26 -89.5v-12q0 -14 2 -32t3 -22q35 -4 52.5 -14t30.5 -33q13 -22 15.5 -50t2.5 -67q0 -27 -8.5 -55t-18 -56.5t-18 -57t-8.5 -57.5zM-82 753q0 -30 17.5 -55.5t47.5 -25.5q27 0 50.5 9.5t40.5 26t26.5 40t9.5 50.5
q0 34 -26 55.5t-59 21.5q-52 0 -79.5 -35t-27.5 -87zM175 803q0 -30 17.5 -55.5t47.5 -25.5q27 0 50.5 9.5t40.5 26t26.5 40t9.5 50.5q0 34 -26 55.5t-59 21.5q-52 0 -79.5 -35t-27.5 -87z" />
    <glyph glyph-name="FL00D0h" unicode="&#xd0;" horiz-adv-x="776" 
d="M168 375v79v33t-1 30q-2 56 99 94q50 19 91.5 32t77.5 21.5t68 12t62 3.5q36 0 70.5 -6.5t61 -24t42.5 -49t16 -80.5q0 -4 -0.5 -10.5t-0.5 -13.5t-0.5 -12t-0.5 -6q-5 -29 -9 -66q-4 -36 -17.5 -77t-49.5 -97q-36 -57 -80 -110t-93 -95q-48 -42 -103.5 -68.5
t-124.5 -26.5q-51 0 -73 54q-11 28 -19 59.5t-12 67.5q-6 57 -6 114q-5 -1 -9 -1h-5h-5q-1 0 -11 -0.5t-17 -0.5q-30 0 -51 6.5t-54 24.5v22q0 10 1.5 11t5 2t10.5 6.5t18 23.5q42 11 71 17.5t48 11.5v19zM476 299q-33 -7 -67.5 -15.5t-66.5 -16.5q2 -15 5.5 -33t8.5 -39
q4 0 13 -1.5t12 -1.5q16 1 48 16t64 37t56 48t24 50q0 33 -10 57.5t-27.5 41t-40 25t-47.5 8.5h-8l-100 -40v-12q0 -7 -1 -18t-1 -19v-11v-2q28 3 53 3t42 -6q37 -13 61 -43q2 -3 3.5 -4t2.5 -2q-3 -2 -9 -6.5t-15 -15.5z" />
    <glyph glyph-name="FL00D1h" unicode="&#xd1;" horiz-adv-x="593" 
d="M15 380q0 -24 1 -66t4 -91t8 -99.5t13 -92t19.5 -67.5t26.5 -26q35 0 55.5 17.5t33.5 41.5q14 29 10 90q-2 33 -4 59.5t-4 46.5q-3 42 26 7q14 -17 30.5 -33.5t35.5 -33.5q16 -17 26.5 -31.5t17.5 -25.5t19.5 -30.5t31.5 -45.5l15 -58l8.5 -2t13.5 -2q53 0 89 39
q18 20 36 41t35 44v20q0 75 -7 143.5t-16.5 136t-18.5 136t-13 142.5q-4 18 -18 20t-27 2q-24 0 -44 -10.5t-34 -28t-21.5 -41.5t-6.5 -51q1 -19 3 -42t4 -51q5 -57 -13 -95q-18 -41 -60 54q-28 57 -42 76q-13 19 -29 53q-17 37 -40.5 62t-76.5 32q-34 -7 -51 -44
q-16 -33 -25 -67q-8 -31 -9.5 -66t-1.5 -63zM437 887q-49 0 -84 -20q-17 -10 -28.5 -18t-18.5 -15q-14 -14 -27 0q-14 14 -46 33q-36 20 -61 23q-44 -14 -27 -3q-70 -41 -89 -67q-11 -14 -19 -26.5t-15 -23.5q-6 -12 -9 -22t-3 -22q0 -20 12 -56q18 5 37 12t39 17
q41 19 54 35q15 17 35 0q10 -8 25 -16.5t35 -18.5q40 -20 63 -9q23 10 38 16.5t23 8.5q9 3 41 26q33 24 53 51.5t20 54.5q0 13 -10 26.5t-38 13.5z" />
    <glyph glyph-name="FL00D2h" unicode="&#xd2;" horiz-adv-x="713" 
d="M15 227q0 -13 3 -31t8 -43q6 -23 14 -46.5t18 -48.5q19 -47 42 -69q20 -20 83 -49h227q61 30 87 60l26 30t27 30q40 45 59 91t37 85q19 39 29 87.5t10 118.5q0 81 -41 142t-111 86h-20q-13 0 -29.5 1t-31.5 1h-19q-189 0 -305 -110q-113 -110 -113 -335zM210 367v10v9
t1 10q1 6 1 10v9q0 9 1 10q19 22 52 22h53q37 0 68 -12.5t53 -35t34 -54t12 -70.5q0 -21 -7 -40.5t-19 -34.5t-29 -23.5t-37 -8.5q-36 0 -69 18t-58.5 46.5t-40.5 64t-15 70.5zM232 950q-32 0 -44.5 -13.5t-12.5 -26.5q0 -27 24 -54t60.5 -51t81 -43t86.5 -29q0 7 0.5 18.5
t0.5 16.5q0 24 -8 56.5t-32 59.5q-23 28 -61 47t-95 19z" />
    <glyph glyph-name="FL00D3h" unicode="&#xd3;" horiz-adv-x="713" 
d="M15 227q0 -13 3 -31t8 -43q6 -23 14 -46.5t18 -48.5q19 -47 42 -69q20 -20 83 -49h227q61 30 87 60l26 30t27 30q40 45 59 91t37 85q19 39 29 87.5t10 118.5q0 81 -41 142t-111 86h-20q-13 0 -29.5 1t-31.5 1h-19q-189 0 -305 -110q-113 -110 -113 -335zM210 367v10v9
t1 10q1 6 1 10v9q0 9 1 10q19 22 52 22h53q37 0 68 -12.5t53 -35t34 -54t12 -70.5q0 -21 -7 -40.5t-19 -34.5t-29 -23.5t-37 -8.5q-36 0 -69 18t-58.5 46.5t-40.5 64t-15 70.5zM445 943q-58 0 -96 -19t-60.5 -47t-31.5 -59.5t-9 -55.5q0 -5 1 -17t1 -18q41 10 85.5 29
t81.5 43t61 51t24 53q0 14 -12.5 27t-44.5 13z" />
    <glyph glyph-name="FL00D4h" unicode="&#xd4;" horiz-adv-x="713" 
d="M15 227q0 -13 3 -31t8 -43q6 -23 14 -46.5t18 -48.5q19 -47 42 -69q20 -20 83 -49h227q61 30 87 60l26 30t27 30q40 45 59 91t37 85q19 39 29 87.5t10 118.5q0 81 -41 142t-111 86h-20q-13 0 -29.5 1t-31.5 1h-19q-189 0 -305 -110q-113 -110 -113 -335zM210 367v10v9
t1 10q1 6 1 10v9q0 9 1 10q19 22 52 22h53q37 0 68 -12.5t53 -35t34 -54t12 -70.5q0 -21 -7 -40.5t-19 -34.5t-29 -23.5t-37 -8.5q-36 0 -69 18t-58.5 46.5t-40.5 64t-15 70.5zM320 923q-78 -38 -102 -66q-11 -14 -20.5 -26.5t-16.5 -24.5q-14 -23 -16 -43t15 -56
q20 5 41.5 12t44.5 17q47 20 61 35q16 16 38 0q11 -8 28.5 -16.5t40.5 -18.5q44 -19 76 -16q19 17 23 33t-2 32t-20 33.5t-30 38.5q-23 28 -61 47t-70 23q-25 -7 -32.5 -8t2.5 4z" />
    <glyph glyph-name="FL00D5h" unicode="&#xd5;" horiz-adv-x="713" 
d="M15 227q0 -13 3 -31t8 -43q6 -23 14 -46.5t18 -48.5q19 -47 42 -69q20 -20 83 -49h227q61 30 87 60l26 30t27 30q40 45 59 91t37 85q19 39 29 87.5t10 118.5q0 81 -41 142t-111 86h-20q-13 0 -29.5 1t-31.5 1h-19q-189 0 -305 -110q-113 -110 -113 -335zM210 367v10v9
t1 10q1 6 1 10v9q0 9 1 10q19 22 52 22h53q37 0 68 -12.5t53 -35t34 -54t12 -70.5q0 -21 -7 -40.5t-19 -34.5t-29 -23.5t-37 -8.5q-36 0 -69 18t-58.5 46.5t-40.5 64t-15 70.5zM530 907q-49 0 -84 -20q-17 -10 -28.5 -18t-18.5 -15q-14 -14 -27 0q-14 14 -46 33
q-36 20 -61 23q-44 -14 -27 -3q-70 -41 -89 -67q-11 -14 -19 -26.5t-15 -23.5q-6 -12 -9 -22t-3 -22q0 -20 12 -56q19 5 38 12t39 17q41 19 54 35q14 17 34 0q10 -8 25 -16.5t35 -18.5q40 -20 63 -9q24 10 39 16.5t23 8.5q8 3 40 26q33 24 53 51.5t20 54.5q0 13 -10 26.5
t-38 13.5z" />
    <glyph glyph-name="FL00D6h" unicode="&#xd6;" horiz-adv-x="713" 
d="M15 227q0 -13 3 -31t8 -43q6 -23 14 -46.5t18 -48.5q19 -47 42 -69q20 -20 83 -49h227q61 30 87 60l26 30t27 30q40 45 59 91t37 85q19 39 29 87.5t10 118.5q0 81 -41 142t-111 86h-20q-13 0 -29.5 1t-31.5 1h-19q-189 0 -305 -110q-113 -110 -113 -335zM210 367v10v9
t1 10q1 6 1 10v9q0 9 1 10q19 22 52 22h53q37 0 68 -12.5t53 -35t34 -54t12 -70.5q0 -21 -7 -40.5t-19 -34.5t-29 -23.5t-37 -8.5q-36 0 -69 18t-58.5 46.5t-40.5 64t-15 70.5zM402 823q0 -30 17.5 -55.5t47.5 -25.5q55 0 90.5 35.5t35.5 90.5q0 34 -25.5 55.5t-59.5 21.5
q-51 0 -78.5 -35t-27.5 -87zM122 787q0 -30 17.5 -56t47.5 -26q27 0 50.5 9.5t40 26.5t26 40.5t9.5 50.5q0 33 -25.5 54.5t-59.5 21.5q-51 0 -78.5 -35t-27.5 -86z" />
    <glyph glyph-name="FL00D7h" unicode="&#xd7;" horiz-adv-x="418" 
d="M154 147q26 -17 41.5 -32t30.5 -34q15 -18 31.5 -33.5t39.5 -15.5q20 0 37.5 10t30.5 26.5t20.5 36t7.5 39.5q0 23 -16 41t-35 35q-18 17 -32.5 35t-25.5 32q17 28 28.5 43.5t24.5 30.5t23 30.5t10 35.5q0 15 -8 20t-22 5q-22 0 -37 -7.5t-29 -18.5q-13 -11 -26 -24
t-38 -35q-23 32 -50 52.5t-62 20.5q-15 0 -30.5 -9.5t-28 -23.5t-21.5 -31.5t-11 -32.5q-3 -20 7 -36.5t24 -31t27.5 -28.5t18.5 -30q-6 -14 -15.5 -28t-20.5 -34q-11 -19 -20.5 -42.5t-9.5 -50.5v-4l12 -12l2.5 -0.5t3.5 -0.5q19 0 34.5 12.5t29.5 28.5q14 17 27 30.5
t27 30.5z" />
    <glyph glyph-name="FL00D8h" unicode="&#xd8;" horiz-adv-x="640" 
d="M15 238v16q0 10 1 21t1 17v8q10 69 29 118t41 82.5t43.5 54t36.5 33.5q32 25 64.5 41.5t85.5 30.5q7 1 33 3q13 1 21 1.5t12 0.5q47 0 89.5 -12t75 -38.5t51.5 -68t19 -99.5q0 -83 -17.5 -149t-49 -123t-74.5 -109t-94 -106q-28 -22 -61 -22h-64q-58 0 -103 22.5t-76 63
t-47.5 95t-16.5 119.5zM182 377q0 -64 22 -108q5 8 11 21t13 27.5t13 29t11 24.5q11 20 21 42.5t21 46.5q0 2 2 4q-18 3 -38 3q-2 0 -10.5 -0.5t-18.5 -1.5t-18.5 -1.5t-10.5 -0.5q-17 -18 -17.5 -40.5t-0.5 -45.5zM435 277q0 26 -3.5 47.5t-9.5 39.5q-17 -30 -33 -56.5
t-27 -49.5q-5 -11 -14 -29.5t-20 -38.5l-11 -21q15 -4 41 -4q22 0 42 11t33 32v12q0 8 1 22t1 22v13z" />
    <glyph glyph-name="FL00D9h" unicode="&#xd9;" horiz-adv-x="730" 
d="M15 345q0 -36 1 -80.5t6 -89.5t15.5 -88t28.5 -76t45.5 -53t66.5 -20q32 0 60 5t54.5 13.5t52.5 21t55 27.5q2 0 7.5 1t9.5 1q17 0 30.5 -7t27 -15.5t28.5 -15.5t35 -7q36 0 57.5 4.5t37.5 18t30.5 38t36.5 65.5v9q0 59 -8 90t-20.5 45.5t-27 17.5t-27.5 5.5t-22.5 9.5
t-11.5 30l-33 355q0 12 -17 17.5t-30 5.5h-13q-30 0 -56 -21.5t-45 -54.5t-30 -71t-11 -71q0 -46 10 -75t10 -72q0 -32 -3 -66q-1 -35 -42 -55q-41 -6 -63 11t-33 46t-15 65.5t-8 69.5q-3 34 -5 68.5t-5.5 65t-9.5 55.5t-17 40q-3 0 -8.5 1t-12.5 1.5t-12.5 1.5t-8.5 1
q-41 0 -63 -28t-32.5 -69t-12.5 -87.5t-2 -83.5zM168 903q-31 0 -43.5 -13t-12.5 -27q0 -27 23.5 -54t60.5 -50.5t81.5 -42.5t85.5 -29q0 6 1 18t1 17q0 24 -9 55.5t-31.5 59.5t-60.5 47t-96 19z" />
    <glyph glyph-name="FL00DAh" unicode="&#xda;" horiz-adv-x="730" 
d="M15 345q0 -36 1 -80.5t6 -89.5t15.5 -88t28.5 -76t45.5 -53t66.5 -20q32 0 60 5t54.5 13.5t52.5 21t55 27.5q2 0 7.5 1t9.5 1q17 0 30.5 -7t27 -15.5t28.5 -15.5t35 -7q36 0 57.5 4.5t37.5 18t30.5 38t36.5 65.5v9q0 59 -8 90t-20.5 45.5t-27 17.5t-27.5 5.5t-22.5 9.5
t-11.5 30l-33 355q0 12 -17 17.5t-30 5.5h-13q-30 0 -56 -21.5t-45 -54.5t-30 -71t-11 -71q0 -46 10 -75t10 -72q0 -32 -3 -66q-1 -35 -42 -55q-41 -6 -63 11t-33 46t-15 65.5t-8 69.5q-3 34 -5 68.5t-5.5 65t-9.5 55.5t-17 40q-3 0 -8.5 1t-12.5 1.5t-12.5 1.5t-8.5 1
q-41 0 -63 -28t-32.5 -69t-12.5 -87.5t-2 -83.5zM375 890q-58 0 -96 -19t-60.5 -47t-31.5 -59.5t-9 -56.5q0 -5 1 -16.5t1 -18.5q41 11 85.5 30t81.5 42.5t61 50.5t24 54q0 13 -12.5 26.5t-44.5 13.5z" />
    <glyph glyph-name="FL00DBh" unicode="&#xdb;" horiz-adv-x="730" 
d="M15 345q0 -36 1 -80.5t6 -89.5t15.5 -88t28.5 -76t45.5 -53t66.5 -20q32 0 60 5t54.5 13.5t52.5 21t55 27.5q2 0 7.5 1t9.5 1q17 0 30.5 -7t27 -15.5t28.5 -15.5t35 -7q36 0 57.5 4.5t37.5 18t30.5 38t36.5 65.5v9q0 59 -8 90t-20.5 45.5t-27 17.5t-27.5 5.5t-22.5 9.5
t-11.5 30l-33 355q0 12 -17 17.5t-30 5.5h-13q-30 0 -56 -21.5t-45 -54.5t-30 -71t-11 -71q0 -46 10 -75t10 -72q0 -32 -3 -66q-1 -35 -42 -55q-41 -6 -63 11t-33 46t-15 65.5t-8 69.5q-3 34 -5 68.5t-5.5 65t-9.5 55.5t-17 40q-3 0 -8.5 1t-12.5 1.5t-12.5 1.5t-8.5 1
q-41 0 -63 -28t-32.5 -69t-12.5 -87.5t-2 -83.5zM240 910q-78 -38 -102 -66q-17 -22 -30 -39t-19 -33.5t-4 -35t15 -43.5q20 5 41.5 12t44.5 17q46 20 61 35q16 16 38 0q23 -15 65 -25q43 -9 70 -9q34 20 27 49.5t-46 71.5q-24 29 -61 47t-70 22q-50 -14 -30 -3z" />
    <glyph glyph-name="FL00DCh" unicode="&#xdc;" horiz-adv-x="730" 
d="M15 345q0 -36 1 -80.5t6 -89.5t15.5 -88t28.5 -76t45.5 -53t66.5 -20q32 0 60 5t54.5 13.5t52.5 21t55 27.5q2 0 7.5 1t9.5 1q17 0 30.5 -7t27 -15.5t28.5 -15.5t35 -7q36 0 57.5 4.5t37.5 18t30.5 38t36.5 65.5v9q0 59 -8 90t-20.5 45.5t-27 17.5t-27.5 5.5t-22.5 9.5
t-11.5 30l-33 355q0 12 -17 17.5t-30 5.5h-13q-30 0 -56 -21.5t-45 -54.5t-30 -71t-11 -71q0 -46 10 -75t10 -72q0 -32 -3 -66q-1 -35 -42 -55q-41 -6 -63 11t-33 46t-15 65.5t-8 69.5q-3 34 -5 68.5t-5.5 65t-9.5 55.5t-17 40q-3 0 -8.5 1t-12.5 1.5t-12.5 1.5t-8.5 1
q-41 0 -63 -28t-32.5 -69t-12.5 -87.5t-2 -83.5zM345 807q0 -30 17.5 -56t47.5 -26q27 0 50.5 9.5t40.5 26.5t26.5 40.5t9.5 50.5q0 33 -26 54.5t-59 21.5q-52 0 -79.5 -35t-27.5 -86zM65 767q0 -30 17.5 -56t47.5 -26q27 0 50.5 9.5t40.5 26.5t26.5 40.5t9.5 50.5
q0 33 -26 54.5t-59 21.5q-52 0 -79.5 -35t-27.5 -86z" />
    <glyph glyph-name="FL00DDh" unicode="&#xdd;" horiz-adv-x="613" 
d="M132 33q0 -30 16 -48t40 -28t52 -13.5t52 -3.5q22 0 52 17t62 43.5t64 59t57 64t40.5 58t15.5 41.5v25q0 20 1 42t1 40v27q0 12 1 40t0 63.5t-5 73.5t-13 69.5t-25 51.5t-41 20q-42 0 -72 -24.5t-50 -60.5t-31.5 -77t-15.5 -73q-1 0 -7 -1t-9 -1q-39 0 -56 29
q-8 15 -15 31.5t-14 33.5q-13 36 -30 64q-17 29 -59 29q-33 0 -57 -19.5t-40 -48t-23.5 -62.5t-7.5 -62q0 -47 12.5 -85.5t36.5 -66.5t60 -43.5t84 -15.5q24 0 45.5 2.5t42 5t41.5 5t45 2.5q0 -4 0.5 -8t0.5 -6q-1 -3 -2.5 -9.5t-4.5 -16.5q-6 -20 -9 -24q-35 4 -76.5 -0.5
t-76.5 -20t-58.5 -45t-23.5 -74.5zM415 900q-58 0 -96 -19t-60.5 -47t-31.5 -59.5t-9 -56.5q0 -5 1 -16.5t1 -18.5q41 11 85.5 30t81.5 42.5t61 50.5t24 54q0 13 -12.5 26.5t-44.5 13.5z" />
    <glyph glyph-name="FL00DEh" unicode="&#xde;" horiz-adv-x="613" 
d="M15 403l2 65q6 48 16 61q3 3 6 18.5t5.5 35t5.5 38.5t6 30q7 5 9.5 7l2.5 2l-1.5 -0.5t-2.5 -2.5q-1 -1 -1 -2q0 -3 19 -3q13 0 30.5 1.5t33.5 3t27.5 3l11.5 1.5h-1q9 -6 12 -12.5t3 -12.5q0 -8 -2.5 -14.5t-2.5 -11.5q0 -19 -5.5 -26t-5.5 -9q0 -1 6 -1q13 0 42 1.5
t60 4t57.5 4t35.5 1.5q24 0 53 -7t54.5 -21.5t42.5 -36.5t17 -53q0 -45 -21 -93t-52 -93.5t-66 -84.5t-63 -66l-33 -18q-11 -7 -35 -11t-42 -8q-15 -3 -20 -27v-1q0 -4 2 -12t5 -17.5t5 -18.5t2 -16t-3 -10q-5 -8 -18 -14.5t-28 -12.5t-29.5 -11.5t-21.5 -10.5
q-3 -2 -12 -4.5t-13 -2.5q-12 0 -23.5 29t-21.5 73.5t-19 99.5t-15.5 107t-10 95t-3.5 64zM198 317q0 -9 2 -23t6.5 -27.5t11 -23t15.5 -9.5q15 0 35.5 10t40.5 25t36 32.5t21 32.5q2 6 2 7v7q0 17 -13.5 26.5t-31 14t-33.5 5.5t-21 1q-33 0 -52 -17.5t-19 -60.5z" />
    <glyph glyph-name="FL00DFh" unicode="&#xdf;" 
d="M218 423q0 32 12 40.5t33 8.5h18q17 0 31.5 -7.5t14.5 -29.5q-3 -19 -16 -36t-34 -42q17 -96 26 -104q45 -13 52 -22q6 -8 8 -16l1 -4t1 -8q0 -20 -9 -31.5t-21 -18t-25.5 -10t-22.5 -6.5q0 -175 35 -152q17 11 68.5 50t136.5 105q78 88 81 117q2 15 3 27.5t1 22.5v12
q0 8 -1 21t-1 21v12q-8 12 -20 19.5t-22.5 14.5t-18 15.5t-7.5 22.5q0 13 5.5 26.5t12 26t12 23.5t5.5 19q0 33 -16 55.5t-41 36t-54 19.5t-56 6q-35 0 -99 -12q-32 -6 -64 -14.5t-63 -19.5q-64 -21 -101 -60q-36 -38 -73 -178v-116q0 -11 1 -34.5t2.5 -53.5t3.5 -63
t4 -62.5t3.5 -53t2.5 -33.5q20 -107 46 -107q14 0 41 1.5t69 5.5q40 44 29 333q0 7 0.5 14.5t1.5 16.5q2 10 2.5 59.5t1.5 142.5z" />
    <glyph glyph-name="FL00E0h" unicode="&#xe0;" horiz-adv-x="637" 
d="M15 17q0 -14 3 -27t9.5 -24t18 -17.5t29.5 -6.5q3 0 12.5 0.5t12.5 0.5q25 19 43.5 34.5t31.5 31.5t23 35t19 56l166 7q5 0 8.5 -7t6 -18t6 -26t8.5 -31q10 -32 27 -60q18 -28 54 -28q19 0 36.5 9t31.5 23t24 30.5t15 32.5v25q0 20 1 41.5t1 39.5v29q0 30 -0.5 70.5
t-5.5 83.5t-15.5 84.5t-31.5 74.5t-53 53t-79 20q-82 2 -131 -20.5t-79 -61.5t-49 -91t-41 -110q-10 -30 -27.5 -61.5t-34 -63t-28.5 -64t-12 -64.5zM345 407q32 -10 37 -57q6 -47 6 -80l-131 -10q8 55 37 93q28 39 51 54zM292 787q-32 0 -44.5 -12.5t-12.5 -24.5
q0 -25 24 -50.5t60.5 -48t81 -40.5t86.5 -28q0 7 0.5 18t0.5 16q0 21 -10.5 50.5t-33.5 56t-60.5 45t-91.5 18.5z" />
    <glyph glyph-name="FL00E1h" unicode="&#xe1;" horiz-adv-x="637" 
d="M15 17q0 -14 3 -27t9.5 -24t18 -17.5t29.5 -6.5q3 0 12.5 0.5t12.5 0.5q25 19 43.5 34.5t31.5 31.5t23 35t19 56l166 7q5 0 8.5 -7t6 -18t6 -26t8.5 -31q10 -32 27 -60q18 -28 54 -28q19 0 36.5 9t31.5 23t24 30.5t15 32.5v25q0 20 1 41.5t1 39.5v29q0 30 -0.5 70.5
t-5.5 83.5t-15.5 84.5t-31.5 74.5t-53 53t-79 20q-82 2 -131 -20.5t-79 -61.5t-49 -91t-41 -110q-10 -30 -27.5 -61.5t-34 -63t-28.5 -64t-12 -64.5zM345 407q32 -10 37 -57q6 -47 6 -80l-131 -10q8 55 37 93q28 39 51 54zM495 798q-57 0 -92.5 -19t-59.5 -47
q-23 -27 -34 -56t-11 -51q0 -5 1 -16.5t1 -18.5q41 10 85.5 28t81.5 41t61 49t24 52q0 12 -12.5 25t-44.5 13z" />
    <glyph glyph-name="FL00E2h" unicode="&#xe2;" horiz-adv-x="637" 
d="M15 17q0 -14 3 -27t9.5 -24t18 -17.5t29.5 -6.5q3 0 12.5 0.5t12.5 0.5q25 19 43.5 34.5t31.5 31.5t23 35t19 56l166 7q5 0 8.5 -7t6 -18t6 -26t8.5 -31q10 -32 27 -60q18 -28 54 -28q19 0 36.5 9t31.5 23t24 30.5t15 32.5v25q0 20 1 41.5t1 39.5v29q0 30 -0.5 70.5
t-5.5 83.5t-15.5 84.5t-31.5 74.5t-53 53t-79 20q-82 2 -131 -20.5t-79 -61.5t-49 -91t-41 -110q-10 -30 -27.5 -61.5t-34 -63t-28.5 -64t-12 -64.5zM345 407q32 -10 37 -57q6 -47 6 -80l-131 -10q8 55 37 93q28 39 51 54zM357 787q-80 -39 -102 -67q-11 -14 -20.5 -26.5
t-17.5 -23.5q-14 -23 -16 -43.5t16 -56.5q20 5 41 12t44 17q46 19 62 35t38 0q23 -16 52 -20t76 -4q13 10 21.5 16.5t12 12t1.5 12.5t-9 19q-14 23 -38 50q-24 29 -62 47.5t-69 22.5q-50 -14 -30 -3z" />
    <glyph glyph-name="FL00E3h" unicode="&#xe3;" horiz-adv-x="637" 
d="M15 17q0 -14 3 -27t9.5 -24t18 -17.5t29.5 -6.5q3 0 12.5 0.5t12.5 0.5q25 19 43.5 34.5t31.5 31.5t23 35t19 56l166 7q5 0 8.5 -7t6 -18t6 -26t8.5 -31q10 -32 27 -60q18 -28 54 -28q19 0 36.5 9t31.5 23t24 30.5t15 32.5v25q0 20 1 41.5t1 39.5v29q0 30 -0.5 70.5
t-5.5 83.5t-15.5 84.5t-31.5 74.5t-53 53t-79 20q-82 2 -131 -20.5t-79 -61.5t-49 -91t-41 -110q-10 -30 -27.5 -61.5t-34 -63t-28.5 -64t-12 -64.5zM345 407q32 -10 37 -57q6 -47 6 -80l-131 -10q8 55 37 93q28 39 51 54zM573 793q-25 0 -46 -5.5t-37.5 -13.5t-28.5 -17
t-19 -16q-14 -14 -27 0q-12 13 -45 33q-33 19 -62 23q-22 -7 -28 -8t2 4q-69 -38 -90 -66q-20 -27 -33 -51q-12 -23 -12 -43q0 -18 11 -56q19 5 38 12t39 17q41 19 54 35q14 17 34 0q10 -8 25 -16.5t35 -18.5q40 -20 63 -9q24 10 39 16.5t23 8.5q9 3 41 26q33 24 53 51.5
t20 53.5q0 14 -10 27t-39 13z" />
    <glyph glyph-name="FL00E4h" unicode="&#xe4;" horiz-adv-x="637" 
d="M15 17q0 -14 3 -27t9.5 -24t18 -17.5t29.5 -6.5q3 0 12.5 0.5t12.5 0.5q25 19 43.5 34.5t31.5 31.5t23 35t19 56l166 7q5 0 8.5 -7t6 -18t6 -26t8.5 -31q10 -32 27 -60q18 -28 54 -28q19 0 36.5 9t31.5 23t24 30.5t15 32.5v25q0 20 1 41.5t1 39.5v29q0 30 -0.5 70.5
t-5.5 83.5t-15.5 84.5t-31.5 74.5t-53 53t-79 20q-82 2 -131 -20.5t-79 -61.5t-49 -91t-41 -110q-10 -30 -27.5 -61.5t-34 -63t-28.5 -64t-12 -64.5zM345 407q32 -10 37 -57q6 -47 6 -80l-131 -10q8 55 37 93q28 39 51 54zM148 650q0 -30 17.5 -56t47.5 -26q27 0 50.5 9.5
t40.5 26.5t26.5 40.5t9.5 50.5q0 33 -26 55t-59 22q-52 0 -79.5 -35t-27.5 -87zM405 673q0 -30 17.5 -55.5t47.5 -25.5q27 0 50.5 9.5t40.5 26t26.5 40t9.5 50.5q0 34 -26 55.5t-59 21.5q-52 0 -79.5 -35t-27.5 -87z" />
    <glyph glyph-name="grave" unicode="&#xe5;" horiz-adv-x="637" 
d="M15 17q0 -14 3 -27t9.5 -24t18 -17.5t29.5 -6.5q3 0 12.5 0.5t12.5 0.5q25 19 43.5 34.5t31.5 31.5t23 35t19 56l166 7q5 0 8.5 -7t6 -18t6 -26t8.5 -31q10 -32 27 -60q18 -28 54 -28q19 0 36.5 9t31.5 23t24 30.5t15 32.5v25q0 20 1 41.5t1 39.5v29q0 30 -0.5 70.5
t-5.5 83.5t-15.5 84.5t-31.5 74.5t-53 53t-79 20q-82 2 -131 -20.5t-79 -61.5t-49 -91t-41 -110q-10 -30 -27.5 -61.5t-34 -63t-28.5 -64t-12 -64.5zM345 407q32 -10 37 -57q6 -47 6 -80l-131 -10q8 55 37 93q28 39 51 54zM288 678q0 -28 17.5 -52t47.5 -24q27 0 50.5 9
t40.5 25t26.5 38t9.5 48q0 30 -26 50t-59 20q-52 0 -79.5 -32.5t-27.5 -81.5z" />
    <glyph glyph-name="FL00E6h" unicode="&#xe6;" horiz-adv-x="1044" 
d="M15 17q0 32 12 64.5t28.5 64t34 63t27.5 61.5q22 58 41 110t49 91t79 61.5t131 20.5q63 0 98.5 -34t55.5 -84q69 54 157.5 83t194.5 29h58q17 -4 18 -16.5t1 -23.5q0 -50 -40 -77q-39 -27 -92 -42t-111 -18q-59 -3 -86 -67l310 42q13 0 16 -14.5t3 -23.5v-9
q0 -31 -20 -50.5t-50 -32.5t-65 -21t-65 -14.5t-50 -13.5t-20 -18q0 -12 8.5 -18.5t20 -10.5t22.5 -5.5t17 -3.5h8q20 0 42 0.5t47 1.5q44 3 75 -2q0 -16 -16 -51q-16 -38 -50 -66q-33 -28 -61 -43t-45 -15h-217q-17 0 -43 16q-23 -14 -45 -14q-36 0 -54 28q-17 28 -27 60
q-5 16 -8.5 31t-6 26t-6 18t-8.5 7l-166 -7q-9 -37 -19 -56t-23 -35t-31.5 -31.5t-43.5 -34.5q-3 0 -12.5 -0.5t-12.5 -0.5q-18 0 -29.5 6.5t-18 17.5t-9.5 24t-3 27zM345 407q-23 -15 -51 -54q-29 -38 -37 -93l131 10q0 33 -6 80q-5 47 -37 57z" />
    <glyph glyph-name="FL00E7h" unicode="&#xe7;" horiz-adv-x="663" 
d="M33 157v50q8 39 13 61.5t7 29.5t13 25.5t31 49.5q41 62 141 115q102 54 229 54q7 0 34 2.5t57 0.5t53.5 -11t23.5 -32q0 -17 -12 -41.5t-30 -47t-38.5 -39t-37.5 -17.5h-66q-27 0 -57 -2t-59 -7.5t-55 -15.5t-47 -25q-3 -4 -9.5 -16.5t-6.5 -17.5q0 -16 8.5 -36t23 -38
t32.5 -30t36 -12h200q3 0 9.5 -7t6.5 -10q0 -6 -10.5 -23t-27 -39.5t-37.5 -46.5t-42 -44.5t-40.5 -33.5t-32.5 -13h-39q-9 0 -18 0.5t-17 1.5q-23 -61 -63 -89q-56 -40 -99.5 -56.5t-88.5 -16.5q0 53 6 77q3 11 6 23t7 25q8 28 15 35q6 6 65 -10q57 -16 62 29v1
q-57 20 -94 65t-52 132z" />
    <glyph glyph-name="FL00E8h" unicode="&#xe8;" horiz-adv-x="630" 
d="M17 103q6 -46 22 -62q8 -8 18.5 -18t23.5 -22q27 -24 55.5 -42.5t46.5 -18.5h217q17 0 45 15t61 43q34 28 50 66q16 35 16 51q-31 5 -75 2q-25 -1 -47 -1.5t-42 -0.5h-8q-6 2 -17 3.5t-22.5 5.5t-20 10.5t-8.5 18.5q0 11 20 18t50 13.5t65 14.5t65 21t50 32.5t20 50.5v9
q0 9 -3 23.5t-16 14.5l-310 -42q27 64 86 67q58 3 111 18t92 42q40 27 40 77q0 11 -1 23.5t-18 16.5h-29h-29q-112 0 -203.5 -32t-160.5 -90t-106.5 -144t-37.5 -183zM182 777q-32 0 -44.5 -12.5t-12.5 -24.5q0 -25 24 -50.5t60.5 -48t81 -40.5t86.5 -28q0 7 0.5 18t0.5 16
q0 21 -10.5 50.5t-33.5 56t-60.5 45t-91.5 18.5z" />
    <glyph glyph-name="FL00E9h" unicode="&#xe9;" horiz-adv-x="630" 
d="M17 103q6 -46 22 -62q8 -8 18.5 -18t23.5 -22q27 -24 55.5 -42.5t46.5 -18.5h217q17 0 45 15t61 43q34 28 50 66q16 35 16 51q-31 5 -75 2q-25 -1 -47 -1.5t-42 -0.5h-8q-6 2 -17 3.5t-22.5 5.5t-20 10.5t-8.5 18.5q0 11 20 18t50 13.5t65 14.5t65 21t50 32.5t20 50.5v9
q0 9 -3 23.5t-16 14.5l-310 -42q27 64 86 67q58 3 111 18t92 42q40 27 40 77q0 11 -1 23.5t-18 16.5h-29h-29q-112 0 -203.5 -32t-160.5 -90t-106.5 -144t-37.5 -183zM428 767q-54 0 -91.5 -18.5t-60.5 -45t-33.5 -56t-10.5 -50.5q0 -5 0.5 -16t0.5 -18q42 10 86.5 28
t81 40.5t60.5 48t24 50.5q0 12 -12.5 24.5t-44.5 12.5z" />
    <glyph glyph-name="FL00EAh" unicode="&#xea;" horiz-adv-x="630" 
d="M17 103q6 -46 22 -62q8 -8 18.5 -18t23.5 -22q27 -24 55.5 -42.5t46.5 -18.5h217q17 0 45 15t61 43q34 28 50 66q16 35 16 51q-31 5 -75 2q-25 -1 -47 -1.5t-42 -0.5h-8q-6 2 -17 3.5t-22.5 5.5t-20 10.5t-8.5 18.5q0 11 20 18t50 13.5t65 14.5t65 21t50 32.5t20 50.5v9
q0 9 -3 23.5t-16 14.5l-310 -42q27 64 86 67q58 3 111 18t92 42q40 27 40 77q0 11 -1 23.5t-18 16.5h-29h-29q-112 0 -203.5 -32t-160.5 -90t-106.5 -144t-37.5 -183zM333 770q-78 -38 -102 -66q-18 -23 -30 -39.5t-17.5 -32.5t-3.5 -34.5t13 -44.5q19 5 41.5 13t44 17
t38.5 18t24 16q16 16 38 0q23 -15 52 -19.5t76 -4.5q20 15 28.5 22.5t5.5 18.5t-16.5 30.5t-29.5 39.5q-25 29 -62 46.5t-70 22.5q-50 -14 -30 -3z" />
    <glyph glyph-name="FL00EBh" unicode="&#xeb;" horiz-adv-x="630" 
d="M17 103q6 -46 22 -62q8 -8 18.5 -18t23.5 -22q27 -24 55.5 -42.5t46.5 -18.5h217q17 0 45 15t61 43q34 28 50 66q16 35 16 51q-31 5 -75 2q-25 -1 -47 -1.5t-42 -0.5h-8q-6 2 -17 3.5t-22.5 5.5t-20 10.5t-8.5 18.5q0 11 20 18t50 13.5t65 14.5t65 21t50 32.5t20 50.5v9
q0 9 -3 23.5t-16 14.5l-310 -42q27 64 86 67q58 3 111 18t92 42q40 27 40 77q0 11 -1 23.5t-18 16.5h-29h-29q-112 0 -203.5 -32t-160.5 -90t-106.5 -144t-37.5 -183zM112 637q0 -30 17.5 -56t47.5 -26q27 0 50.5 9.5t40 26.5t26 40.5t9.5 50.5q0 33 -25.5 54.5t-59.5 21.5
q-51 0 -78.5 -35t-27.5 -86zM375 663q0 -30 17.5 -55.5t47.5 -25.5q27 0 50.5 9.5t40.5 26t26.5 40t9.5 50.5q0 34 -26 55.5t-59 21.5q-52 0 -79.5 -35t-27.5 -87z" />
    <glyph glyph-name="FL00ECh" unicode="&#xec;" horiz-adv-x="280" 
d="M15 372q0 -50 1 -107.5t7 -114.5t20 -111t40 -97q3 -1 8.5 -2t12.5 -1.5t12.5 -1t8.5 -0.5q26 0 49 12.5t40.5 32.5t27.5 45t10 50q0 6 -0.5 30t-2.5 59t-5 77.5t-8 85.5q-6 60 -17.5 109.5t-28.5 73.5q-15 24 -50 38q-47 -6 -67.5 -17t-34.5 -37q-13 -26 -18 -57.5
t-5 -66.5zM32 780q-32 0 -44.5 -12.5t-12.5 -24.5q0 -25 24 -50.5t60.5 -48t81 -40t86.5 -27.5q0 6 0.5 17t0.5 16q0 22 -10.5 51t-33.5 55.5t-60.5 45t-91.5 18.5z" />
    <glyph glyph-name="FL00EDh" unicode="&#xed;" horiz-adv-x="280" 
d="M15 372q0 -50 1 -107.5t7 -114.5t20 -111t40 -97q3 -1 8.5 -2t12.5 -1.5t12.5 -1t8.5 -0.5q26 0 49 12.5t40.5 32.5t27.5 45t10 50q0 6 -0.5 30t-2.5 59t-5 77.5t-8 85.5q-6 60 -17.5 109.5t-28.5 73.5q-15 24 -50 38q-47 -6 -67.5 -17t-34.5 -37q-13 -26 -18 -57.5
t-5 -66.5zM175 757q-57 0 -92.5 -18.5t-59.5 -45.5q-23 -26 -34 -55.5t-11 -50.5q0 -5 1 -16t1 -18q41 11 85.5 28.5t81.5 40t61 47.5t24 51q0 12 -12.5 24.5t-44.5 12.5z" />
    <glyph glyph-name="FL00EEh" unicode="&#xee;" horiz-adv-x="280" 
d="M15 372q0 -50 1 -107.5t7 -114.5t20 -111t40 -97q3 -1 8.5 -2t12.5 -1.5t12.5 -1t8.5 -0.5q26 0 49 12.5t40.5 32.5t27.5 45t10 50q0 6 -0.5 30t-2.5 59t-5 77.5t-8 85.5q-6 60 -17.5 109.5t-28.5 73.5q-15 24 -50 38q-47 -6 -67.5 -17t-34.5 -37q-13 -26 -18 -57.5
t-5 -66.5zM80 773q-78 -37 -101 -66q-13 -14 -22 -27t-16 -24q-14 -23 -16 -43t15 -56q20 5 41.5 12t44.5 17q47 20 61 35q16 16 38 0q23 -16 52.5 -20t75.5 -4q13 10 21.5 16t11.5 11.5t1.5 12.5t-8.5 19q-7 11 -16 24t-22 27q-23 28 -61 47t-70 23q-25 -7 -32.5 -8t2.5 4z
" />
    <glyph glyph-name="FL00EFh" unicode="&#xef;" horiz-adv-x="280" 
d="M15 372q0 -50 1 -107.5t7 -114.5t20 -111t40 -97q3 -1 8.5 -2t12.5 -1.5t12.5 -1t8.5 -0.5q26 0 49 12.5t40.5 32.5t27.5 45t10 50q0 6 -0.5 30t-2.5 59t-5 77.5t-8 85.5q-6 60 -17.5 109.5t-28.5 73.5q-15 24 -50 38q-47 -6 -67.5 -17t-34.5 -37q-13 -26 -18 -57.5
t-5 -66.5zM152 670q0 -30 17.5 -56t47.5 -26q27 0 50.5 9.5t40 26.5t26 40.5t9.5 50.5q0 33 -25.5 55t-59.5 22q-51 0 -78.5 -35t-27.5 -87zM-102 630q0 -30 17.5 -56t47.5 -26q27 0 50.5 9.5t40.5 26.5t26.5 40.5t9.5 50.5q0 33 -26 55t-59 22q-52 0 -79.5 -35t-27.5 -87z
" />
    <glyph glyph-name="FL00F0h" unicode="&#xf0;" horiz-adv-x="633" 
d="M594 208q0 65 -18.5 124.5t-51 111t-77.5 94t-98 72t-112 46t-120 16.5h-18q-14 0 -28 -1t-27 -1h-19q-15 -3 -17 -23q-1 -3 -1 -10v-8v-12q0 -22 8.5 -33.5t19.5 -21.5q6 -6 10.5 -12t8.5 -11q2 -3 -5.5 -17.5t-15 -32.5t-10.5 -35t9 -26q11 -9 36 -3.5t55 18t59.5 28
t49.5 26.5q77 -15 97 -25q11 -5 20.5 -10t16.5 -10q13 -10 19.5 -21t6.5 -18l20 -75q-14 3 -21.5 6.5t-13 6t-10 4.5t-10.5 2q-8 0 -19 2t-32.5 6t-56.5 9.5t-90 12.5q-67 -19 -88 -54q-23 -33 -33 -69q-6 -18 -6.5 -34t1.5 -28t5 -19.5t4 -9.5q21 -41 66.5 -83.5t101 -77.5
t113 -57t102.5 -22q20 0 60 34q20 17 29.5 26t10.5 10q40 40 54.5 95t14.5 110zM340 162q-3 -14 -9 -21t-14 -10t-16.5 -3.5t-16.5 -0.5q-47 0 -71 25t-24 95q16 0 39.5 -1t46 -8.5t41 -25t24.5 -50.5z" />
    <glyph glyph-name="FL00F1h" unicode="&#xf1;" horiz-adv-x="633" 
d="M20 365v-42q0 -26 0.5 -64.5t3.5 -81.5t9 -85.5t16 -76.5t25.5 -55.5t37.5 -21.5q1 0 4.5 1l3.5 1l133 127l1 8t1 12q0 33 -10 64.5t-10 66.5q0 32 10.5 48.5t25.5 28.5t33 23.5t33 33.5q22 -12 36.5 -38t23 -59t12 -70t5.5 -72t3 -64t3 -46q3 -8 9.5 -11.5t14.5 -4.5
t16 -0.5t13 0.5q14 0 33 8t38 20t35 26t24 26v23q0 20 1 40t1 38v25v45q0 40 -0.5 84t-9.5 86q-12 58 -43 94q-30 40 -94 40q-33 0 -60.5 -15t-53.5 -33.5t-51.5 -33.5t-55.5 -15q-17 0 -27 6t-20 12.5t-22.5 12.5t-34.5 6q-54 0 -83.5 -32.5t-29.5 -84.5zM453 797
q-25 0 -46 -5.5t-37.5 -14t-28.5 -17.5t-19 -16q-14 -14 -27 0q-12 13 -45 33q-36 20 -62 23q-43 -14 -26 -3q-71 -39 -90 -67q-10 -14 -18 -26.5t-15 -23.5q-6 -12 -9 -22t-3 -22q0 -11 2.5 -24.5t8.5 -31.5q19 5 38 12t39 17q41 19 54 35q14 17 34 0q10 -8 25 -16.5
t35 -18.5q40 -20 63 -9q24 10 39 16.5t23 8.5q9 3 41 26q33 24 53 51.5t20 54.5q0 13 -10 26.5t-39 13.5z" />
    <glyph glyph-name="FL00F2h" unicode="&#xf2;" horiz-adv-x="707" 
d="M15 180q0 -23 11.5 -62.5t31.5 -78.5q20 -38 109 -99l190 3q103 27 166 77q30 25 50.5 48t31.5 43q11 21 21.5 39.5t19.5 34.5q19 33 29 72.5t10 99.5q0 69 -41 117.5t-111 70.5h-20h-61h-19q-191 0 -305 -90q-113 -90 -113 -275zM223 295v10q0 10 1 22t3 15q18 20 50 20
h53q36 0 66 -10t51 -28.5t33 -44.5t12 -57q0 -18 -6.5 -33.5t-18.5 -27.5t-28.5 -19t-36.5 -7q-35 0 -67.5 14.5t-57 37.5t-39.5 51.5t-15 56.5zM227 813q-32 0 -44.5 -12.5t-12.5 -25.5q0 -26 24 -52t60.5 -49.5t81 -42t86.5 -28.5q0 7 0.5 18.5t0.5 16.5q0 22 -8 53.5
t-32 57.5q-23 27 -61 45.5t-95 18.5z" />
    <glyph glyph-name="FL00F3h" unicode="&#xf3;" horiz-adv-x="707" 
d="M15 180q0 -23 11.5 -62.5t31.5 -78.5q20 -38 109 -99l190 3q103 27 166 77q30 25 50.5 48t31.5 43q11 21 21.5 39.5t19.5 34.5q19 33 29 72.5t10 99.5q0 69 -41 117.5t-111 70.5h-20h-61h-19q-191 0 -305 -90q-113 -90 -113 -275zM223 295v10q0 10 1 22t3 15q18 20 50 20
h53q36 0 66 -10t51 -28.5t33 -44.5t12 -57q0 -18 -6.5 -33.5t-18.5 -27.5t-28.5 -19t-36.5 -7q-35 0 -67.5 14.5t-57 37.5t-39.5 51.5t-15 56.5zM513 797q-57 1 -95.5 -17.5t-61.5 -46t-32 -58t-8 -53.5q0 -5 1 -16.5t1 -18.5q41 10 85.5 29t81 42.5t60.5 49.5t24 51
q0 13 -12.5 25.5t-43.5 12.5z" />
    <glyph glyph-name="FL00F4h" unicode="&#xf4;" horiz-adv-x="707" 
d="M15 180q0 -23 11.5 -62.5t31.5 -78.5q20 -38 109 -99l190 3q103 27 166 77q30 25 50.5 48t31.5 43q11 21 21.5 39.5t19.5 34.5q19 33 29 72.5t10 99.5q0 69 -41 117.5t-111 70.5h-20h-61h-19q-191 0 -305 -90q-113 -90 -113 -275zM223 295v10q0 10 1 22t3 15q18 20 50 20
h53q36 0 66 -10t51 -28.5t33 -44.5t12 -57q0 -18 -6.5 -33.5t-18.5 -27.5t-28.5 -19t-36.5 -7q-35 0 -67.5 14.5t-57 37.5t-39.5 51.5t-15 56.5zM317 770q-80 -38 -102 -66q-23 -29 -38 -51q-14 -23 -16 -43.5t16 -56.5q18 4 41 12t44 17t38 18.5t24 16.5q16 16 38 0
q23 -15 52 -19.5t76 -4.5q13 10 21.5 16.5t12 12t1.5 12.5t-9 19q-7 11 -16 24t-22 27q-24 29 -62 47t-69 22q-50 -14 -30 -3z" />
    <glyph glyph-name="FL00F5h" unicode="&#xf5;" horiz-adv-x="707" 
d="M15 180q0 -23 11.5 -62.5t31.5 -78.5q20 -38 109 -99l190 3q103 27 166 77q30 25 50.5 48t31.5 43q11 21 21.5 39.5t19.5 34.5q19 33 29 72.5t10 99.5q0 69 -41 117.5t-111 70.5h-20h-61h-19q-191 0 -305 -90q-113 -90 -113 -275zM223 295v10q0 10 1 22t3 15q18 20 50 20
h53q36 0 66 -10t51 -28.5t33 -44.5t12 -57q0 -18 -6.5 -33.5t-18.5 -27.5t-28.5 -19t-36.5 -7q-35 0 -67.5 14.5t-57 37.5t-39.5 51.5t-15 56.5zM527 797q-49 0 -84 -20q-17 -10 -28.5 -18t-18.5 -15q-14 -14 -27 0q-14 14 -46 33q-36 20 -61 23q-44 -14 -27 -3
q-70 -41 -89 -67q-11 -14 -19 -26.5t-15 -23.5q-6 -12 -9 -22t-3 -22q0 -20 12 -56q18 5 37 12t39 17q41 19 54 35q15 17 35 0q10 -8 25 -16.5t35 -18.5q40 -20 63 -9q23 10 38 16.5t23 8.5q9 3 41 26q33 24 53 51.5t20 54.5q0 13 -10 26.5t-38 13.5z" />
    <glyph glyph-name="FL00F6h" unicode="&#xf6;" horiz-adv-x="707" 
d="M15 180q0 -23 11.5 -62.5t31.5 -78.5q20 -38 109 -99l190 3q103 27 166 77q30 25 50.5 48t31.5 43q11 21 21.5 39.5t19.5 34.5q19 33 29 72.5t10 99.5q0 69 -41 117.5t-111 70.5h-20h-61h-19q-191 0 -305 -90q-113 -90 -113 -275zM223 295v10q0 10 1 22t3 15q18 20 50 20
h53q36 0 66 -10t51 -28.5t33 -44.5t12 -57q0 -18 -6.5 -33.5t-18.5 -27.5t-28.5 -19t-36.5 -7q-35 0 -67.5 14.5t-57 37.5t-39.5 51.5t-15 56.5zM135 637q0 -30 17.5 -56t47.5 -26q27 0 50.5 9.5t40.5 26.5t26.5 40.5t9.5 50.5q0 33 -26 54.5t-59 21.5q-52 0 -79.5 -35
t-27.5 -86zM385 657q0 -30 17.5 -56t47.5 -26q27 0 50.5 9.5t40.5 26.5t26.5 40.5t9.5 50.5q0 33 -26 54.5t-59 21.5q-52 0 -79.5 -35t-27.5 -86z" />
    <glyph glyph-name="FL00F7h" unicode="&#xf7;" horiz-adv-x="480" 
d="M415 215q-86 -19 -137.5 -27t-80 -10.5t-39.5 -1.5t-15 0q-1 0 -11 -0.5t-17 -0.5q-30 0 -51 6.5t-54 24.5v22q0 10 2.5 12.5t7.5 5.5t12.5 9.5t18.5 24.5q153 39 154 36q1 -1 1 -4q48 0 91.5 -1.5t80.5 -15.5q37 -13 61 -43q6 -8 8 -8.5t-1 -1.5t-10.5 -6t-20.5 -21z
M128 1q0 52 27.5 87t78.5 35q34 0 59.5 -22t25.5 -55q0 -55 -32 -78t-87 -23q-30 0 -51 13t-21 43zM144 412q0 52 27.5 87t78.5 35q34 0 59.5 -22t25.5 -55q0 -55 -32 -78t-87 -23q-30 0 -51 13t-21 43z" />
    <glyph glyph-name="FL00F8h" unicode="&#xf8;" horiz-adv-x="707" 
d="M15 180q0 185 113 275q114 90 305 90h100q70 -22 111 -70.5t41 -117.5q0 -60 -10 -99.5t-29 -72.5q-9 -16 -19.5 -34.5t-21.5 -39.5q-11 -20 -31.5 -43t-50.5 -48q-64 -50 -166 -77l-190 -3q-90 63 -109 99q-20 39 -31.5 78.5t-11.5 62.5zM492 222q0 27 -9 50t-25 41
l-127 -162q33 -16 71 -16q20 0 36.5 7t28.5 19t18.5 27.5t6.5 33.5zM223 295q0 -24 10.5 -48.5t29.5 -45.5l95 159q-7 1 -14 1.5t-14 0.5h-53q-32 0 -50 -20q-2 -3 -3 -15t-1 -22v-10z" />
    <glyph glyph-name="FL00F9h" unicode="&#xf9;" horiz-adv-x="613" 
d="M17 292v-222q0 -13 10 -35t25 -43t32.5 -36.5t32.5 -15.5h183q6 4 17.5 10.5t24.5 12.5t24.5 10.5t16.5 4.5q2 0 8.5 -8t8.5 -10q3 -5 16.5 -11t16.5 -9h9q23 0 43.5 10.5t38.5 27t33 36.5t26 38v10v8q0 1 -2 6.5t-5 11.5t-5.5 11.5t-3.5 7.5l-50 388q-4 30 -23 43.5
t-44 13.5q-29 0 -50.5 -18t-36.5 -45t-22.5 -57.5t-7.5 -54.5q0 -46 17 -95q18 -45 18 -84q0 -21 -15.5 -29.5t-30.5 -8.5h-22q-15 0 -36 7.5t-41 20t-34 30t-14 37.5v240q0 1 -4.5 3.5t-11.5 5l-14 5t-12 4.5h-8q-35 0 -51 -26.5t-24 -62.5t-13.5 -73t-19.5 -59zM152 800
q-32 0 -44.5 -12.5t-12.5 -25.5q0 -26 24 -52t60.5 -49.5t81 -42t86.5 -28.5q0 7 0.5 18.5t0.5 16.5q0 22 -8 53.5t-32 57.5q-23 27 -61 45.5t-95 18.5z" />
    <glyph glyph-name="FL00FAh" unicode="&#xfa;" horiz-adv-x="613" 
d="M17 292v-222q0 -13 10 -35t25 -43t32.5 -36.5t32.5 -15.5h183q6 4 17.5 10.5t24.5 12.5t24.5 10.5t16.5 4.5q2 0 8.5 -8t8.5 -10q3 -5 16.5 -11t16.5 -9h9q23 0 43.5 10.5t38.5 27t33 36.5t26 38v10v8q0 1 -2 6.5t-5 11.5t-5.5 11.5t-3.5 7.5l-50 388q-4 30 -23 43.5
t-44 13.5q-29 0 -50.5 -18t-36.5 -45t-22.5 -57.5t-7.5 -54.5q0 -46 17 -95q18 -45 18 -84q0 -21 -15.5 -29.5t-30.5 -8.5h-22q-15 0 -36 7.5t-41 20t-34 30t-14 37.5v240q0 1 -4.5 3.5t-11.5 5l-14 5t-12 4.5h-8q-35 0 -51 -26.5t-24 -62.5t-13.5 -73t-19.5 -59zM372 803
q-57 1 -95.5 -17.5t-61.5 -46t-32 -58t-8 -53.5q0 -5 1 -16.5t1 -18.5q41 10 85.5 29t81 42.5t60.5 49.5t24 51q0 13 -12.5 25.5t-43.5 12.5z" />
    <glyph glyph-name="FL00FBh" unicode="&#xfb;" horiz-adv-x="613" 
d="M17 292v-222q0 -13 10 -35t25 -43t32.5 -36.5t32.5 -15.5h183q6 4 17.5 10.5t24.5 12.5t24.5 10.5t16.5 4.5q2 0 8.5 -8t8.5 -10q3 -5 16.5 -11t16.5 -9h9q23 0 43.5 10.5t38.5 27t33 36.5t26 38v10v8q0 1 -2 6.5t-5 11.5t-5.5 11.5t-3.5 7.5l-50 388q-4 30 -23 43.5
t-44 13.5q-29 0 -50.5 -18t-36.5 -45t-22.5 -57.5t-7.5 -54.5q0 -46 17 -95q18 -45 18 -84q0 -21 -15.5 -29.5t-30.5 -8.5h-22q-15 0 -36 7.5t-41 20t-34 30t-14 37.5v240q0 1 -4.5 3.5t-11.5 5l-14 5t-12 4.5h-8q-35 0 -51 -26.5t-24 -62.5t-13.5 -73t-19.5 -59zM250 807
q-80 -39 -102 -67q-11 -14 -20.5 -26.5t-16.5 -23.5q-7 -12 -11.5 -22t-5 -21.5t3 -25t12.5 -31.5q20 5 41.5 12t44.5 17q47 20 61 35q16 16 38 0q23 -16 52.5 -20t75.5 -4q13 10 21.5 16.5t12 12t1.5 12.5t-9 19q-14 23 -38 50q-24 29 -61.5 47.5t-69.5 22.5
q-50 -14 -30 -3z" />
    <glyph glyph-name="FL00FCh" unicode="&#xfc;" horiz-adv-x="613" 
d="M17 292v-222q0 -13 10 -35t25 -43t32.5 -36.5t32.5 -15.5h183q6 4 17.5 10.5t24.5 12.5t24.5 10.5t16.5 4.5q2 0 8.5 -8t8.5 -10q3 -5 16.5 -11t16.5 -9h9q23 0 43.5 10.5t38.5 27t33 36.5t26 38v10v8q0 1 -2 6.5t-5 11.5t-5.5 11.5t-3.5 7.5l-50 388q-4 30 -23 43.5
t-44 13.5q-29 0 -50.5 -18t-36.5 -45t-22.5 -57.5t-7.5 -54.5q0 -46 17 -95q18 -45 18 -84q0 -21 -15.5 -29.5t-30.5 -8.5h-22q-15 0 -36 7.5t-41 20t-34 30t-14 37.5v240q0 1 -4.5 3.5t-11.5 5l-14 5t-12 4.5h-8q-35 0 -51 -26.5t-24 -62.5t-13.5 -73t-19.5 -59zM48 643
q0 -30 17.5 -55.5t47.5 -25.5q27 0 50.5 9.5t40.5 26t26.5 40t9.5 50.5q0 34 -26 55.5t-59 21.5q-52 0 -79.5 -35t-27.5 -87zM302 670q0 -30 17.5 -56t47.5 -26q27 0 50.5 9.5t40 26.5t26 40.5t9.5 50.5q0 33 -25.5 55t-59.5 22q-51 0 -78.5 -35t-27.5 -87z" />
    <glyph glyph-name="FL00FDh" unicode="&#xfd;" horiz-adv-x="613" 
d="M132 -23q0 -26 16 -42.5t40 -25.5t52 -12.5t52 -3.5q22 0 52 15.5t62 39.5t64 53t57 57t40.5 51.5t15.5 35.5v22q0 18 1 36.5t1 34.5v25q0 10 0.5 35.5t0 56.5t-4.5 64.5t-13.5 61t-25 45t-40.5 16.5q-42 1 -72 -20t-50 -52.5t-31.5 -68t-15.5 -64.5q-1 0 -7 -1t-9 -1
q-26 -1 -41.5 11t-25.5 31t-17.5 40.5t-18 40.5t-27 31t-44.5 11q-33 0 -57 -17t-40 -42.5t-23.5 -55.5t-7.5 -55q0 -41 12.5 -75.5t36.5 -59t60 -38.5t84 -14q24 0 45.5 2t42 5t41.5 5t45 2q0 -4 0.5 -7t0.5 -5q0 -4 -2 -10t-5 -12.5t-5.5 -12t-3.5 -8.5q-34 -19 -77 -19
q-31 -1 -59 -6t-50 -17t-35 -32t-14 -51zM412 763q-58 0 -96 -19t-60.5 -47t-31.5 -59.5t-9 -55.5q0 -5 1 -17t1 -18q41 10 85.5 29t81 42.5t60.5 50.5t24 54q0 14 -12.5 27t-43.5 13z" />
    <glyph glyph-name="FL00FEh" unicode="&#xfe;" horiz-adv-x="607" 
d="M15 323q0 3 0.5 11t0.5 16t0.5 16t0.5 11q2 10 4.5 24t5.5 29t6 29t6 25q3 10 5.5 15t4 6.5l2.5 2.5t2 4q2 3 3.5 4.5t5.5 3.5t11 5t20 9q3 1 5.5 2t4.5 2q27 13 65 13q29 0 34.5 -11t4 -24t-0.5 -24t22 -11h47t68 -2t76 -6t70.5 -11.5t52 -19t20.5 -28.5q0 -37 -21 -77
t-52 -77q-30 -36 -65 -70t-94 -62q-56 -26 -70 -29q-16 -3 -25 -20l-6 -13.5l-2 -4.5q-2 -2 -2 -5q0 -6 4 -13.5t4 -9.5l2 -47q0 -10 -13 -16t-30.5 -10.5t-34.5 -8t-24 -9.5q-3 -2 -12 -4.5t-13 -2.5q-12 0 -23.5 24t-21.5 61t-19 82.5t-15.5 88.5t-10 78.5t-3.5 53.5z
M209 327q0 -6 2 -17.5t6.5 -23t11 -19.5t15.5 -8q14 0 35 8.5t41 21t36 27t21 26.5q2 6 2 11q0 14 -13.5 22.5t-31 12.5t-33.5 5t-21 1q-33 0 -52 -15t-19 -52z" />
    <glyph glyph-name="FL00FFh" unicode="&#xff;" horiz-adv-x="613" 
d="M132 -23q0 -26 16 -42.5t40 -25.5t52 -12.5t52 -3.5q22 0 52 15.5t62 39.5t64 53t57 57t40.5 51.5t15.5 35.5v22q0 18 1 36.5t1 34.5v25q0 10 0.5 35.5t0 56.5t-4.5 64.5t-13.5 61t-25 45t-40.5 16.5q-42 1 -72 -20t-50 -52.5t-31.5 -68t-15.5 -64.5q-1 0 -7 -1t-9 -1
q-26 -1 -41.5 11t-25.5 31t-17.5 40.5t-18 40.5t-27 31t-44.5 11q-33 0 -57 -17t-40 -42.5t-23.5 -55.5t-7.5 -55q0 -41 12.5 -75.5t36.5 -59t60 -38.5t84 -14q24 0 45.5 2t42 5t41.5 5t45 2q0 -4 0.5 -7t0.5 -5q0 -4 -2 -10t-5 -12.5t-5.5 -12t-3.5 -8.5q-34 -19 -77 -19
q-31 -1 -59 -6t-50 -17t-35 -32t-14 -51zM55 643q0 -30 17.5 -55.5t47.5 -25.5q27 0 50.5 9.5t40.5 26t26.5 40t9.5 50.5q0 34 -26 55.5t-59 21.5q-52 0 -79.5 -35t-27.5 -87zM318 670q0 -30 17.5 -56t47.5 -26q27 0 50.5 9.5t40.5 26.5t26.5 40.5t9.5 50.5q0 33 -26 55
t-59 22q-52 0 -79.5 -35t-27.5 -87z" />
    <glyph glyph-name="FL0152h" unicode="&#x152;" horiz-adv-x="981" 
d="M7 203v60l16 80q0 12 44 102q43 94 144 159q100 64 229 64q5 0 19.5 1.5t33 2.5t39 0t37.5 -6.5t28 -16.5t11 -29q0 -5 -0.5 -9t-1.5 -9q115 70 266 70h11q7 0 18 -1t18 -1h11q17 -3 18 -19t1 -29q0 -61 -40 -92q-42 -33 -92 -50q-26 -8 -54 -14t-57 -8q-59 -5 -86 -80
l310 49q14 0 16.5 -15.5t2.5 -29.5v-10q0 -37 -20 -60.5t-50 -39t-65 -25t-65 -17t-50 -16t-20 -21.5t8.5 -21.5t20 -14t22.5 -7.5t17 -3h8q39 0 89 3q49 3 75 -3q0 -18 -16 -60q-16 -45 -50 -79q-33 -33 -61 -50.5t-45 -17.5h-217q-11 0 -25 7.5t-29.5 19.5t-31.5 27.5
t-30 32.5q-28 -35 -54 -61t-43 -26q-65 1 -116.5 11t-90 38.5t-64.5 79.5t-39 134zM448 445q-29 0 -61.5 -1t-65 -7t-62.5 -18.5t-52 -35.5q-4 -3 -10.5 -18t-6.5 -22q0 -20 9 -44t23.5 -45.5t32 -36t35.5 -14.5h79q15 141 79 242z" />
    <glyph glyph-name="FL0153h" unicode="&#x153;" horiz-adv-x="981" 
d="M33 157v50q8 39 13 61.5t7 29.5t13 25.5t31 49.5q41 62 141 115q102 54 229 54q6 0 31.5 2t55 0.5t53.5 -9.5t27 -27q52 21 110 32.5t124 11.5h58q17 -4 18 -16.5t1 -23.5q0 -50 -40 -77q-39 -27 -92 -42t-111 -18q-59 -3 -86 -67l310 42q13 0 16 -14.5t3 -23.5v-9
q0 -30 -20 -50t-50 -33t-65 -21t-65 -14.5t-50 -13.5t-20 -18q0 -12 8.5 -18.5t20 -10.5t22.5 -5.5t17 -3.5h8q20 0 42 0.5t47 1.5q44 3 75 -2q0 -16 -16 -51q-16 -38 -50 -66q-33 -28 -61 -43t-45 -15h-217q-17 0 -45 17t-54 40q-24 -24 -46.5 -40.5t-37.5 -16.5
q-64 0 -116 8t-91 31.5t-65 66t-38 111.5zM438 357q-27 -1 -55 -3.5t-55 -7.5t-51.5 -14.5t-43.5 -24.5q-3 -4 -9.5 -16.5t-6.5 -17.5q0 -16 8.5 -36t23 -38t32.5 -30t36 -12h46q6 55 25.5 105t49.5 95z" />
    <glyph glyph-name="FL0160h" unicode="&#x160;" 
d="M48 32q0 -34 10 -53t28 -28t42.5 -11t53.5 -2q25 1 46.5 2t42.5 3t44 5.5t52 9.5q70 54 139 124t111 153q0 3 0.5 12.5t0.5 14.5q0 24 -10 45t-26.5 37.5t-38 28.5t-43.5 17q-10 2 -29.5 5.5t-44 7.5t-51.5 7.5t-51.5 7t-44 5.5t-29.5 2v45q4 0 18.5 1t31 2.5t31 2.5
t19.5 1q1 0 6 -2.5t10.5 -6t10 -6t6.5 -2.5t14.5 6.5t19.5 10.5q12 6 31.5 19t39 29t33.5 33t14 32q0 16 -16.5 30.5t-38.5 25t-45 16.5t-35 6q-64 0 -110 -28q-23 -14 -44 -26.5t-40 -25.5q-19 -14 -34 -26.5t-32 -26.5t-38 -30.5t-52 -37.5l-17 -42q-16 -17 -17 -37.5
t-1 -44.5q0 -18 7.5 -41.5t21 -44t32 -35t41.5 -14.5h266q2 0 6.5 -3t9.5 -7l10 -8t8 -7l0.5 -3t0.5 -5q0 -11 -15.5 -19.5t-34.5 -13.5t-34.5 -7.5t-16.5 -2.5q-14 0 -44.5 -1t-65.5 -1q-34 0 -64.5 1t-42.5 1q-35 -29 -44 -48q-8 -22 -8 -52zM270 698q78 38 101 66
q12 14 21.5 27t16.5 24q7 12 11.5 22t5 21t-3 25t-12.5 32q-20 -5 -41.5 -12t-44.5 -17q-46 -19 -67 -38q-20 -18 -38 0q-16 19 -63 38q-43 19 -79 11q-15 -15 -18.5 -29.5t1.5 -30.5t17.5 -34t30.5 -39q12 -14 28 -26t34 -21t36.5 -15t33.5 -7q49 13 30 3z" />
    <glyph glyph-name="FL0161h" unicode="&#x161;" 
d="M48 18q0 -29 10 -44.5t28 -22.5t42.5 -9t53.5 -4q25 1 46.5 2.5t43 3.5t44.5 5.5t51 8.5q72 42 139.5 100t110.5 125q0 4 0.5 11.5t0.5 10.5q0 20 -10 37.5t-26.5 31t-38 22.5t-43.5 12q-14 4 -49.5 9.5t-75 10t-75 7.5t-50.5 3v37q4 0 18.5 1t31 1.5t31 1.5t19.5 1
q1 0 6 -2t10.5 -4.5t10 -4.5t6.5 -2t14.5 5.5t19.5 7.5q12 7 31.5 17t39 22.5t33.5 26.5t14 29q0 12 -16.5 23.5t-38.5 20t-45 14t-35 5.5q-32 0 -59 -6.5t-51 -16t-45 -21.5t-39 -23q-19 -12 -34 -22t-31.5 -21.5t-38 -24.5t-52.5 -31l-17 -34q-16 -11 -17 -28.5t-1 -37.5
q0 -15 7.5 -34t21 -36.5t32 -29.5t41.5 -12h266q5 0 16.5 -8t17.5 -10l0.5 -3.5t0.5 -5.5q0 -8 -15.5 -14t-34.5 -11t-34.5 -7.5t-16.5 -2.5h-110h-107q-35 -23 -44 -38q-8 -18 -8 -42zM293 555q80 37 102 62q16 22 29 37.5t19.5 30.5t4.5 32t-15 43q-20 -5 -41.5 -12
t-44.5 -17q-42 -16 -66 -35q-21 -17 -39 0q-17 17 -63 35q-43 19 -79 11q-15 -14 -18.5 -28t1.5 -29t17.5 -32t30.5 -36q12 -12 28.5 -23t34.5 -20t36 -15t33 -7q49 13 30 3z" />
    <glyph glyph-name="FL0178h" unicode="&#x178;" horiz-adv-x="613" 
d="M132 33q0 -30 16 -48t40 -28t52 -13.5t52 -3.5q22 0 52 17t62 43.5t64 59t57 64t40.5 58t15.5 41.5v25q0 20 1 42t1 40v27q0 12 1 40t0 63.5t-5 73.5t-13 69.5t-25 51.5t-41 20q-42 0 -72 -24.5t-50 -60.5t-31.5 -77t-15.5 -73q-1 0 -7 -1t-9 -1q-39 0 -56 29
q-8 15 -15 31.5t-14 33.5q-13 36 -30 64q-17 29 -59 29q-33 0 -57 -19.5t-40 -48t-23.5 -62.5t-7.5 -62q0 -47 12.5 -85.5t36.5 -66.5t60 -43.5t84 -15.5q24 0 45.5 2.5t42 5t41.5 5t45 2.5q0 -4 0.5 -8t0.5 -6q-1 -3 -2.5 -9.5t-4.5 -16.5q-6 -20 -9 -24q-35 4 -76.5 -0.5
t-76.5 -20t-58.5 -45t-23.5 -74.5zM318 787q0 -30 17.5 -56t47.5 -26q27 0 50.5 9.5t40.5 26.5t26.5 40.5t9.5 50.5q0 33 -26 54.5t-59 21.5q-52 0 -79.5 -35t-27.5 -86zM65 773q0 -30 17.5 -55.5t47.5 -25.5q27 0 50.5 9.5t40.5 26t26.5 40t9.5 50.5q0 34 -26 55.5
t-59 21.5q-52 0 -79.5 -35t-27.5 -87z" />
    <glyph glyph-name="FL017Dh" unicode="&#x17d;" horiz-adv-x="640" 
d="M587 8q0 30 -13 57.5t-35.5 47.5t-51.5 32t-60 12h-9q-1 -2 -11 -7.5t-22 -11.5t-22 -10.5t-11 -4.5q-32 -3 -59 5q-23 9 37 62l240 287q33 20 43 86q10 67 -23 94q-140 0 -177 6q-18 4 -39 6t-44 4q-48 4 -91.5 2t-78.5 -2q-52 0 -72 -17.5t-20 -65.5q0 -22 9.5 -34.5
t21.5 -22.5q13 -10 27 -25t47 -35q29 20 99 25q71 5 18 -62q-26 -33 -89.5 -105t-163.5 -184l-14 -110q-6 -80 27 -90t187 3q51 -4 82.5 -6.5t45.5 -3.5q14 -2 27 -2.5t27 0.5h51q21 0 42 1.5t37.5 8.5t27 21t10.5 39zM387 728q78 37 101 63q13 13 22 24.5t16 22.5t11 20.5
t4.5 20t-3 23.5t-11.5 31q-20 -5 -41.5 -12.5t-44.5 -15.5q-44 -17 -67 -35q-21 -17 -39 0q-17 17 -63 35q-43 18 -79 10q-15 -14 -18.5 -27.5t2 -28.5t18 -32t30.5 -36q12 -13 28 -24.5t33.5 -20.5t36 -14.5t34.5 -6.5q49 13 30 3z" />
    <glyph glyph-name="FL017Eh" unicode="&#x17e;" 
d="M587 -3q0 26 -13 48t-35.5 38.5t-51.5 25.5t-60 9h-9q-1 -1 -11 -5.5t-21.5 -9t-22 -8t-11.5 -3.5q-35 -5 -59 3q-25 8 37 52l240 233q33 18 43 73t-23 75q-70 0 -114 1.5t-63 3.5q-18 2 -39 4t-44 3q-48 3 -91.5 2.5t-78.5 -0.5q-52 0 -72 -14.5t-20 -52.5
q0 -18 9.5 -28t21.5 -20q12 -7 20 -22q7 -12 48 -38q34 28 105 32q70 4 18 -51q-26 -28 -89.5 -86.5t-163.5 -151.5l-14 -88q-6 -67 27 -76q36 -9 187 4q40 -3 66 -5.5t42.5 -4t27 -2t19.5 -0.5q13 0 27 1t27 1h24q21 0 42 1t37.5 6.5t27 17t10.5 32.5zM377 595
q39 19 64.5 34t36.5 28q13 14 22 25.5t16 22.5t11 20.5t4.5 20t-3 23.5t-11.5 31q-20 -5 -41.5 -12t-44.5 -17q-44 -17 -67 -35q-21 -17 -39 0q-17 17 -63 35q-42 19 -79 11q-15 -14 -18.5 -28t2 -29t18 -32t30.5 -36q12 -12 28 -23t33.5 -20t35.5 -15t35 -7q49 13 30 3z
" />
    <glyph glyph-name="FL0192h" unicode="&#x192;" horiz-adv-x="563" 
d="M20 173q6 -34 10 -57t6 -38.5t3.5 -24.5l2.5 -15q0 -7 -2 -17t-9 -22t-20 -26t-34 -28q-45 -29 -37 -61q7 -34 113 -41q73 43 105 93q12 19 21.5 34.5t16 28.5t11.5 25t9 25q9 25 18 48t23 38q11 10 45.5 26t74.5 34t77.5 36.5t55.5 33.5q0 2 1 11t1 12q0 20 -12 32.5
t-30 18.5q-17 6 -35 2.5t-35 -3.5q-22 0 -60 -7q-46 -6 -51 -5q-3 1 -12 1h-8q-5 0 -11 0.5t-12 0.5h-6l17 34q46 10 93 22.5t86 32.5t65 55.5t26 74.5q-57 0 -118 -1t-119 -10q-62 -9 -84 -19q-26 -10 -45 -29q-18 -18 -60 -75q-21 -30 -34 -49.5t-21 -35t-13.5 -29.5
t-11.5 -31q-12 -30 -9.5 -49.5t8.5 -45.5z" />
    <glyph glyph-name="FL02C6h" unicode="&#x2c6;" horiz-adv-x="413" 
d="M160 893q-20 -11 30 3q15 -2 33 -7.5t36 -14.5t34 -20.5t28 -26.5q13 -14 22 -27t16 -24q13 -23 15 -43.5t-14 -56.5q-20 5 -41.5 12t-44.5 17q-22 10 -39 18.5t-30 16.5q-22 16 -38 0q-7 -7 -24 -16.5t-38 -18.5t-44 -17t-41 -12q-18 36 -16 56.5t16 43.5q8 11 17.5 24
t20.5 27q22 28 102 66z" />
    <glyph glyph-name="FL02DCh" unicode="&#x2dc;" horiz-adv-x="491" 
d="M419 886q27 0 36 -13t9 -27q0 -26 -18 -53.5t-50 -51.5q-32 -23 -40 -26q-7 -2 -22 -8.5t-37 -16.5q-21 -11 -60 9q-19 10 -33 18.5t-24 16.5q-20 16 -33 0t-53 -35q-19 -10 -37.5 -17t-35.5 -12q-10 33 -10 56q0 18 11 43q5 11 13 23.5t19 27.5q19 28 85 66
q-8 -5 -1.5 -4t26.5 8q14 -2 29 -7.5t31 -15.5q33 -21 43 -33q10 -11 20 -6.5t26 15.5t41 24t65 19z" />
    <glyph glyph-name="FL2013h" unicode="&#x2013;" horiz-adv-x="480" 
d="M420 262q-86 -19 -137.5 -27t-80 -10.5t-39.5 -1.5t-15 0q-1 0 -11 -0.5t-17 -0.5q-30 0 -51 6.5t-54 24.5v22q0 37 45 108q153 39 154 36q1 -1 1 -4q48 0 91.5 -1.5t80.5 -15.5q37 -13 61 -43t-28 -93z" />
    <glyph glyph-name="FL2014h" unicode="&#x2014;" horiz-adv-x="627" 
d="M559 256q-86 -19 -159.5 -26t-128 -8.5t-87 0.5t-36.5 1q-1 0 -11 -0.5t-17 -0.5q-30 0 -51 6.5t-54 24.5v22q0 37 45 108q153 39 154 36q1 -1 1 -4q24 0 69 -1t92.5 -3.5t89.5 -7t60 -11.5q37 -13 61 -43t-28 -93z" />
    <glyph glyph-name="FL2018h" unicode="&#x2018;" horiz-adv-x="293" 
d="M257 520q0 -17 -6.5 -45.5t-14.5 -58t-15 -54.5t-9 -35q-2 0 -7.5 -1t-7.5 -1q-23 0 -42 10.5t-35 28.5t-29 41.5t-23 49.5q-22 54 -33.5 107.5t-19.5 87.5q17 38 32 42q15 6 42 6q31 0 61 -15t54 -40t38.5 -57t14.5 -66z" />
    <glyph glyph-name="FL2019h" unicode="&#x2019;" horiz-adv-x="293" 
d="M15 520q0 -17 6.5 -45.5t14.5 -58t15 -54.5t9 -35q2 0 7.5 -1t7.5 -1q23 0 42 10.5t34.5 28.5t28.5 41.5t24 49.5q20 55 31.5 108t21.5 87q-17 38 -32 42q-15 6 -42 6q-31 0 -61 -15t-54 -40t-38.5 -57t-14.5 -66z" />
    <glyph glyph-name="FL201Ah" unicode="&#x201a;" horiz-adv-x="283" 
d="M198 137q-56 0 -94.5 -29.5t-61.5 -72t-32.5 -90t-7.5 -83.5v-23q1 -5 1 -9v-7v-10q42 15 86.5 42.5t81 62.5t60.5 75t24 80q0 20 -13 42q-12 22 -44 22z" />
    <glyph glyph-name="FL201Ch" unicode="&#x201c;" horiz-adv-x="567" 
d="M257 520q0 -17 -6.5 -45.5t-14.5 -58t-15 -54.5t-9 -35q-2 0 -7.5 -1t-7.5 -1q-23 0 -42 10.5t-35 28.5t-29 41.5t-23 49.5q-22 54 -33.5 107.5t-19.5 87.5q17 38 32 42q15 6 42 6q31 0 61 -15t54 -40t38.5 -57t14.5 -66zM537 520q0 -17 -6.5 -45.5t-14.5 -58t-15 -54.5
t-9 -35q-2 0 -7.5 -1t-7.5 -1q-23 0 -42 10.5t-35 28.5t-29 41.5t-23 49.5q-22 54 -33.5 107.5t-19.5 87.5q17 38 32 42q15 6 42 6q31 0 61 -15t54 -40t38.5 -57t14.5 -66z" />
    <glyph glyph-name="FL201Dh" unicode="&#x201d;" horiz-adv-x="567" 
d="M295 520q0 -17 6.5 -45.5t14.5 -58t15 -54.5t9 -35q2 0 7.5 -1t7.5 -1q23 0 42 10.5t34.5 28.5t28.5 41.5t24 49.5q20 55 31.5 108t21.5 87q-17 38 -32 42q-15 6 -42 6q-31 0 -61 -15t-54 -40t-38.5 -57t-14.5 -66zM15 520q0 -17 6.5 -45.5t14.5 -58t15 -54.5t9 -35
q2 0 7.5 -1t7.5 -1q23 0 42 10.5t34.5 28.5t28.5 41.5t24 49.5q20 55 31.5 108t21.5 87q-17 38 -32 42q-15 6 -42 6q-31 0 -61 -15t-54 -40t-38.5 -57t-14.5 -66z" />
    <glyph glyph-name="FL201Eh" unicode="&#x201e;" horiz-adv-x="577" 
d="M198 137q-56 0 -94.5 -29.5t-61.5 -72t-32.5 -90t-7.5 -83.5v-23q1 -5 1 -9v-7v-10q42 15 86.5 42.5t81 62.5t60.5 75t24 80q0 20 -13 42q-12 22 -44 22zM484 136q-56 0 -94.5 -29.5t-61.5 -72t-32.5 -90t-7.5 -83.5v-23q1 -5 1 -9v-7v-10q42 15 86.5 42.5t81 62.5
t60.5 75t24 80q0 20 -13 42q-12 22 -44 22z" />
    <glyph glyph-name="FL2020h" unicode="&#x2020;" horiz-adv-x="480" 
d="M416 359l-137 -29q1 -27 0.5 -67t-3.5 -84.5t-7 -89t-11 -79t-15.5 -55.5t-19.5 -19t-19.5 25.5t-15.5 60t-12.5 80t-9 86t-5.5 79t-2 57.5q-18 -2 -28.5 -3.5t-14.5 -1.5q-30 0 -51 6.5t-54 24.5v22q0 37 45 108l90 4q8 193 53 179q47 -14 59 -151q83 -3 125 -17
q37 -13 61 -43t-28 -93z" />
    <glyph glyph-name="FL2021h" unicode="&#x2021;" horiz-adv-x="480" 
d="M428 149q-51 -11 -89 -18.5t-67 -12.5q-3 -37 -8 -70.5t-11 -59t-13.5 -40t-16.5 -12.5q-8 1 -15.5 16t-13.5 39t-11 55t-9 64q-7 0 -11.5 0.5t-6.5 -0.5q-1 0 -11 -0.5t-17 -0.5q-30 0 -51 6.5t-54 24.5v22q0 9 1 14t4 11t9.5 15t17.5 27q35 9 61 15t45 11
q-1 21 -1.5 38.5t-0.5 30.5q-18 -2 -28.5 -3.5t-14.5 -1.5q-30 0 -51 6.5t-54 24.5v22q0 37 45 108l90 4q8 193 53 179q47 -14 59 -151q83 -3 125 -17q37 -13 61 -43t-28 -93l-137 -29q2 -29 0 -70q28 -1 54 -4t49 -12q37 -13 61 -43q6 -8 9.5 -11t2.5 -7t-7.5 -11
t-19.5 -23z" />
    <glyph glyph-name="FL2022h" unicode="&#x2022;" horiz-adv-x="707" 
d="M15 180q0 185 113 275q114 90 305 90h19h61h20q70 -22 111 -70.5t41 -117.5q0 -60 -10 -99.5t-29 -72.5q-9 -16 -19.5 -34.5t-21.5 -39.5q-11 -20 -31.5 -43t-50.5 -48q-64 -50 -166 -77l-190 -3q-90 63 -109 99q-20 39 -31.5 78.5t-11.5 62.5z" />
    <glyph glyph-name="ellipsis" unicode="&#x2026;" horiz-adv-x="843" 
d="M302 25q0 -31 20 -63q21 -30 55 -30q31 0 58 11t46 30.5t30 46t11 58.5q0 19 -8 35.5t-22 28.5t-32 19t-37 7q-58 0 -89.5 -40t-31.5 -103zM568 32q0 -34 21 -64t54 -30q63 0 104 42q41 44 41 105q0 19 -8 35.5t-21.5 28.5t-31.5 19t-37 7q-29 0 -51.5 -11t-38.5 -30
t-24 -45.5t-8 -56.5zM15 32q0 -34 21 -64t54 -30q63 0 104 42q41 44 41 105q0 19 -8 35.5t-21.5 28.5t-31.5 19t-37 7q-30 0 -52.5 -11t-38 -30t-23.5 -45.5t-8 -56.5z" />
    <glyph glyph-name="FL2030h" unicode="&#x2030;" horiz-adv-x="1128" 
d="M573 540q0 -36 -15.5 -77.5t-37.5 -82t-44.5 -78t-37.5 -67.5q-5 -11 -14 -29.5t-20 -38.5l-21 -39q-5 -9 -10 -16t-9 -12q-9 -10 -32 -61q-11 -25 -20.5 -43t-17.5 -31q-16 -25 -23 -25q-37 0 -75 32q-9 9 -6 5t9 -11.5t11 -13.5t-1 -1q-23 20 -17 86q69 195 90 222
q5 7 10 21t9.5 30t9.5 31.5t11 26.5q11 20 21 42.5t21 46.5q16 34 32.5 67.5t34.5 59.5t37 42t40 16q25 0 38 -5.5t19 -17.5t7 -31.5t1 -47.5zM12 420v8q0 5 0.5 10.5t0.5 8.5v4q5 34 14.5 58.5t20.5 41.5t21.5 27.5t18.5 16.5q17 12 33 20t42 16q2 0 6 0.5t11 0.5q4 1 10 1
h6q24 0 45 -6t37.5 -19t26 -34t9.5 -50q0 -41 -9 -74t-25 -61.5t-37.5 -54.5t-46.5 -53q-13 -11 -30 -11h-32q-29 0 -51.5 11.5t-38.5 31.5t-24 47.5t-8 59.5zM96 489q0 -45 24 -75q25 -31 64 -31q25 0 37 22v6q0 4 0.5 10.5t0.5 11.5v6q0 51 -23 73t-65 22q-2 0 -14.5 -1
t-14.5 -1q-9 -9 -9 -20v-23zM474 138v8q0 5 0.5 10.5t0.5 8.5v4q5 34 14.5 58.5t20.5 41.5t21.5 27.5t18.5 16.5q17 12 33 20t42 16q2 0 6 0.5t11 0.5q4 1 10 1h6q24 0 45 -6t37.5 -19t26 -34t9.5 -50q0 -41 -9 -74t-25 -61.5t-37.5 -54.5t-46.5 -53q-13 -11 -30 -11h-32
q-29 0 -51.5 11.5t-38.5 31.5t-24 47.5t-8 59.5zM558 207q0 -45 24 -75q25 -31 64 -31q25 0 37 22v6q0 4 0.5 10.5t0.5 11.5v6q0 51 -23 73t-65 22q-2 0 -14.5 -1t-14.5 -1q-9 -9 -9 -20v-23zM795 158v8q0 5 0.5 10.5t0.5 8.5v4q5 34 14.5 58.5t20.5 41.5t21.5 27.5
t18.5 16.5q17 12 33 20t42 16q2 0 6 0.5t11 0.5q4 1 10 1h6q24 0 45 -6t37.5 -19t26 -34t9.5 -50q0 -41 -9 -74t-25 -61.5t-37.5 -54.5t-46.5 -53q-13 -11 -30 -11h-32q-29 0 -51.5 11.5t-38.5 31.5t-24 47.5t-8 59.5zM879 227q0 -45 24 -75q25 -31 64 -31q25 0 37 22v6
q0 4 0.5 10.5t0.5 11.5v6q0 51 -23 73t-65 22q-2 0 -14.5 -1t-14.5 -1q-9 -9 -9 -20v-23z" />
    <glyph glyph-name="FL2039h" unicode="&#x2039;" horiz-adv-x="380" 
d="M145 375q-106 -117 -133 -173q20 -60 60 -140q25 -48 63.5 -76.5t89.5 -28.5q21 0 43 13.5t40.5 33.5t31 44.5t15.5 46.5q5 30 -11 53.5t-36 43.5t-37.5 41.5t-25.5 41.5q6 18 21 40.5t30.5 49.5t28 59.5t13.5 72.5v6q-1 4 -7 9.5t-9 7.5l-3.5 1t-5.5 1
q-26 0 -48.5 -18.5t-42.5 -42.5q-20 -23 -39.5 -42t-37.5 -44z" />
    <glyph glyph-name="FL203Ah" unicode="&#x203a;" horiz-adv-x="380" 
d="M227 103q104 114 133 174q-20 59 -60 140q-25 46 -63.5 75.5t-89.5 29.5q-21 0 -43 -13.5t-40.5 -34t-31 -45t-15.5 -46.5q-5 -30 10.5 -53t35.5 -43t37.5 -42t26.5 -42q-9 -20 -22 -40.5t-29 -48.5q-16 -27 -29.5 -60.5t-13.5 -71.5v-7q2 -3 8 -9t9 -8l3.5 -0.5
t4.5 -0.5q27 0 49.5 18t42.5 41q20 24 39 43t38 44z" />
    <glyph glyph-name="FL20ACh" unicode="&#x20ac;" horiz-adv-x="723" 
d="M701 182q0 44 -22 85.5t-55.5 81.5t-73 79t-74.5 78.5t-60.5 80t-30.5 83.5q-2 0 -8 2t-9 2q-40 -1 -81.5 -32t-80.5 -80.5t-74 -111.5t-60.5 -124.5t-40.5 -119.5t-15 -96v-20q0 -13 1 -28t1 -30v-20q19 -53 48 -63q59 14 95.5 22t66.5 16.5t62.5 20t83.5 32.5t128.5 55
t198.5 87z" />
    <glyph glyph-name="FL2122h" unicode="&#x2122;" horiz-adv-x="865" 
d="M89 543q-15 0 -27 -5.5t-27 -5.5h-9q-6 0 -9 1q-11 0 -11 14q0 31 15.5 53t40.5 36t56 21.5t61 11t56.5 4t42.5 0.5q14 0 26 -5.5t27 -5.5v-8l-42 -63l-26 -10l-40 -20v-178q-6 -6 -14 -18.5t-16.5 -25.5t-18 -22.5t-18.5 -9.5t-14.5 10t-8.5 26.5t-3.5 37.5t-0.5 44
q0 22 -1.5 43.5t-5.5 38t-12 26.5t-21 10zM340 566q0 15 10 30t24 27.5t30.5 20t30.5 7.5q4 0 9.5 -0.5l5.5 -0.5l4 -4.5t8.5 -9.5t8.5 -9l4 -4q6 0 18 5t25.5 11.5t27 12.5t21.5 7h17h29h29h17q22 2 38.5 10.5t37.5 8.5q25 1 36.5 -10.5t17.5 -27.5t11 -31t17 -21
q1 -8 2.5 -25.5t2.5 -37t2 -37.5t1 -25v-10v-7q0 -5 -1.5 -12.5t-3 -14.5t-2.5 -12.5l-1 -5.5l-58 -79h-47l1 186q0 16 -4.5 23t-12 9t-16.5 1t-17 -1v-130l-63 -62h-33q-2 45 -10 93.5t-15 93.5q-2 6 -6.5 7.5t-9.5 1.5h-6q-5 0 -9.5 -7t-8 -19t-7.5 -28t-8 -33
q-3 -17 -8 -35t-11.5 -34.5t-15 -29.5t-18.5 -19q-2 -2 -6.5 -5.5t-10 -7.5t-10 -7.5t-7.5 -6.5l-16 9l-1 14.5t-2.5 34.5t-3 41l-2.5 35v39q0 9 -1.5 19t-6.5 22l-5 5t-8.5 8t-8 8t-3.5 6l-1 5t-1 8z" />
    <glyph glyph-name="sf360" horiz-adv-x="667" 
 />
    <glyph glyph-name="sf354" horiz-adv-x="717" 
 />
    <glyph glyph-name="sf278" horiz-adv-x="583" 
 />
    <glyph glyph-name="sf297" horiz-adv-x="617" 
 />
    <glyph glyph-name="sf351" horiz-adv-x="667" 
 />
    <glyph glyph-name="sf299" horiz-adv-x="1167" 
 />
    <glyph glyph-name="sf370" horiz-adv-x="633" 
 />
    <glyph glyph-name="sf339" horiz-adv-x="683" 
 />
    </font>
</defs>
</svg>
